<svg width="19" height="17" viewBox="0 0 19 17" fill="none" xmlns="http://www.w3.org/2000/svg">
<path d="M2.22423 8.54324C2.22423 7.2988 2.52423 6.14324 3.12423 5.07657C3.72423 4.00991 4.55757 3.17657 5.62423 2.57657C6.6909 1.97657 7.84645 1.67657 9.0909 1.67657C10.3353 1.67657 11.4909 1.98769 12.5576 2.60991C12.6909 2.6988 12.8353 2.72102 12.9909 2.67657C13.1465 2.63213 13.2687 2.53213 13.3576 2.37657C13.4465 2.22102 13.4687 2.05435 13.4242 1.87657C13.3798 1.6988 13.2909 1.56546 13.1576 1.47657C12.0909 0.898797 10.9687 0.554352 9.7909 0.443241C8.61312 0.33213 7.45757 0.487686 6.32423 0.909908C5.1909 1.33213 4.20201 1.96546 3.35757 2.80991C2.51312 3.65435 1.87979 4.64324 1.45757 5.77657C1.03534 6.90991 0.879788 8.06546 0.990899 9.24324C1.10201 10.421 1.45757 11.5432 2.05757 12.6099C2.65757 13.6766 3.44645 14.5432 4.42423 15.2099C5.40201 15.8766 6.47979 16.321 7.65757 16.5432C8.83534 16.7655 10.0131 16.721 11.1909 16.4099C12.3687 16.0988 13.4131 15.5544 14.3242 14.7766C15.2353 13.9988 15.9465 13.0655 16.4576 11.9766C16.9687 10.8877 17.2242 9.74324 17.2242 8.54324C17.2242 8.36546 17.1576 8.22102 17.0242 8.10991C16.8909 7.9988 16.7465 7.94324 16.5909 7.94324C16.4353 7.94324 16.2909 7.9988 16.1576 8.10991C16.0242 8.22102 15.9576 8.36546 15.9576 8.54324C15.9576 9.78768 15.6465 10.9321 15.0242 11.9766C14.402 13.021 13.5687 13.8544 12.5242 14.4766C11.4798 15.0988 10.3353 15.4099 9.0909 15.4099C7.84645 15.4099 6.70201 15.0988 5.65757 14.4766C4.61312 13.8544 3.77979 13.021 3.15757 11.9766C2.53534 10.9321 2.22423 9.78768 2.22423 8.54324ZM18.2909 2.74324C18.4242 2.60991 18.4909 2.45435 18.4909 2.27657C18.4909 2.0988 18.4242 1.95435 18.2909 1.84324C18.1576 1.73213 18.002 1.67657 17.8242 1.67657C17.6465 1.67657 17.5131 1.74324 17.4242 1.87657L9.0909 10.1432L5.75757 6.87657C5.66868 6.74324 5.53534 6.67657 5.35757 6.67657C5.17979 6.67657 5.02423 6.73213 4.8909 6.84324C4.75757 6.95435 4.6909 7.0988 4.6909 7.27657C4.6909 7.45435 4.75757 7.60991 4.8909 7.74324L8.62423 11.4766C8.75757 11.6099 8.91312 11.6766 9.0909 11.6766C9.26868 11.6766 9.42423 11.6099 9.55756 11.4766L18.2909 2.74324Z" fill="#212529"/>
</svg>
