<svg width="131" height="87" viewBox="0 0 131 87" fill="none" xmlns="http://www.w3.org/2000/svg">
<path d="M62.5454 0.220757C60.9753 0.710368 59.9454 1.68959 59.135 3.46232C58.274 5.35323 58.8649 8.08829 60.4519 9.52336C61.8701 10.8065 63.8792 11.2623 65.7363 10.7221C67.5259 10.1987 68.4039 9.45582 69.1636 7.83504C69.5519 6.99089 69.6194 6.60258 69.6194 5.47141C69.6194 4.07011 69.5181 3.74933 68.5558 2.24673C67.4415 0.474005 64.6896 -0.454567 62.5454 0.220757ZM65.5506 2.61816C66.7662 3.22595 67.3571 4.17141 67.3571 5.48829C67.3571 6.85582 66.6818 7.86881 65.3649 8.44284C64.3857 8.86491 63.9636 8.84803 62.8662 8.32465C60.3337 7.12595 60.3506 3.96881 62.8831 2.63504C63.5415 2.2805 64.8753 2.2805 65.5506 2.61816Z" fill="white"/>
<path d="M44.6495 10.2833C43.5183 10.7391 42.5391 11.4482 42.1845 12.056C41.1209 13.8288 41.104 13.8456 41.104 15.5171C41.104 16.9184 41.1547 17.2391 41.5598 18.0495C42.3365 19.6703 43.4339 20.5482 45.2235 21.021C48.6339 21.882 51.8923 19.4846 52.1287 15.9223C52.2131 14.4872 52.0105 13.7612 51.1157 12.4443C50.0521 10.8742 48.7183 10.1145 46.7598 10.0132C45.7637 9.96252 45.3248 10.0132 44.6495 10.2833ZM47.7222 12.6638C48.7521 13.0521 49.7819 14.5041 49.7988 15.5677C49.7988 16.1755 49.3767 17.1716 48.904 17.6781C48.4144 18.2015 47.0469 18.8937 46.5066 18.8937C45.9832 18.8937 44.5988 18.2184 44.1936 17.7625C42.8261 16.243 43.3495 13.5249 45.156 12.7145C45.7637 12.4443 47.0637 12.4106 47.7222 12.6638Z" fill="white"/>
<path d="M62.461 13.4741C60.9922 13.9299 60.0636 14.7572 59.287 16.3442L58.6623 17.6273L58.5779 34.8481C58.5104 48.4053 58.4429 52.1533 58.274 52.4403C57.9701 52.9806 57.413 53.0819 55.3195 53.0481C53.9351 53.0312 53.3948 52.9468 53.074 52.7442C52.1623 52.1533 52.1623 52.2208 52.1623 40.3858C52.1623 28.5676 52.1286 28.2637 51.2507 26.2377C50.4909 24.5494 49.4948 23.7897 47.6039 23.4351C45.3584 23.0299 43.1299 23.9754 41.9649 25.8156C41.1039 27.1663 41.1208 26.9806 41.0195 37.5494C40.9182 47.2066 40.9182 47.5442 40.5468 48.5741C39.8377 50.6169 39.0104 51.4611 36.7143 52.4234L35.5325 52.913L23.8831 52.9637C10.9844 53.0143 11.6429 52.9637 11.6429 54.1118C11.6429 54.7195 11.9636 55.1416 12.5545 55.2936C12.7571 55.3442 18.0584 55.3442 24.3052 55.3105C32.6623 55.2598 35.9208 55.1923 36.5455 55.0403C37.0182 54.9221 38.0143 54.5338 38.774 54.1624C40.3104 53.4364 41.3065 52.4403 42.1844 50.8027C43.2818 48.7598 43.2649 48.8273 43.3831 37.9715C43.4675 28.1793 43.4675 28.0949 43.839 27.4027C44.3961 26.3559 45.2403 25.9001 46.5909 25.9001C47.9922 25.9001 48.7688 26.339 49.326 27.4702L49.7143 28.2637L49.7987 40.6728C49.8831 52.7611 49.9 53.0988 50.2377 53.7572C50.474 54.2468 50.8117 54.5507 51.4026 54.8546C52.1961 55.2429 52.3649 55.2598 54.9481 55.226C56.4338 55.2092 58.0377 55.1079 58.5273 55.0066C59.5909 54.7871 60.3338 54.1624 60.587 53.2338C60.7221 52.778 60.7727 47.578 60.7727 36.3676C60.7727 27.4533 60.8571 19.6702 60.9416 19.0962C61.2623 16.7832 62.2584 15.6858 64.0143 15.6858C65.6688 15.6858 66.4286 16.1923 67.0364 17.7118C67.2221 18.2014 67.2896 21.3754 67.3571 35.6079L67.4416 52.913L67.8636 53.6559C68.539 54.8377 69.1299 55.0572 72.152 55.2092C76.052 55.4118 77.352 55.091 78.061 53.7572C78.3987 53.0988 78.4156 52.8118 78.5 43.6273C78.5844 34.3416 78.5844 34.1559 78.9558 33.4975C79.5636 32.3494 80.1883 31.8936 81.2351 31.7754C81.7753 31.7247 82.4169 31.7754 82.7714 31.8767C83.5649 32.1468 84.4935 33.2273 84.7299 34.1728C84.8481 34.6455 84.9156 37.0767 84.9156 40.8247C84.9156 47.4936 85.0338 48.6079 85.9961 50.5494C86.9078 52.3559 87.9039 53.3858 89.5247 54.1624C91.8883 55.2936 91.6688 55.2767 104.534 55.2767C115.93 55.2767 116.132 55.2767 116.386 54.939C116.74 54.4832 116.723 53.6221 116.352 53.2845C116.082 53.0481 114.832 53.0143 104.416 52.9637L92.7662 52.913L91.5844 52.4234C89.3221 51.478 88.4442 50.5832 87.752 48.5741C87.4143 47.578 87.3805 47.1053 87.2961 40.504L87.1948 33.4975L86.6377 32.3663C85.7429 30.5767 84.1558 29.5468 82.0117 29.3949C79.8338 29.2429 78.0273 30.2053 77.1494 31.9949C76.187 33.9871 76.1364 34.4092 76.1364 43.2559C76.1364 51.9676 76.1195 52.1702 75.2247 52.7442C74.9039 52.9468 74.3636 53.0312 72.9792 53.0481C70.6494 53.0819 70.2779 52.9806 69.9234 52.1871C69.6533 51.613 69.6364 50.1611 69.6364 34.8481C69.6364 19.3156 69.6195 18.0663 69.3325 17.2053C68.6909 15.1962 67.6442 14.1325 65.787 13.5754C64.8922 13.3053 63.187 13.2546 62.461 13.4741ZM24.9805 53.8754C24.9805 54.0273 25.0481 54.0105 25.1494 53.8416C25.2338 53.7066 25.3182 53.6728 25.3182 53.7741C25.3182 53.8754 25.4532 53.9598 25.6221 53.9598C26.3649 53.9598 26.3312 54.0611 25.5714 54.1793C24.6766 54.2975 23.8831 54.1286 24.0519 53.8416C24.2039 53.6053 24.9805 53.639 24.9805 53.8754Z" fill="white"/>
<path d="M80.0703 16.2597C78.5677 16.7493 77.2508 17.9143 76.6093 19.3156C76.3054 19.974 76.2209 20.4636 76.2209 21.5948C76.2209 22.861 76.2885 23.148 76.7274 24.0091C77.3521 25.2584 78.3482 26.2545 79.4287 26.761C83.3119 28.5506 87.5326 25.5454 87.2456 21.2065C87.0937 19.0454 85.9287 17.3065 84.0885 16.4792C83.1093 16.0402 81.0664 15.9389 80.0703 16.2597ZM83.5145 18.9948C84.5612 19.8558 84.9664 20.7337 84.882 21.9493C84.7638 23.5363 83.8015 24.5156 82.13 24.7519C80.2898 25.0052 78.4833 23.4013 78.5002 21.5104C78.5171 20.8519 79.1417 19.7883 79.9521 19.0961C80.7287 18.4376 80.8469 18.387 81.7755 18.387C82.6703 18.387 82.8391 18.4545 83.5145 18.9948Z" fill="white"/>
<path d="M0.5 71.9744C0.5 85.5147 0.516883 86.5614 0.787013 86.6627C0.938961 86.7303 2.35714 86.764 3.91039 86.7472C6.71299 86.7303 6.76364 86.7134 6.71299 86.3589C6.66234 86.0043 6.61169 86.0043 3.84286 86.055L1.00649 86.1225V72.0082V57.8939H65.5H129.993V71.9913V86.1056L125.57 86.0381C123.122 86.0043 120.961 86.0381 120.775 86.1056C120.573 86.1731 120.353 86.19 120.303 86.1394C120.168 85.9874 119.036 85.9874 119.121 86.1225C119.171 86.19 118.479 86.2238 117.601 86.19C116.166 86.1394 115.997 86.1731 115.93 86.4433C115.845 86.7472 116.149 86.7472 123.139 86.7134L130.416 86.6796L130.466 72.0251L130.5 57.3874H65.5H0.5V71.9744Z" fill="white"/>
<path d="M53.7152 61.1183C53.3269 61.3209 52.8542 61.6755 52.6853 61.9287C52.2126 62.604 51.8243 63.8872 51.8243 64.8157V65.6599H51.0645H50.3048V66.5884V67.517H51.0645H51.8243V72.1599V76.8027H52.9217H54.0191V72.1599V67.517H55.5386H57.0581V66.5884V65.6599H55.5386H54.0191V65.1872C54.0191 64.5962 54.2892 63.617 54.5762 63.2287C54.897 62.8066 55.8425 62.6378 56.7542 62.8742L57.5139 63.0599L57.7165 62.2157C57.936 61.2703 57.9022 61.2196 56.8892 60.9326C55.8931 60.6456 54.5087 60.73 53.7152 61.1183Z" fill="white"/>
<path d="M4.0292 60.9661C4.0292 60.9999 3.99544 61.5739 3.97855 62.2324L3.96167 63.4648H5.09284H6.24089V62.1986V60.9324H5.14349C4.5357 60.9324 4.04609 60.9493 4.0292 60.9661Z" fill="white"/>
<path d="M67.02 62.1986V63.4648H68.2018H69.3837V62.1986V60.9324H68.2018H67.02V62.1986Z" fill="white"/>
<path d="M106.864 64.2416V67.5338L106.02 66.7065C105.547 66.2338 104.889 65.7273 104.551 65.5753C103.774 65.2039 101.934 65.187 101.073 65.5584C100.144 65.9299 98.8275 67.2636 98.2873 68.3442C97.8821 69.2052 97.8314 69.4584 97.8314 71.1467C97.8314 72.8182 97.8821 73.0883 98.2873 73.8649C98.8782 74.9792 100.144 76.2623 101.107 76.6844C102.069 77.1065 103.622 77.1234 104.787 76.7351C105.446 76.5156 105.868 76.2117 106.442 75.587C106.999 74.9623 107.202 74.8273 107.218 75.0467C107.269 76.3974 107.708 76.8701 108.924 76.887H109.818L109.835 75.9078C109.852 75.1143 109.802 74.8948 109.548 74.7597C109.244 74.6078 109.228 74.2701 109.228 67.7701V60.9325H108.046H106.864V64.2416ZM104.5 67.4325C105.361 67.7364 106.172 68.3779 106.577 69.087C106.796 69.4922 106.864 70.0156 106.864 71.3325C106.864 72.8351 106.813 73.1052 106.476 73.6117C105.918 74.4558 104.838 74.9961 103.673 75.013C102.879 75.0299 102.559 74.9455 101.883 74.5234C98.8782 72.6662 99.9925 67.348 103.42 67.1961C103.622 67.1792 104.095 67.2974 104.5 67.4325Z" fill="white"/>
<path d="M22.7862 63.5499V65.4914H22.0265H21.2667V66.3356V67.1797H22.0265H22.7862V71.0966C22.7862 74.5577 22.8369 75.1148 23.107 75.7226C23.6641 76.9382 25.2343 77.2927 27.3784 76.7018C28.442 76.3979 28.4589 76.3642 28.1719 75.2161L27.9862 74.4733L27.2096 74.7096C26.2979 74.9966 25.4031 74.794 25.2343 74.2538C25.1667 74.0681 25.1161 72.4304 25.1161 70.5901V67.2642L26.3148 67.2135L27.5135 67.1629V66.3356V65.5083L26.3148 65.4577L25.1161 65.407L25.0823 63.5499L25.0654 61.6927L23.9343 61.6421L22.7862 61.5914V63.5499Z" fill="white"/>
<path d="M123.73 65.0348C122.683 65.727 122.278 67.1452 122.801 68.1751C122.937 68.4283 123.325 68.8842 123.663 69.1881C124.726 70.1166 126.229 69.8465 127.208 68.5465C127.461 68.2257 127.546 67.8543 127.546 67.0946C127.546 66.3517 127.461 65.9634 127.208 65.6257C126.465 64.6127 124.777 64.3257 123.73 65.0348ZM126.431 65.4063C127.951 66.6894 127.276 68.9855 125.317 69.1543C123.747 69.2894 122.666 68.04 123.072 66.5712C123.274 65.879 123.73 65.2881 124.253 65.1024C124.946 64.8491 125.925 65.0011 126.431 65.4063Z" fill="white"/>
<path d="M124.085 67.0951C124.085 68.1081 124.135 68.3613 124.338 68.3613C124.507 68.3613 124.591 68.1925 124.591 67.8548C124.591 67.5341 124.676 67.3483 124.828 67.3483C124.963 67.3483 125.216 67.5678 125.385 67.8548C125.537 68.125 125.773 68.3613 125.891 68.3613C126.178 68.3613 126.161 68.1925 125.824 67.8211C125.57 67.5341 125.57 67.5003 125.824 67.2133C126.465 66.5211 125.976 65.8289 124.861 65.8289H124.085V67.0951ZM125.655 66.5717C125.79 66.8925 125.638 67.0107 125.064 67.0107C124.709 67.0107 124.591 66.9263 124.591 66.673C124.591 66.4198 124.709 66.3354 125.081 66.3354C125.351 66.3354 125.604 66.4367 125.655 66.5717Z" fill="white"/>
<path d="M15.1889 65.2716C13.872 65.5079 12.8421 66.0988 11.7785 67.2638L11.3226 67.7703L11.3058 66.6222V65.491H10.2928H9.27979V71.1469V76.8027H10.3772H11.4746V73.4599C11.4746 70.6066 11.5252 70.0326 11.7954 69.4586C12.3356 68.2599 13.72 67.3482 14.9694 67.3482C15.8304 67.3482 16.3538 67.6521 16.7252 68.3612C17.0123 68.8846 17.046 69.3742 17.046 72.869V76.8027H18.2278H19.4097V72.869C19.4097 68.6144 19.2408 67.4495 18.5486 66.4196C18.3291 66.0988 17.9071 65.7274 17.6369 65.5923C17.0629 65.3053 15.8304 65.1534 15.1889 65.2716Z" fill="white"/>
<path d="M34.2666 65.2545C32.6796 65.5078 31.1095 66.487 30.2147 67.7701C27.6822 71.4507 30.1134 76.6675 34.5199 77.039C35.5666 77.1234 37.0186 76.8701 37.8121 76.4649C38.4705 76.1273 40.0069 74.6584 40.0069 74.3545C40.0069 74.2533 39.6186 74.0675 39.1627 73.9494L38.3186 73.7299L37.6601 74.3208C36.8328 75.0805 35.9887 75.3338 34.7562 75.2494C33.9627 75.1987 33.6419 75.0805 33.1354 74.6753C32.2913 73.9831 31.9367 73.4766 31.751 72.6156L31.5991 71.9065H36.2588H40.9017L40.8004 70.6234C40.6484 68.6481 40.0744 67.652 38.2004 66.1494C37.4575 65.5584 35.4147 65.0857 34.2666 65.2545ZM36.4783 67.2468C37.5588 67.7026 38.4874 68.9688 38.4874 69.9818V70.387H35.0264C31.2445 70.387 31.4302 70.4545 31.7341 69.3403C32.2406 67.5169 34.6212 66.4701 36.4783 67.2468Z" fill="white"/>
<path d="M76.1023 65.3893C74.4309 65.7439 72.6751 67.2634 72.0504 68.8673C71.5439 70.201 71.5439 72.3452 72.0673 73.5101C72.4894 74.4725 73.9075 76.0088 74.8023 76.4647C76.1023 77.14 78.5842 77.2075 79.9348 76.6166C80.6439 76.2958 81.9101 75.2322 82.2478 74.6413L82.5348 74.1517L81.6062 73.9491L80.6608 73.7296L80.1712 74.253C78.753 75.8062 75.9504 75.5867 74.7348 73.8309C74.4647 73.4595 74.2114 72.8517 74.1608 72.4803L74.0764 71.8218H78.6179H83.1426L83.1932 71.0958C83.2777 69.9478 82.9231 68.5971 82.3322 67.8205C80.7283 65.7101 78.5166 64.8491 76.1023 65.3893ZM79.4452 67.5504C80.2556 68.1244 80.7452 68.8504 80.9478 69.8465L81.066 70.3867L77.5374 70.353L74.0257 70.3023L74.0764 69.7958C74.1101 69.5088 74.3296 68.9517 74.5829 68.5465C75.2075 67.5166 76.2036 67.0101 77.5712 67.0101C78.4829 67.0101 78.7361 67.0777 79.4452 67.5504Z" fill="white"/>
<path d="M91.0441 65.3391C89.9636 65.5417 89.1869 65.9638 88.2752 66.8586L87.448 67.669V66.5716V65.491H86.435H85.422V71.1469V76.8027H86.5194H87.6168V73.4599C87.6168 70.5897 87.6675 70.0495 87.9376 69.4586C88.7142 67.7871 90.7739 66.8755 92.1584 67.6014C93.0532 68.0573 93.1882 68.7664 93.1882 73.004V76.8027H94.3869H95.5856L95.5012 72.4469C95.4337 67.6859 95.3493 67.2638 94.4207 66.1833C93.9817 65.6599 93.6778 65.4742 93.0025 65.3391C92.0571 65.1365 92.0402 65.1365 91.0441 65.3391Z" fill="white"/>
<path d="M115.474 65.2717C114.124 65.525 113.685 65.7276 112.925 66.5042C112.03 67.4159 111.827 68.0405 111.979 69.3405C112.131 70.6743 112.604 70.9613 116.875 72.16C118.699 72.6834 119.273 73.747 118.277 74.7431C117.855 75.1652 117.737 75.199 116.251 75.199C114.765 75.199 114.596 75.1652 113.482 74.5912L112.283 73.9665L111.861 74.625C111.608 74.9795 111.422 75.3003 111.422 75.334C111.422 75.3509 111.692 75.5198 112.013 75.6886C112.334 75.8743 112.604 76.0769 112.604 76.1444C112.604 76.2289 113.111 76.4483 113.752 76.6509C115.17 77.0899 117.551 77.1405 118.665 76.7353C120.185 76.1782 121.164 74.4899 120.877 72.9198C120.64 71.6535 119.779 71.1133 116.724 70.3029C114.833 69.7964 114.343 69.5431 114.124 68.9353C113.431 67.1457 116.116 66.2678 118.53 67.4834L119.611 68.0237L120.083 67.4834C120.337 67.1795 120.539 66.8925 120.539 66.8418C120.539 66.6561 118.969 65.7107 118.344 65.525C117.618 65.3055 116.048 65.1535 115.474 65.2717Z" fill="white"/>
<path d="M47.5201 65.643C47.1486 65.8118 46.4395 66.3859 45.9499 66.9092L45.072 67.8884V66.6897V65.491H43.9746H42.8772V71.1469V76.8027H44.0421H45.224L45.2746 73.0716L45.3252 69.3404L46.1356 68.6144C46.7603 68.0404 47.1486 67.8378 47.9084 67.6859C48.4317 67.5677 48.972 67.4495 49.0902 67.4157C49.2252 67.382 49.2928 67.0105 49.2928 66.3352V65.3222H48.7525C48.4486 65.3222 47.8915 65.4742 47.5201 65.643Z" fill="white"/>
<path d="M63.525 65.5755C62.9678 65.8118 61.2795 67.3988 61.2795 67.6859C61.2795 67.7872 61.1951 67.8547 61.0938 67.8547C60.9925 67.8547 60.925 67.5001 60.9419 66.9599C60.9925 65.3897 61.06 65.491 59.9289 65.491H58.9159V71.1469V76.8027H60.0133H61.1107V73.443C61.1107 70.8599 61.1613 69.9482 61.3639 69.4923C61.786 68.4794 63.3224 67.5339 64.6224 67.517H65.1626V66.4196V65.3222H64.6224C64.3185 65.3391 63.8289 65.4404 63.525 65.5755Z" fill="white"/>
<path d="M3.96167 71.1469V76.8027H5.10972H6.24089V71.1469V65.491H5.09284H3.96167V71.1469Z" fill="white"/>
<path d="M67.02 71.1469V76.8027H68.2018H69.3837V71.1469V65.491H68.2018H67.02V71.1469Z" fill="white"/>
<path d="M54.779 79.8582C54.7115 79.9595 54.6946 80.0777 54.7453 80.1284C54.8635 80.2466 55.2011 80.0271 55.2011 79.8245C55.2011 79.6219 54.9141 79.6219 54.779 79.8582Z" fill="white"/>
<path d="M50.8115 80.3483C50.8115 80.821 50.7777 80.8379 50.3725 80.669C49.4777 80.3314 48.6842 81.3275 49.1907 82.121C49.427 82.4924 49.579 82.5431 50.305 82.5093L51.1491 82.4755V81.1587C51.1491 80.3989 51.0816 79.8418 50.9803 79.8418C50.8959 79.8418 50.8115 80.0613 50.8115 80.3483ZM50.6089 81.0574C51.1322 81.5807 50.4231 82.5431 49.7647 82.1885C49.4102 82.0028 49.3426 81.108 49.6803 80.9729C50.0517 80.821 50.4063 80.8548 50.6089 81.0574Z" fill="white"/>
<path d="M99.4353 81.1924C99.4353 82.5937 99.7054 83.0833 99.8067 81.8508C99.8574 81.0911 100.212 80.7196 100.685 80.9054C100.887 80.9898 100.955 81.2261 100.955 81.8002C100.955 82.7119 101.36 82.7794 101.394 81.8508C101.428 80.8209 100.972 80.382 100.195 80.6859C99.8067 80.8378 99.773 80.8041 99.773 80.3482C99.773 80.0612 99.7054 79.8417 99.6041 79.8417C99.5028 79.8417 99.4353 80.3989 99.4353 81.1924Z" fill="white"/>
<path d="M17.7547 80.213C17.265 80.7026 17.6027 81.2429 18.5144 81.4286C19.0884 81.5637 19.3754 81.9858 18.9871 82.1377C18.8521 82.2052 18.4637 82.2052 18.143 82.1715C17.5352 82.1039 17.3495 82.2559 17.8222 82.4416C18.2611 82.6104 18.9871 82.5598 19.3079 82.3234C19.8144 81.952 19.578 81.4793 18.7339 81.1754C18.3287 81.0234 17.9573 80.8039 17.9235 80.6858C17.8053 80.365 18.2611 80.1624 18.8689 80.2637C19.1897 80.3312 19.4092 80.2974 19.4092 80.1793C19.4092 79.9429 18.0079 79.9598 17.7547 80.213Z" fill="white"/>
<path d="M73.4351 80.1962C73.4351 80.3144 73.6039 80.3482 73.8571 80.3144C74.2792 80.23 74.2792 80.2469 74.2792 81.378C74.2792 82.3066 74.3299 82.543 74.5325 82.543C74.7351 82.543 74.7857 82.3066 74.7857 81.4456C74.7857 80.3819 74.8026 80.3482 75.2078 80.3482C75.4441 80.3482 75.6299 80.2637 75.6299 80.1793C75.6299 80.078 75.1571 80.0105 74.5325 80.0105C73.8403 80.0105 73.4351 80.078 73.4351 80.1962Z" fill="white"/>
<path d="M94.9273 80.5172C94.7922 80.7198 94.7753 80.8718 94.8766 80.9393C94.9779 80.99 95.0455 81.3276 95.0455 81.699C95.0455 82.1211 95.1299 82.3744 95.3156 82.4419C95.7208 82.5939 96.0585 82.5601 96.0585 82.3744C96.0585 82.2731 95.9234 82.2055 95.7714 82.2393C95.5351 82.2731 95.4507 82.1549 95.4169 81.5809C95.3663 80.9562 95.4169 80.8718 95.7546 80.8042L96.1429 80.7367L95.7714 80.7029C95.552 80.7029 95.3831 80.5679 95.3831 80.4328C95.3831 80.0783 95.1637 80.112 94.9273 80.5172Z" fill="white"/>
<path d="M22.9548 81.3106C22.9548 82.3404 23.1405 82.543 24.2042 82.5093L24.9977 82.4924L24.947 81.5976C24.8795 80.4664 24.5925 80.3313 24.4743 81.3612C24.3899 82.0703 24.3561 82.121 23.8834 82.121C23.4107 82.121 23.3769 82.0703 23.3263 81.4456C23.2418 80.4158 22.9548 80.2976 22.9548 81.3106Z" fill="white"/>
<path d="M28.8639 80.7364C28.3236 81.0065 28.1717 81.9858 28.6275 82.3234C29.0327 82.6273 29.7924 82.5935 30.0457 82.2896C30.2821 82.0026 30.1639 81.9689 29.7418 82.1884C29.573 82.2728 29.2859 82.2728 29.0665 82.1884C28.7626 82.0702 28.6782 81.9351 28.7288 81.5974C28.7963 80.9896 29.2522 80.7026 29.708 80.9728C29.9106 81.1078 30.0626 81.1247 30.1301 81.0234C30.1808 80.9221 30.0288 80.7702 29.7924 80.6858C29.2691 80.4832 29.3704 80.4832 28.8639 80.7364Z" fill="white"/>
<path d="M34.0979 80.6349C33.4057 80.8882 33.2199 81.7999 33.7433 82.2726C34.1316 82.6103 35.1277 82.5765 35.2459 82.2219C35.3134 82.0362 35.2459 82.0193 35.0096 82.1206C34.2667 82.4245 33.7096 82.1206 33.794 81.4622C33.8615 80.9726 34.368 80.7193 34.7732 80.9726C34.9589 81.1077 35.1277 81.1245 35.1953 81.0232C35.2459 80.9388 35.1446 80.7869 34.9589 80.7025C34.6044 80.4999 34.4862 80.4999 34.0979 80.6349Z" fill="white"/>
<path d="M38.9939 80.7361C38.4706 81.0062 38.3355 81.766 38.7576 82.2218C39.0615 82.5595 40.0745 82.6608 40.2602 82.3738C40.3108 82.2893 40.1082 82.2218 39.7537 82.2387C39.3823 82.2556 39.0784 82.1712 38.9771 82.0192C38.8589 81.8335 38.9939 81.766 39.6693 81.7322C40.5472 81.6815 40.6991 81.4958 40.3108 80.9893C39.99 80.601 39.4667 80.4997 38.9939 80.7361ZM39.99 81.0062C40.3277 81.2257 40.0576 81.5296 39.5173 81.5296C38.9433 81.5296 38.7745 81.3776 39.0108 81.0738C39.2303 80.8205 39.6524 80.7867 39.99 81.0062Z" fill="white"/>
<path d="M44.3967 80.7196C43.2487 81.1417 43.6539 82.543 44.937 82.543C45.1903 82.543 45.4266 82.4754 45.4941 82.391C45.5448 82.3066 45.3591 82.2391 45.1058 82.2391C44.8357 82.256 44.5318 82.2053 44.4136 82.1378C44.0084 81.8845 44.2617 81.6988 44.9877 81.6988C45.6123 81.6988 45.7474 81.6482 45.7474 81.378C45.7474 80.8209 45.0552 80.4663 44.3967 80.7196ZM45.1396 80.956C45.6461 81.1586 45.4435 81.53 44.8188 81.53C44.4474 81.53 44.2279 81.4456 44.2279 81.3105C44.2279 80.8715 44.5825 80.7365 45.1396 80.956Z" fill="white"/>
<path d="M54.8128 80.6185C54.7452 80.6861 54.6946 81.1588 54.6946 81.6484C54.6946 82.8302 55.0998 82.7965 55.1673 81.6146C55.218 80.838 55.0491 80.3822 54.8128 80.6185Z" fill="white"/>
<path d="M59.5071 80.6689C59.3213 80.7534 59.0681 80.7702 58.9668 80.7365C58.798 80.6689 58.7473 80.9053 58.7473 81.5975C58.7473 82.1209 58.8317 82.543 58.9161 82.543C59.0174 82.543 59.085 82.256 59.085 81.8845C59.085 81.1417 59.4058 80.7702 59.9291 80.9391C60.2499 81.0404 60.385 81.5637 60.2837 82.3235C60.2668 82.4417 60.3512 82.543 60.4863 82.543C60.8239 82.543 60.672 81.0066 60.3174 80.7196C59.9967 80.4832 59.9798 80.4832 59.5071 80.6689Z" fill="white"/>
<path d="M64.656 80.7367C64.3859 80.8717 64.2171 81.125 64.1833 81.412C64.0989 82.1042 64.4366 82.4081 65.1963 82.3406C65.8885 82.273 66.0236 82.4925 65.5677 82.9484C65.2638 83.2691 65.095 83.286 64.6223 83.0328C64.3521 82.8808 64.3015 82.8977 64.3521 83.0834C64.4534 83.3704 65.6184 83.4717 65.9392 83.2016C66.108 83.0665 66.1755 82.6276 66.1755 81.7497C66.1755 80.7367 66.1249 80.5172 65.956 80.6523C65.821 80.7704 65.6521 80.7704 65.5002 80.686C65.1794 80.4834 65.1625 80.4834 64.656 80.7367ZM65.6353 81.0574C66.1755 81.5977 65.6015 82.3912 64.9093 82.0704C64.2508 81.7665 64.4534 80.8548 65.1625 80.8548C65.3145 80.8548 65.5171 80.9393 65.6353 81.0574Z" fill="white"/>
<path d="M79.0906 80.7196C78.0608 81.3105 78.4828 82.543 79.7153 82.543C80.6945 82.543 80.9984 81.1248 80.1036 80.7196C79.5802 80.4832 79.5127 80.4832 79.0906 80.7196ZM79.9854 81.0066C80.1205 81.091 80.188 81.3612 80.1543 81.6313C80.1205 81.9858 80.0023 82.1378 79.7153 82.1715C78.9724 82.2897 78.5841 81.6313 79.1075 81.1248C79.3945 80.8209 79.6478 80.7871 79.9854 81.0066Z" fill="white"/>
<path d="M84.4096 80.7365C83.8356 81.0235 83.7343 81.9352 84.2576 82.2053C84.4602 82.3235 84.8317 82.3742 85.1018 82.3404C85.4901 82.2729 85.5914 82.3235 85.5914 82.5599C85.5914 83.0157 85.0343 83.2521 84.494 83.0495C84.1563 82.9144 84.055 82.9313 84.1057 83.0833C84.1563 83.2183 84.4771 83.3027 84.933 83.3027C85.5407 83.3027 85.6927 83.2352 85.8784 82.8807C86.2667 82.104 86.081 80.0274 85.6758 80.6859C85.6083 80.804 85.4732 80.804 85.2537 80.6859C84.8654 80.4833 84.9161 80.4833 84.4096 80.7365ZM85.4901 81.1248C85.8446 81.4625 85.8278 81.5807 85.4394 81.9352C85.0343 82.2897 84.4771 82.1716 84.3252 81.682C84.1057 80.9897 84.9498 80.5846 85.4901 81.1248Z" fill="white"/>
<path d="M90.0651 80.719C89.3898 81.0905 89.2716 81.7995 89.7781 82.2554C90.1158 82.5762 91.0781 82.6437 91.2469 82.3736C91.3145 82.2723 91.1456 82.2047 90.8417 82.2047C90.5716 82.2047 90.234 82.1541 90.082 82.1034C89.5417 81.9008 89.8288 81.6982 90.656 81.6982C91.6015 81.6982 91.7534 81.445 91.1625 80.8541C90.7742 80.4658 90.5547 80.4489 90.0651 80.719ZM90.9768 81.0736C91.2301 81.3944 91.0443 81.5294 90.369 81.5294C89.7781 81.5294 89.6768 81.3944 90.0145 81.0567C90.2846 80.7866 90.7404 80.8034 90.9768 81.0736Z" fill="white"/>
<path d="M105.344 80.7365C104.821 81.0067 104.685 81.7664 105.108 82.2222C105.411 82.5599 106.104 82.6443 106.526 82.3742C106.711 82.256 106.61 82.2222 106.171 82.2391C105.834 82.256 105.479 82.2054 105.378 82.1378C104.956 81.8846 105.209 81.6989 106.019 81.6989C107.066 81.6989 107.184 81.2093 106.239 80.7028C105.8 80.4833 105.867 80.4833 105.344 80.7365ZM106.34 81.0742C106.593 81.395 106.408 81.53 105.732 81.53C105.141 81.53 105.04 81.395 105.378 81.0573C105.648 80.7872 106.104 80.8041 106.34 81.0742Z" fill="white"/>
<path d="M110.915 80.6858C110.797 80.7534 110.595 80.7871 110.459 80.7365C110.291 80.6689 110.24 80.8715 110.24 81.5975C110.24 82.1209 110.324 82.543 110.409 82.543C110.51 82.543 110.578 82.2897 110.578 81.9858C110.578 81.378 110.696 81.1586 111.152 80.9053C111.321 80.804 111.388 80.6858 111.304 80.6352C111.219 80.5845 111.05 80.6014 110.915 80.6858Z" fill="white"/>
</svg>
