<svg width="43" height="43" viewBox="0 0 43 43" fill="none" xmlns="http://www.w3.org/2000/svg">
<mask id="mask0_609_930" style="mask-type:luminance" maskUnits="userSpaceOnUse" x="0" y="0" width="43" height="43">
<path d="M0.0571289 0.765625H42.0771V42.7856H0.0571289V0.765625Z" fill="white"/>
</mask>
<g mask="url(#mask0_609_930)">
<path d="M38.5755 6.36829H35.0738V3.56696C35.0738 2.02185 33.8176 0.765625 32.2725 0.765625C30.7274 0.765625 29.4711 2.02185 29.4711 3.56696V6.36829H12.6631V3.56696C12.6631 2.02185 11.4069 0.765625 9.8618 0.765625C8.31669 0.765625 7.06046 2.02185 7.06046 3.56696V6.36829H3.5588C1.6281 6.36829 0.0571289 7.93927 0.0571289 9.86996V39.284C0.0571289 41.2147 1.6281 42.7856 3.5588 42.7856H38.5755C40.5062 42.7856 42.0771 41.2147 42.0771 39.284V9.86996C42.0771 7.93927 40.5062 6.36829 38.5755 6.36829ZM30.8718 3.56696C30.8718 2.7946 31.5001 2.16629 32.2725 2.16629C33.0448 2.16629 33.6731 2.7946 33.6731 3.56696V9.16963C33.6731 9.94198 33.0448 10.5703 32.2725 10.5703C31.5001 10.5703 30.8718 9.94198 30.8718 9.16963V3.56696ZM8.46113 3.56696C8.46113 2.7946 9.08944 2.16629 9.8618 2.16629C10.6342 2.16629 11.2625 2.7946 11.2625 3.56696V9.16963C11.2625 9.94198 10.6342 10.5703 9.8618 10.5703C9.08944 10.5703 8.46113 9.94198 8.46113 9.16963V3.56696ZM3.5588 7.76896H7.06046V9.16963C7.06046 10.7147 8.31669 11.971 9.8618 11.971C11.4069 11.971 12.6631 10.7147 12.6631 9.16963V7.76896H29.4711V9.16963C29.4711 10.7147 30.7274 11.971 32.2725 11.971C33.8176 11.971 35.0738 10.7147 35.0738 9.16963V7.76896H38.5755C39.7338 7.76896 40.6765 8.71162 40.6765 9.86996V14.7723H1.4578V9.86996C1.4578 8.71162 2.40046 7.76896 3.5588 7.76896ZM38.5755 41.385H3.5588C2.40046 41.385 1.4578 40.4423 1.4578 39.284V16.173H40.6765V39.284C40.6765 40.4423 39.7338 41.385 38.5755 41.385Z" fill="#092C4C"/>
</g>
</svg>
