<svg width="43" height="48" viewBox="0 0 43 48" fill="none" xmlns="http://www.w3.org/2000/svg">
<mask id="mask0_609_907" style="mask-type:luminance" maskUnits="userSpaceOnUse" x="0" y="16" width="43" height="32">
<path d="M0.425293 16.7925H42.4453V47.3915H0.425293V16.7925Z" fill="white"/>
</mask>
<g mask="url(#mask0_609_907)">
<path d="M37.6314 47.3919H33.2152C32.9523 47.3919 32.7152 47.2367 32.6115 46.9961L31.284 43.9078C29.4811 44.2593 23.6047 45.1995 19.1081 43.58L16.8106 47.0949C16.6894 47.281 16.4832 47.3919 16.2613 47.3919H12.5018C12.1435 47.3919 11.8537 47.1083 11.8452 46.7501L11.6998 40.6675C10.2601 39.5605 3.30586 34.2011 1.83217 32.727C0.0230487 30.9188 0.55617 26.868 0.579874 26.6976C0.624152 26.3716 0.902341 26.1292 1.22973 26.1292H1.23152L3.84167 26.1328C3.86716 26.1328 3.89444 26.1345 3.91993 26.1381C3.91144 26.1363 5.33056 26.1667 7.15579 23.2954C7.78372 22.311 8.00377 21.4393 7.81235 20.7072C7.58917 19.8507 6.86597 19.4397 6.85881 19.4361C6.59628 19.2943 6.46165 18.9924 6.53143 18.7039C6.55021 18.6275 7.01445 16.8291 9.5441 16.8291C11.8125 16.8291 14.8811 20.9939 15.4733 21.828C15.683 22.1249 15.6146 22.5346 15.3181 22.7444C15.0211 22.9559 14.6137 22.8862 14.4021 22.5892C13.0921 20.7429 10.7177 18.1426 9.5441 18.1426C8.6894 18.1426 8.24573 18.4293 8.02077 18.6717C8.39914 19.0076 8.87367 19.5676 9.08522 20.3762C9.37146 21.4764 9.09551 22.6965 8.26452 24.0016C6.10162 27.402 4.19634 27.4669 3.81438 27.4468L1.82546 27.445C1.74317 28.6852 1.81339 30.8503 2.76156 31.799C4.31217 33.3482 12.6637 39.7497 12.7491 39.8146C12.9061 39.9358 13.0013 40.1218 13.0067 40.3213L13.1431 46.0778H15.9049L18.2999 42.4149C18.4739 42.1506 18.8116 42.0481 19.1014 42.1675C24.0037 44.2048 31.4531 42.5325 31.5282 42.5137C31.8332 42.4404 32.1526 42.6023 32.2787 42.8943L33.6468 46.0778H36.9748V39.7278C36.9748 39.5502 37.0464 39.3794 37.1743 39.2568C37.4592 38.9787 44.0999 32.379 39.4991 24.3634C33.1965 13.3843 17.5016 20.1579 17.3428 20.2277C17.01 20.3744 16.6227 20.2241 16.476 19.8918C16.3293 19.5591 16.4796 19.1718 16.8124 19.0251C16.981 18.9517 33.756 11.7192 40.6387 23.71C45.2785 31.794 39.4669 38.7175 38.2879 39.9921V46.7349C38.2879 47.0985 37.9945 47.3919 37.6314 47.3919Z" fill="#092C4C"/>
</g>
<mask id="mask1_609_907" style="mask-type:luminance" maskUnits="userSpaceOnUse" x="19" y="0" width="16" height="16">
<path d="M19.3157 0.160645H34.8871V15.6462H19.3157V0.160645Z" fill="white"/>
</mask>
<g mask="url(#mask1_609_907)">
<path d="M27.0873 1.46779C23.5719 1.46779 20.7095 4.33063 20.7095 7.84736C20.7095 11.3672 23.5719 14.2283 27.0873 14.2283C30.6045 14.2283 33.4669 11.3672 33.4669 7.84736C33.4669 4.33063 30.6045 1.46779 27.0873 1.46779ZM27.0873 15.5423C22.8469 15.5423 19.3942 12.0904 19.3942 7.84736C19.3942 3.60564 22.8469 0.15332 27.0873 0.15332C31.3295 0.15332 34.7804 3.60564 34.7804 7.84736C34.7804 12.0904 31.3295 15.5423 27.0873 15.5423Z" fill="#092C4C"/>
</g>
<path d="M27.6594 11.2271H26.518C25.4061 11.2271 24.5 10.321 24.5 9.2087C24.5 8.84509 24.7934 8.55169 25.157 8.55169C25.5202 8.55169 25.8136 8.84509 25.8136 9.2087C25.8136 9.59602 26.1307 9.91357 26.518 9.91357H27.6594C28.0462 9.91357 28.362 9.59602 28.362 9.2087C28.362 8.82138 28.0462 8.50563 27.6594 8.50563H26.518C25.4061 8.50563 24.5 7.59994 24.5 6.48719C24.5 5.37309 25.4061 4.46875 26.518 4.46875H27.6594C28.7712 4.46875 29.6756 5.37309 29.6756 6.48719C29.6756 6.8508 29.3822 7.1442 29.0186 7.1442C28.6554 7.1442 28.362 6.8508 28.362 6.48719C28.362 6.09853 28.0462 5.78456 27.6594 5.78456H26.518C26.1307 5.78456 25.8136 6.09853 25.8136 6.48719C25.8136 6.87451 26.1307 7.19026 26.518 7.19026H27.6594C28.7712 7.19026 29.6756 8.09639 29.6756 9.2087C29.6756 10.321 28.7712 11.2271 27.6594 11.2271Z" fill="#092C4C"/>
<path d="M27.0878 5.78445C26.7247 5.78445 26.4313 5.48927 26.4313 5.12565V3.86844C26.4313 3.50482 26.7247 3.21143 27.0878 3.21143C27.451 3.21143 27.7444 3.50482 27.7444 3.86844V5.12565C27.7444 5.48927 27.451 5.78445 27.0878 5.78445Z" fill="#092C4C"/>
<path d="M27.0878 12.4844C26.7247 12.4844 26.4313 12.191 26.4313 11.8278V10.5701C26.4313 10.207 26.7247 9.91357 27.0878 9.91357C27.451 9.91357 27.7444 10.207 27.7444 10.5701V11.8278C27.7444 12.191 27.451 12.4844 27.0878 12.4844Z" fill="#092C4C"/>
<path d="M33.0545 22.9847C32.9744 22.9847 32.8926 22.969 32.8125 22.9386C27.2841 20.7462 22.3509 22.9046 22.3031 22.9265C21.9721 23.0732 21.583 22.9265 21.4349 22.5973C21.2865 22.2664 21.4314 21.8773 21.7623 21.7288C21.9824 21.6282 27.2326 19.3127 33.2969 21.7154C33.6346 21.85 33.7983 22.2306 33.6654 22.5683C33.563 22.8259 33.3157 22.9847 33.0545 22.9847Z" fill="#092C4C"/>
</svg>
