<svg width="43" height="51" viewBox="0 0 43 51" fill="none" xmlns="http://www.w3.org/2000/svg">
<path d="M21.1232 6.7334C12.9701 6.7334 6.33691 13.2798 6.33691 21.3272C6.33739 21.7621 6.3572 22.1961 6.39682 22.6296C6.43597 23.0631 6.49494 23.4933 6.57324 23.9216C6.65155 24.3494 6.74872 24.773 6.86523 25.1924C6.98174 25.6117 7.11712 26.0245 7.27043 26.4316C7.42421 26.8387 7.59591 27.2382 7.78554 27.6297C7.97564 28.0212 8.18225 28.4033 8.40678 28.776C8.63084 29.1491 8.87142 29.5109 9.12803 29.8623C9.38464 30.2133 9.65682 30.5524 9.94409 30.8789C10.421 31.4223 10.9545 31.9171 11.404 32.4841C12.5409 33.9351 13.4744 35.5073 14.2036 37.2003C14.7706 38.5088 15.1645 39.8683 15.3848 41.2777C15.4046 41.4178 15.4367 41.5551 15.4815 41.6895C15.5258 41.824 15.5825 41.9537 15.6499 42.0778C15.7178 42.2023 15.7961 42.3197 15.8848 42.4301C15.9735 42.5405 16.0716 42.6419 16.1787 42.7349C16.2858 42.8273 16.3999 42.9099 16.5216 42.9825C16.6438 43.0547 16.7707 43.1155 16.9037 43.1651C17.0363 43.2146 17.1721 43.2518 17.3117 43.2768C17.4509 43.3023 17.5915 43.3146 17.7335 43.3146H24.5129C24.6549 43.3146 24.7954 43.3023 24.9346 43.2768C25.0742 43.2518 25.2101 43.2146 25.3426 43.1651C25.4756 43.1155 25.6025 43.0547 25.7247 42.9825C25.8464 42.9099 25.9606 42.8273 26.0676 42.7349C26.1747 42.6419 26.2728 42.5405 26.3615 42.4301C26.4502 42.3197 26.5285 42.2023 26.5964 42.0778C26.6639 41.9537 26.7205 41.824 26.7648 41.6895C26.8096 41.5551 26.8417 41.4178 26.8615 41.2777C27.078 39.8909 27.463 38.5522 28.0158 37.2625C28.6116 35.8328 29.3441 34.478 30.2145 33.1973C30.6932 32.5624 31.2211 31.9718 31.798 31.4251C32.1239 31.0916 32.4329 30.7435 32.7254 30.3803C33.0174 30.0166 33.2914 29.6402 33.5466 29.25C33.8023 28.8604 34.0386 28.459 34.2556 28.0462C34.4721 27.6335 34.6684 27.2113 34.8443 26.7792C35.0202 26.3476 35.1745 25.9084 35.308 25.4617C35.441 25.0146 35.5523 24.5627 35.6415 24.1051C35.7311 23.6475 35.7981 23.1867 35.8429 22.7225C35.8877 22.2583 35.9099 21.7932 35.9094 21.3272C35.9094 13.2798 29.2762 6.7334 21.1232 6.7334ZM30.6814 30.3402C30.0432 30.9473 29.4611 31.6044 28.9352 32.311C28.0045 33.6789 27.2205 35.1266 26.5832 36.6536C25.979 38.064 25.5591 39.5272 25.3233 41.0433C25.3162 41.0919 25.3049 41.1395 25.2893 41.1862C25.2742 41.2329 25.2544 41.2777 25.2313 41.3207C25.2077 41.3641 25.1808 41.4046 25.1502 41.4433C25.12 41.4815 25.086 41.5169 25.0492 41.5494C25.0124 41.582 24.9733 41.6108 24.9313 41.6362C24.8893 41.6622 24.8454 41.6834 24.7997 41.7013C24.7539 41.7193 24.7072 41.7329 24.6586 41.7424C24.6105 41.7518 24.5619 41.757 24.5129 41.7579H23.4577V39.423C23.4577 39.372 23.4529 39.3211 23.443 39.2711C23.4327 39.2211 23.418 39.1725 23.3987 39.1253C23.3789 39.0777 23.3548 39.0329 23.3265 38.9904C23.2982 38.948 23.2662 38.9088 23.2298 38.8725C23.194 38.8366 23.1544 38.8041 23.1119 38.7758C23.0694 38.7475 23.0246 38.7234 22.9775 38.7041C22.9303 38.6843 22.8817 38.6696 22.8312 38.6597C22.7812 38.6498 22.7308 38.6446 22.6798 38.6446C22.6284 38.6446 22.5779 38.6498 22.5279 38.6597C22.4775 38.6696 22.4289 38.6843 22.3817 38.7041C22.3345 38.7234 22.2897 38.7475 22.2473 38.7758C22.2048 38.8041 22.1656 38.8366 22.1293 38.8725C22.093 38.9088 22.0609 38.948 22.0326 38.9904C22.0043 39.0329 21.9803 39.0777 21.9605 39.1253C21.9411 39.1725 21.9265 39.2211 21.9161 39.2711C21.9062 39.3211 21.9015 39.372 21.9015 39.423V41.7579H20.3255V26.8651C20.3255 26.3627 20.3401 26.1264 20.4802 25.9773C20.6977 25.7641 20.9453 25.5952 21.2232 25.4707C21.501 25.3462 21.7921 25.274 22.0958 25.2537C22.1109 25.2518 22.1256 25.2495 22.1402 25.2466L22.4737 25.1877C22.7893 25.3716 23.1246 25.5037 23.4808 25.5844C23.8369 25.665 24.1964 25.6905 24.5605 25.6603C24.9138 25.6603 25.2587 25.6061 25.595 25.4971C25.9313 25.3886 26.2426 25.2306 26.5294 25.0235C26.9078 25.1179 27.2922 25.1631 27.6823 25.1594C28.0724 25.1561 28.4554 25.1037 28.8323 25.0028C29.0606 24.9391 29.2828 24.8598 29.4998 24.7641C29.7163 24.6683 29.9248 24.5575 30.1253 24.431C30.3258 24.3051 30.5163 24.165 30.6965 24.0112C30.8767 23.8575 31.0447 23.6914 31.2008 23.5131C31.3565 23.3348 31.4989 23.1466 31.6277 22.9475C31.756 22.7485 31.8697 22.5414 31.9678 22.3258C32.0664 22.1102 32.1489 21.889 32.215 21.6616C32.281 21.4338 32.3306 21.2031 32.3631 20.9682C32.3956 20.7338 32.4112 20.4979 32.4098 20.2611C32.4079 20.0243 32.389 19.7885 32.3532 19.5545C32.3173 19.3205 32.2645 19.0899 32.1952 18.8634C32.1258 18.637 32.04 18.4167 31.9386 18.2026C31.8371 17.9889 31.7206 17.7832 31.5895 17.5861C31.4579 17.3889 31.3131 17.2026 31.1546 17.0261C30.9961 16.8502 30.8253 16.6865 30.6432 16.5356C30.4607 16.3841 30.2687 16.2469 30.0663 16.1237C30.0484 16.0261 30.0267 15.9294 30.0008 15.8336C29.9744 15.7379 29.9446 15.6435 29.9102 15.5501C29.8758 15.4572 29.838 15.3657 29.7956 15.2756C29.7536 15.186 29.7074 15.0982 29.6578 15.0124C29.6083 14.9261 29.5545 14.8426 29.4979 14.7614C29.4408 14.6803 29.3805 14.6015 29.3168 14.5256C29.2526 14.4496 29.1857 14.3765 29.1158 14.3062C29.0456 14.236 28.9724 14.169 28.8965 14.1048C28.8205 14.0411 28.7422 13.9808 28.6611 13.9232C28.58 13.8661 28.4965 13.8128 28.4106 13.7628C28.3248 13.7133 28.237 13.6671 28.1474 13.6246C28.0573 13.5826 27.9658 13.544 27.8729 13.5095C27.78 13.4756 27.6856 13.4449 27.5899 13.419C27.4941 13.3925 27.3974 13.3708 27.2998 13.3529C27.2021 13.335 27.104 13.3213 27.0049 13.3124C26.9063 13.3029 26.8073 13.2977 26.7082 13.2973C26.5983 13.2973 26.4894 13.3024 26.3809 13.3128C26.2403 13.0699 26.0724 12.8477 25.8771 12.6463C25.6813 12.4449 25.4643 12.2703 25.2261 12.1222C24.9874 11.9741 24.7346 11.8576 24.4671 11.7722C24.1997 11.6868 23.9261 11.6349 23.6459 11.617C23.594 11.6062 23.5416 11.601 23.4888 11.601C23.4732 11.601 23.4586 11.6029 23.4374 11.6029C23.4213 11.6029 23.4058 11.6057 23.3897 11.6062C23.302 11.609 23.2143 11.6137 23.1284 11.6236C22.6308 11.668 22.1661 11.8156 21.734 12.067C21.6496 12.0043 21.5623 11.9453 21.4722 11.8911C21.3821 11.8364 21.2897 11.7864 21.1949 11.7401C21.1001 11.6944 21.0034 11.6529 20.9048 11.6161C20.8062 11.5793 20.7062 11.5472 20.6043 11.5198C20.5029 11.4925 20.4 11.4698 20.2963 11.4519C20.1925 11.434 20.0878 11.4213 19.983 11.4132C19.8779 11.4052 19.7727 11.4019 19.6675 11.4038C19.5623 11.4057 19.4576 11.4123 19.3528 11.4241C19.2481 11.4359 19.1443 11.4524 19.041 11.4736C18.9377 11.4948 18.8358 11.5213 18.7354 11.5519C18.6349 11.5831 18.5358 11.6184 18.4387 11.6585C18.341 11.6991 18.2457 11.7434 18.1528 11.793C18.0594 11.842 17.9688 11.8953 17.8806 11.9529C17.7929 12.0104 17.7075 12.0722 17.625 12.1378C17.5429 12.2034 17.4636 12.2727 17.3877 12.3458C17.3117 12.4189 17.2396 12.4953 17.1707 12.5751C16.9386 12.5251 16.7042 12.5005 16.4664 12.5005C16.2881 12.501 16.1112 12.5156 15.9353 12.5439C15.7589 12.5722 15.5862 12.6142 15.4169 12.6694C15.2475 12.7251 15.0834 12.793 14.9244 12.8741C14.7654 12.9553 14.614 13.0482 14.4697 13.1529C14.3253 13.2576 14.1904 13.3732 14.064 13.4991C13.9381 13.6251 13.822 13.76 13.7173 13.9043C13.6121 14.0482 13.5187 14.1996 13.4376 14.3581C13.356 14.5171 13.2876 14.6808 13.2319 14.8501C13.1239 14.8841 13.0182 14.9228 12.9145 14.9666C12.8107 15.0105 12.7093 15.0591 12.6097 15.1129C12.5107 15.1666 12.4144 15.2251 12.321 15.2879C12.2272 15.3511 12.1371 15.4185 12.0503 15.4902C11.963 15.5619 11.8795 15.6374 11.7998 15.7176C11.7206 15.7973 11.6446 15.8808 11.5729 15.9676C11.5017 16.0549 11.4342 16.1454 11.3715 16.2388C11.3083 16.3327 11.2503 16.4289 11.1965 16.528C11.1432 16.6275 11.0946 16.729 11.0507 16.8327C11.0069 16.937 10.9682 17.0426 10.9347 17.1502C10.9012 17.2582 10.8729 17.3672 10.8502 17.4776C10.8271 17.5879 10.8097 17.6993 10.7974 17.8115C10.7851 17.9233 10.7781 18.0361 10.7767 18.1488C10.7757 18.2615 10.7795 18.3738 10.7889 18.4865C10.7988 18.5988 10.8135 18.7106 10.8337 18.8215C10.854 18.9323 10.88 19.0418 10.9106 19.1502C10.829 19.2295 10.7512 19.3125 10.6771 19.3993C10.6035 19.4861 10.5342 19.5762 10.4691 19.6696C10.404 19.7635 10.3436 19.8597 10.288 19.9592C10.2323 20.0583 10.1818 20.1602 10.1356 20.2644C10.0898 20.3687 10.0493 20.4748 10.0139 20.5833C9.97852 20.6913 9.94833 20.8012 9.92333 20.9126C9.8988 21.0234 9.87946 21.1357 9.86531 21.2489C9.85163 21.3616 9.84314 21.4753 9.84031 21.589C9.83701 21.7027 9.83984 21.8168 9.84786 21.93C9.85588 22.0437 9.86956 22.1569 9.8889 22.2692C9.90777 22.3815 9.9323 22.4923 9.96249 22.6022C9.9922 22.7121 10.0271 22.8206 10.0677 22.9268C10.1082 23.0334 10.1535 23.1376 10.204 23.24C10.2545 23.3419 10.3097 23.4414 10.37 23.5381C10.4304 23.6348 10.495 23.7282 10.5644 23.8188C10.6333 23.9089 10.7068 23.9957 10.7847 24.0792C10.7889 24.1056 10.7951 24.1329 10.8026 24.1603C11.6559 27.3929 14.1584 27.8085 14.2645 27.825C14.3145 27.8326 14.365 27.8349 14.4154 27.833C14.4659 27.8307 14.5154 27.8236 14.5645 27.8113C14.614 27.7991 14.6612 27.7826 14.707 27.7613C14.7527 27.7401 14.7961 27.7142 14.8371 27.6844C14.8777 27.6547 14.915 27.6212 14.9494 27.584C14.9834 27.5467 15.014 27.5066 15.04 27.4632C15.0664 27.4203 15.0886 27.375 15.106 27.3274C15.1235 27.2802 15.1357 27.2311 15.1438 27.1816C15.1518 27.1311 15.1551 27.0807 15.1532 27.0302C15.1513 26.9792 15.1447 26.9292 15.1329 26.8797C15.1211 26.8302 15.1051 26.7821 15.0843 26.7358C15.0631 26.6896 15.0381 26.6457 15.0084 26.6042C14.9791 26.5632 14.9461 26.525 14.9093 26.4896C14.8721 26.4547 14.8324 26.424 14.7895 26.3967C14.7466 26.3693 14.7013 26.3467 14.6541 26.3283C14.6065 26.3099 14.5579 26.2962 14.5079 26.2872C14.4433 26.2759 12.9399 25.983 12.3357 23.8659C12.338 23.8471 12.3399 23.8282 12.3413 23.8089C12.3508 23.6853 12.3314 23.5659 12.2838 23.4518C12.2366 23.3372 12.1654 23.2395 12.071 23.1588C12.0182 23.1131 11.9682 23.0645 11.9206 23.0131C11.8729 22.9621 11.8281 22.9084 11.7861 22.8522C11.7441 22.7966 11.705 22.7381 11.6696 22.6782C11.6338 22.6178 11.6012 22.556 11.5724 22.4923C11.5432 22.4286 11.5177 22.3635 11.4955 22.297C11.4734 22.231 11.455 22.1635 11.4404 22.0951C11.4253 22.0267 11.4139 21.9579 11.4064 21.8881C11.3993 21.8187 11.3955 21.7489 11.3955 21.6786C11.3955 21.6088 11.3993 21.539 11.4069 21.4696C11.4139 21.3998 11.4253 21.331 11.4404 21.2626C11.455 21.1942 11.4738 21.1267 11.4955 21.0602C11.5177 20.9942 11.5437 20.9291 11.5724 20.8654C11.6017 20.8017 11.6342 20.7399 11.6696 20.6795C11.7055 20.6192 11.7441 20.5611 11.7861 20.5055C11.8281 20.4493 11.8729 20.3956 11.9206 20.3446C11.9682 20.2932 12.0187 20.2446 12.0715 20.1989C12.0899 20.1852 12.1097 20.1743 12.1267 20.1592C12.2045 20.0899 12.2885 20.0286 12.3786 19.9762C12.4687 19.9239 12.563 19.8809 12.6616 19.8474C12.7602 19.8139 12.8611 19.7904 12.9649 19.7772C13.0682 19.7639 13.172 19.7616 13.2758 19.7691C13.3796 19.7772 13.4819 19.7951 13.5819 19.8234C13.6824 19.8517 13.7786 19.8899 13.8716 19.9375C13.964 19.9852 14.0508 20.0418 14.1324 20.1069C14.2135 20.1724 14.2876 20.2451 14.3541 20.3253C14.3871 20.3644 14.4235 20.3998 14.4636 20.4314C14.5036 20.4635 14.5461 20.4908 14.5914 20.5144C14.6371 20.538 14.6843 20.5569 14.7334 20.571C14.7824 20.5852 14.8324 20.5942 14.8834 20.5984C14.9343 20.6026 14.9853 20.6022 15.0362 20.596C15.0872 20.5904 15.1367 20.58 15.1853 20.5644C15.2343 20.5489 15.281 20.5286 15.3254 20.5036C15.3702 20.4791 15.4122 20.4498 15.4513 20.4168C15.49 20.3838 15.5254 20.3474 15.5574 20.3074C15.5891 20.2673 15.6169 20.2248 15.6405 20.179C15.6636 20.1338 15.6825 20.0866 15.6966 20.0371C15.7108 19.988 15.7197 19.938 15.724 19.8871C15.7282 19.8361 15.7273 19.7852 15.7216 19.7342C15.7155 19.6838 15.7051 19.6337 15.6895 19.5852C15.674 19.5366 15.6537 19.4899 15.6287 19.4451C15.6037 19.4003 15.5749 19.3587 15.5419 19.3196C15.4471 19.2059 15.3447 19.0998 15.2343 19.0012C15.1244 18.9021 15.0079 18.812 14.8848 18.7295C14.7617 18.6474 14.6338 18.5748 14.5003 18.5111C14.3669 18.4474 14.2296 18.3932 14.0881 18.3493C13.947 18.3054 13.8032 18.2714 13.6574 18.2479C13.5112 18.2247 13.3645 18.2115 13.2163 18.2092C13.0687 18.2068 12.9215 18.2148 12.7744 18.2337C12.6277 18.2521 12.4833 18.2814 12.3409 18.321C12.3376 18.2762 12.3328 18.2323 12.3328 18.187C12.3319 18.0724 12.3409 17.9592 12.3597 17.846C12.3791 17.7332 12.4083 17.6228 12.4475 17.5153C12.4866 17.4077 12.5347 17.3044 12.5923 17.2059C12.6503 17.1068 12.7163 17.0139 12.7909 16.9271C12.8649 16.8403 12.9465 16.7606 13.0357 16.6884C13.1244 16.6162 13.2187 16.5525 13.3192 16.4973C13.4192 16.4422 13.5239 16.3964 13.6324 16.3601C13.7409 16.3233 13.8517 16.2973 13.965 16.2808C14.0475 16.27 14.1263 16.2469 14.2013 16.211C14.2763 16.1752 14.3442 16.1285 14.4041 16.0709C14.464 16.0134 14.514 15.9478 14.5527 15.8742C14.5919 15.8011 14.6187 15.7233 14.6329 15.6412C14.6494 15.5393 14.6739 15.4393 14.707 15.3412C14.74 15.2431 14.781 15.1487 14.8296 15.0577C14.8782 14.9662 14.9338 14.8798 14.9966 14.7978C15.0598 14.7157 15.1287 14.6393 15.2046 14.569C15.2801 14.4982 15.3607 14.4346 15.4466 14.377C15.5329 14.3199 15.623 14.2704 15.7174 14.2279C15.8117 14.1855 15.9084 14.1511 16.0084 14.1251C16.1084 14.0987 16.2098 14.0808 16.3127 14.0713C16.3282 14.0723 16.3424 14.0756 16.3674 14.0756C16.4499 14.0765 16.5315 14.0831 16.6131 14.0963C16.6943 14.1095 16.7745 14.1289 16.8528 14.1544C16.9311 14.1798 17.007 14.211 17.0806 14.2478C17.1547 14.285 17.2249 14.3275 17.2919 14.3751C17.3589 14.4232 17.4221 14.4756 17.4811 14.5331C17.5405 14.5907 17.5948 14.6525 17.6443 14.7181C17.6938 14.7841 17.7382 14.8534 17.7773 14.9256C17.8165 14.9982 17.8495 15.0737 17.8773 15.1511C17.9396 15.3275 17.9712 15.5091 17.9731 15.6959C17.9736 15.7469 17.9792 15.7973 17.9901 15.8473C18.0004 15.8973 18.016 15.9454 18.0363 15.9926C18.0566 16.0393 18.0811 16.0841 18.1099 16.1261C18.1387 16.1681 18.1712 16.2068 18.208 16.2426C18.2443 16.278 18.2839 16.3101 18.3269 16.3379C18.3698 16.3657 18.4146 16.3889 18.4622 16.4077C18.5094 16.4271 18.5585 16.4412 18.6085 16.4506C18.6589 16.4596 18.7094 16.4643 18.7604 16.4634C18.8113 16.4629 18.8618 16.4572 18.9118 16.4469C18.9618 16.4365 19.0104 16.4209 19.0571 16.4011C19.1042 16.3808 19.1486 16.3563 19.1906 16.3275C19.233 16.2988 19.2717 16.2662 19.3076 16.2299C19.3429 16.1931 19.375 16.1535 19.4028 16.111C19.4307 16.0681 19.4543 16.0233 19.4731 15.9756C19.4925 15.9285 19.5066 15.8794 19.516 15.8294C19.5255 15.7794 19.5302 15.7285 19.5293 15.6775C19.526 15.3181 19.4637 14.969 19.3439 14.6303C19.1759 14.1577 18.9113 13.7473 18.55 13.3991C18.7141 13.2581 18.8976 13.1496 19.1005 13.0741C19.3033 12.9982 19.5127 12.9605 19.7293 12.96C20.0939 12.9614 20.4269 13.0647 20.7283 13.2694C20.4717 13.7463 20.3444 14.2558 20.3448 14.7973C20.3448 14.8482 20.35 14.8987 20.3599 14.9487C20.3698 14.9992 20.3845 15.0478 20.4043 15.0949C20.4236 15.1421 20.4477 15.1869 20.476 15.2294C20.5043 15.2718 20.5368 15.3115 20.5727 15.3473C20.609 15.3836 20.6482 15.4157 20.6906 15.444C20.7331 15.4728 20.7783 15.4968 20.8255 15.5162C20.8727 15.5355 20.9213 15.5506 20.9713 15.5605C21.0213 15.5704 21.0722 15.5756 21.1232 15.5756C21.1741 15.5756 21.2251 15.5704 21.2751 15.5605C21.3251 15.5506 21.3736 15.5355 21.4208 15.5162C21.468 15.4968 21.5128 15.4728 21.5557 15.4445C21.5982 15.4157 21.6373 15.3836 21.6737 15.3473C21.7095 15.3115 21.7421 15.2718 21.7704 15.2294C21.7987 15.1869 21.8227 15.1421 21.8421 15.0949C21.8619 15.0478 21.8765 14.9992 21.8864 14.9487C21.8963 14.8987 21.9015 14.8482 21.9015 14.7973C21.9001 14.6926 21.9086 14.5893 21.9274 14.4864C21.9458 14.3836 21.9741 14.2836 22.0123 14.1864C22.0506 14.0893 22.0977 13.9963 22.1534 13.9081C22.2095 13.8199 22.2737 13.7383 22.3454 13.6624C22.4175 13.5869 22.4958 13.5185 22.5812 13.4581C22.6661 13.3977 22.7562 13.3458 22.8515 13.3029C22.9468 13.26 23.0454 13.2265 23.1468 13.2029C23.2487 13.1789 23.3515 13.1647 23.4558 13.1609C23.552 13.1628 23.6478 13.1723 23.7421 13.1892C23.8369 13.2057 23.9298 13.2298 24.0209 13.2605C24.1119 13.2916 24.2001 13.3293 24.2855 13.3741C24.3709 13.4185 24.452 13.4694 24.5294 13.527C24.6068 13.5841 24.6794 13.6468 24.7473 13.7152C24.8148 13.7836 24.877 13.8567 24.9332 13.9345C24.9898 14.0124 25.0398 14.0944 25.0837 14.1798C25.1275 14.2657 25.1643 14.3544 25.1945 14.4454C25.211 14.493 25.2313 14.5388 25.2568 14.5822C25.2818 14.6261 25.3105 14.6666 25.3436 14.7048C25.3766 14.7426 25.4129 14.777 25.4525 14.8081C25.4922 14.8388 25.5346 14.8657 25.5794 14.8883C25.6242 14.9115 25.6709 14.9294 25.7195 14.9431C25.7676 14.9567 25.8172 14.9657 25.8672 14.9699C25.9172 14.9742 25.9672 14.9732 26.0172 14.9681C26.0672 14.9624 26.1162 14.952 26.1643 14.9369C26.3412 14.8813 26.5224 14.8539 26.7082 14.8539C26.8125 14.8548 26.9158 14.8648 27.0181 14.8836C27.1205 14.902 27.221 14.9289 27.3191 14.9638C27.4172 14.9992 27.5116 15.0421 27.6026 15.0935C27.6932 15.1445 27.7795 15.2025 27.8606 15.2676C27.9418 15.3332 28.0172 15.4044 28.0866 15.4822C28.1554 15.5601 28.2182 15.6431 28.2734 15.7318C28.329 15.82 28.3767 15.912 28.4168 16.0082C28.4569 16.1044 28.4885 16.203 28.5125 16.3049C28.5087 16.3181 28.5026 16.3304 28.4998 16.344C28.4837 16.4256 28.462 16.5054 28.4337 16.5837C28.4054 16.6615 28.371 16.737 28.3314 16.8096C28.2913 16.8827 28.246 16.9521 28.1951 17.0176C28.1446 17.0837 28.0894 17.145 28.029 17.2021C27.9686 17.2592 27.9045 17.3115 27.8366 17.3587C27.7682 17.4063 27.6965 17.4478 27.6219 17.4842C27.5474 17.5205 27.47 17.5507 27.3908 17.5747C27.3115 17.5993 27.2304 17.6172 27.1483 17.629C27.0979 17.6356 27.0483 17.6474 26.9997 17.6634C26.9512 17.6799 26.9049 17.7007 26.8606 17.7266C26.8162 17.7521 26.7747 17.7813 26.7361 17.8153C26.6978 17.8488 26.6629 17.8861 26.6318 17.9266C26.6007 17.9672 26.5738 18.0101 26.5511 18.0563C26.5285 18.1021 26.5106 18.1497 26.4969 18.1993C26.4837 18.2483 26.4757 18.2988 26.4724 18.3498C26.4691 18.4007 26.4705 18.4516 26.4771 18.5026C26.4837 18.5531 26.4955 18.6026 26.512 18.6512C26.5285 18.6998 26.5493 18.746 26.5752 18.7903C26.6007 18.8347 26.6304 18.8762 26.6639 18.9144C26.6978 18.9526 26.7351 18.9875 26.7757 19.0186C26.8162 19.0498 26.8596 19.0767 26.9054 19.0993C26.9512 19.1219 26.9988 19.1394 27.0483 19.1526C27.0979 19.1658 27.1479 19.1743 27.1993 19.1776C27.2502 19.1804 27.3012 19.179 27.3516 19.1719C27.5818 19.1408 27.8054 19.0842 28.0234 19.0031C28.2408 18.9219 28.4465 18.8177 28.6413 18.6908C28.8356 18.5634 29.0135 18.4167 29.1753 18.2502C29.3371 18.0837 29.4786 17.9012 29.5998 17.703C29.7116 17.7927 29.8168 17.8889 29.9159 17.9922C30.0154 18.095 30.1074 18.204 30.1928 18.3186C30.2777 18.4337 30.3555 18.5535 30.4253 18.6785C30.4951 18.8031 30.5564 18.9318 30.6097 19.0644C30.6631 19.1974 30.7079 19.3328 30.7437 19.471C30.7796 19.6097 30.8065 19.7498 30.8244 19.8918C30.8423 20.0338 30.8513 20.1762 30.8508 20.3191C30.8508 20.4621 30.8414 20.6045 30.8225 20.746C30.8022 20.906 30.7706 21.0635 30.7272 21.2187C30.6833 21.3739 30.6291 21.5248 30.563 21.672C30.4975 21.8192 30.4215 21.9607 30.3347 22.0966C30.2484 22.2324 30.1522 22.3612 30.0465 22.4829C29.9409 22.6046 29.8272 22.7178 29.705 22.823C29.5828 22.9277 29.4536 23.0235 29.3173 23.1093C29.1809 23.1952 29.039 23.2706 28.8913 23.3353C28.7441 23.4004 28.5927 23.4541 28.4375 23.4971C28.1361 23.5777 27.83 23.6117 27.5182 23.5994C27.2064 23.5872 26.904 23.5291 26.6096 23.4254C26.5427 23.4018 26.4733 23.3881 26.4021 23.3834C26.3309 23.3791 26.2606 23.3843 26.1908 23.3994C26.1209 23.4145 26.0549 23.4386 25.9917 23.4721C25.9285 23.5051 25.8714 23.5461 25.8195 23.5952C25.6502 23.7579 25.4563 23.8829 25.2388 23.9711C25.0214 24.0589 24.795 24.1032 24.5605 24.1037C24.5308 24.1037 24.5049 24.1032 24.4766 24.1032C24.644 23.9065 24.786 23.6924 24.902 23.4617C25.0186 23.231 25.1058 22.99 25.1643 22.7381C25.2223 22.4867 25.2502 22.2315 25.2478 21.973C25.245 21.7145 25.212 21.4602 25.1483 21.2097C25.1355 21.1602 25.1181 21.1126 25.0964 21.0663C25.0742 21.0201 25.0478 20.9767 25.0176 20.9357C24.987 20.8946 24.9525 20.8569 24.9143 20.8229C24.8766 20.7885 24.8355 20.7583 24.7917 20.7324C24.7478 20.7064 24.7016 20.6847 24.6535 20.6677C24.6053 20.6508 24.5558 20.6385 24.5053 20.6309C24.4549 20.6239 24.4039 20.6215 24.353 20.6239C24.3016 20.6267 24.2516 20.6342 24.202 20.647C24.1525 20.6597 24.1044 20.6772 24.0582 20.6989C24.0124 20.721 23.9685 20.7475 23.928 20.7781C23.8869 20.8088 23.8492 20.8427 23.8152 20.881C23.7808 20.9192 23.7506 20.9597 23.7247 21.0041C23.6987 21.0479 23.677 21.0937 23.66 21.1423C23.643 21.1904 23.6308 21.2399 23.6232 21.2904C23.6162 21.3409 23.6138 21.3918 23.6166 21.4428C23.6195 21.4937 23.627 21.5442 23.6397 21.5937C23.6671 21.697 23.6841 21.8017 23.6912 21.9083C23.6982 22.0149 23.6945 22.1211 23.6808 22.2272C23.6671 22.3329 23.6435 22.4367 23.6096 22.5381C23.5756 22.639 23.5322 22.7362 23.4794 22.8291C23.4265 22.922 23.3657 23.0088 23.2959 23.0895C23.2261 23.1706 23.1492 23.2438 23.0652 23.3098C22.9812 23.3758 22.8916 23.4329 22.7968 23.4815C22.7015 23.5301 22.6025 23.5688 22.4996 23.598C22.4925 23.5999 22.4864 23.6037 22.4793 23.606L21.8897 23.7107C21.6505 23.7315 21.4152 23.7735 21.1835 23.8362C20.9519 23.8985 20.7274 23.9815 20.5104 24.0839C20.2934 24.1862 20.0873 24.307 19.8915 24.4461C19.6958 24.5848 19.5142 24.74 19.3458 24.9113C18.7693 25.5254 18.7693 26.2684 18.7693 26.8679V41.7579H17.7335C17.6844 41.757 17.6358 41.7518 17.5877 41.7424C17.5391 41.7329 17.4924 41.7193 17.4467 41.7013C17.4009 41.6834 17.357 41.6622 17.315 41.6362C17.2731 41.6108 17.2339 41.582 17.1971 41.5494C17.1603 41.5169 17.1264 41.4815 17.0962 41.4433C17.0655 41.4046 17.0386 41.3641 17.015 41.3207C16.9919 41.2777 16.9726 41.2329 16.957 41.1862C16.9415 41.1395 16.9301 41.0919 16.9231 41.0433C16.683 39.5027 16.2532 38.0168 15.6339 36.5861C14.8527 34.7644 13.8494 33.0752 12.6239 31.5176C12.1574 30.9289 11.6088 30.4156 11.1139 29.8524C10.5998 29.268 10.1422 28.6425 9.74125 27.9755C9.3403 27.3085 9.00208 26.6113 8.72707 25.883C8.45207 25.1551 8.24451 24.4084 8.10442 23.6428C7.96432 22.8772 7.89403 22.105 7.89356 21.3272C7.89356 14.1383 13.8282 8.29004 21.1232 8.29004C28.4182 8.29004 34.3528 14.1383 34.3528 21.3272C34.3532 21.7432 34.3334 22.1583 34.2933 22.5725C34.2532 22.9867 34.1933 23.398 34.1136 23.8065C34.0339 24.215 33.9344 24.6188 33.8155 25.0174C33.6966 25.4165 33.5584 25.8084 33.4013 26.1938C33.2443 26.5792 33.0693 26.9561 32.8758 27.3245C32.682 27.6929 32.4711 28.0514 32.2428 28.3996C32.015 28.7472 31.7702 29.0835 31.5093 29.4076C31.2484 29.7321 30.9725 30.043 30.6814 30.3402Z" fill="#092C4C"/>
<mask id="mask0_334_4056" style="mask-type:luminance" maskUnits="userSpaceOnUse" x="20" y="0" width="2" height="6">
<path d="M20.3418 0.506348H21.9117V5.2461H20.3418V0.506348Z" fill="white"/>
</mask>
<g mask="url(#mask0_334_4056)">
<path d="M21.124 5.17629C21.175 5.17629 21.2259 5.1711 21.2759 5.16119C21.3259 5.15129 21.3745 5.13666 21.4217 5.11685C21.4688 5.09751 21.5137 5.07345 21.5566 5.04515C21.599 5.01685 21.6382 4.9843 21.6745 4.94845C21.7104 4.91213 21.7429 4.87298 21.7712 4.83052C21.7995 4.78807 21.8236 4.74326 21.8429 4.69561C21.8627 4.64844 21.8773 4.59986 21.8873 4.54985C21.8972 4.49985 21.9023 4.44891 21.9023 4.39796V1.28467C21.9023 1.23373 21.8972 1.18278 21.8873 1.13278C21.8773 1.08278 21.8627 1.03419 21.8429 0.987021C21.8236 0.939378 21.7995 0.894566 21.7712 0.852112C21.7429 0.809658 21.7104 0.770506 21.6745 0.734184C21.6382 0.698334 21.599 0.665786 21.5566 0.637483C21.5137 0.609181 21.4688 0.585123 21.4217 0.565783C21.3745 0.545971 21.3259 0.531348 21.2759 0.521442C21.2259 0.511537 21.175 0.506348 21.124 0.506348C21.0731 0.506348 21.0221 0.511537 20.9721 0.521442C20.9221 0.531348 20.8735 0.545971 20.8264 0.565783C20.7792 0.585123 20.7339 0.609181 20.6915 0.637483C20.649 0.665786 20.6099 0.698334 20.5735 0.734184C20.5377 0.770506 20.5051 0.809658 20.4768 0.852112C20.4485 0.894566 20.4245 0.939378 20.4051 0.987021C20.3853 1.03419 20.3707 1.08278 20.3608 1.13278C20.3509 1.18278 20.3457 1.23373 20.3457 1.28467V4.39796C20.3457 4.44891 20.3509 4.49985 20.3608 4.54985C20.3707 4.59986 20.3853 4.64844 20.4051 4.69561C20.4245 4.74326 20.4485 4.78807 20.4768 4.83052C20.5051 4.87298 20.5377 4.91213 20.5735 4.94845C20.6099 4.9843 20.649 5.01685 20.6915 5.04515C20.7344 5.07345 20.7792 5.09751 20.8264 5.11685C20.8735 5.13666 20.9221 5.15129 20.9721 5.16119C21.0221 5.1711 21.0731 5.17629 21.124 5.17629Z" fill="#092C4C"/>
</g>
<path d="M13.853 5.99932C13.8729 6.0465 13.8969 6.09131 13.9252 6.13376C13.9535 6.17622 13.9861 6.21584 14.0219 6.25169C14.0582 6.28801 14.0974 6.32009 14.1398 6.34839C14.1823 6.37717 14.2271 6.40075 14.2743 6.42056C14.3219 6.4399 14.3705 6.455 14.4205 6.4649C14.4705 6.47481 14.5215 6.47953 14.5724 6.47953C14.6233 6.47953 14.6738 6.47481 14.7243 6.4649C14.7743 6.455 14.8229 6.4399 14.8701 6.42056C14.9172 6.40075 14.962 6.37669 15.0045 6.34839C15.0469 6.32009 15.0866 6.28801 15.1224 6.25169C15.1587 6.21537 15.1908 6.17622 15.2191 6.13376C15.2479 6.09131 15.2715 6.0465 15.2913 5.99932C15.3106 5.95215 15.3257 5.9031 15.3356 5.85309C15.3455 5.80309 15.3503 5.75262 15.3503 5.7012C15.3503 5.65026 15.3455 5.59979 15.3356 5.54931C15.3253 5.49931 15.3106 5.45072 15.2913 5.40355L14.0997 2.52706C14.0804 2.47989 14.0564 2.43508 14.028 2.39215C13.9997 2.3497 13.9672 2.31054 13.9313 2.27422C13.895 2.23837 13.8559 2.20583 13.8134 2.17752C13.7705 2.14922 13.7257 2.12516 13.6785 2.10582C13.6313 2.08601 13.5828 2.07139 13.5328 2.06148C13.4828 2.05158 13.4318 2.04639 13.3809 2.04639C13.3299 2.04639 13.279 2.05158 13.229 2.06148C13.179 2.07139 13.1304 2.08648 13.0832 2.10582C13.036 2.12563 12.9908 2.14922 12.9483 2.17799C12.9058 2.2063 12.8667 2.23837 12.8304 2.27469C12.7945 2.31054 12.762 2.35017 12.7337 2.39262C12.7054 2.43508 12.6813 2.47989 12.662 2.52706C12.6422 2.57423 12.6275 2.62282 12.6176 2.67329C12.6077 2.72329 12.6025 2.77377 12.6025 2.82518C12.6025 2.87613 12.6077 2.9266 12.6176 2.9766C12.6275 3.02707 12.6426 3.07566 12.662 3.12283L13.853 5.99932Z" fill="#092C4C"/>
<path d="M8.26111 9.76097C8.36016 9.87088 8.47479 9.96097 8.60498 10.0322C8.7347 10.103 8.87291 10.1501 9.01867 10.1742C9.11018 10.1813 9.19792 10.1671 9.28189 10.1317C9.32623 10.1148 9.36821 10.0945 9.40831 10.0699C9.44887 10.0459 9.48661 10.018 9.52199 9.98692C9.5569 9.95578 9.58944 9.92182 9.61822 9.88456C9.64746 9.84776 9.67294 9.80861 9.69463 9.76663C9.71681 9.72512 9.73473 9.68219 9.74888 9.63691C9.76303 9.59209 9.77294 9.54634 9.7786 9.49964C9.78473 9.45294 9.78615 9.40624 9.78332 9.35907C9.78096 9.31237 9.77388 9.26614 9.76303 9.22039C9.67058 8.98547 9.52812 8.78688 9.33566 8.62367C8.74414 8.03403 8.15308 7.44439 7.56156 6.85476C7.42854 6.70334 7.27193 6.58352 7.09126 6.49437C7.02192 6.46607 6.95022 6.44814 6.87569 6.44059C6.80163 6.43352 6.72757 6.43682 6.65446 6.45144C6.58087 6.46607 6.51106 6.49059 6.44502 6.52597C6.37898 6.56088 6.31954 6.60475 6.26671 6.65758C6.21341 6.70994 6.16907 6.76938 6.13369 6.83494C6.09784 6.90051 6.07284 6.97032 6.05774 7.04344C6.04265 7.11656 6.0384 7.19061 6.04501 7.26514C6.05161 7.3392 6.06906 7.41137 6.0969 7.48072C6.18699 7.6661 6.30917 7.82695 6.46436 7.9628C7.06343 8.56235 7.66203 9.16142 8.26111 9.76097Z" fill="#092C4C"/>
<path d="M5.60532 14.25L2.72976 13.0589C2.68259 13.0391 2.63354 13.0245 2.58353 13.0146C2.53353 13.0047 2.48306 12.9995 2.43164 12.9995C2.3807 12.9995 2.33023 13.0047 2.27975 13.0146C2.22975 13.0245 2.18116 13.0391 2.13399 13.0585C2.08682 13.0783 2.04201 13.1023 1.99956 13.1306C1.9571 13.159 1.91748 13.191 1.88163 13.2273C1.84531 13.2637 1.81323 13.3028 1.78446 13.3453C1.75615 13.3877 1.7321 13.4325 1.71276 13.4797C1.69342 13.5269 1.67832 13.5759 1.66842 13.6259C1.65851 13.6759 1.65332 13.7264 1.65332 13.7778C1.65332 13.8288 1.65851 13.8793 1.66842 13.9297C1.67832 13.9797 1.69294 14.0283 1.71276 14.0755C1.7321 14.1227 1.75615 14.1675 1.78446 14.2099C1.81276 14.2528 1.84531 14.292 1.88116 14.3283C1.91748 14.3642 1.95663 14.3967 1.99908 14.425C2.04154 14.4533 2.08635 14.4774 2.13399 14.4967C2.13399 14.4967 5.00483 15.6864 5.00954 15.6883C5.05672 15.7071 5.1053 15.7213 5.1553 15.7302C5.2053 15.7397 5.25578 15.7444 5.30672 15.7439C5.35767 15.7435 5.40814 15.7383 5.45814 15.7284C5.50767 15.718 5.55626 15.7034 5.60343 15.684C5.65013 15.6642 5.69494 15.6406 5.73739 15.6123C5.77985 15.5845 5.819 15.5524 5.85532 15.5166C5.89164 15.4812 5.92419 15.442 5.95297 15.4C5.98174 15.3581 6.00627 15.3137 6.02655 15.267C6.04589 15.2199 6.06052 15.1713 6.07089 15.1213C6.0808 15.0713 6.08552 15.0203 6.08552 14.9694C6.08552 14.9184 6.0808 14.8675 6.07089 14.8175C6.06099 14.7675 6.04589 14.7189 6.02655 14.6717C6.00674 14.6241 5.98316 14.5793 5.95438 14.5368C5.92608 14.4944 5.894 14.4552 5.85768 14.4189C5.82183 14.383 5.78221 14.3505 5.73975 14.3222C5.6973 14.2939 5.65249 14.2698 5.60532 14.25Z" fill="#092C4C"/>
<mask id="mask1_334_4056" style="mask-type:luminance" maskUnits="userSpaceOnUse" x="0" y="20" width="5" height="3">
<path d="M0.114258 20.7041H4.8842V22.3947H0.114258V20.7041Z" fill="white"/>
</mask>
<g mask="url(#mask1_334_4056)">
<path d="M4.0015 20.7432H0.888675C0.837258 20.7432 0.786785 20.7484 0.736784 20.7583C0.686782 20.7682 0.638196 20.7828 0.590553 20.8026C0.543382 20.8219 0.49857 20.846 0.456116 20.8743C0.413662 20.9026 0.37451 20.9352 0.338188 20.971C0.302338 21.0073 0.26979 21.0465 0.241487 21.0889C0.213185 21.1314 0.189127 21.1762 0.169787 21.2238C0.149975 21.271 0.135352 21.3196 0.125446 21.3696C0.11554 21.4196 0.110352 21.4705 0.110352 21.5215C0.110352 21.5724 0.11554 21.6234 0.125446 21.6734C0.135352 21.7234 0.149975 21.772 0.169787 21.8191C0.189127 21.8668 0.213185 21.9116 0.241487 21.954C0.26979 21.9965 0.302338 22.0357 0.338188 22.072C0.37451 22.1078 0.413662 22.1404 0.456116 22.1687C0.49857 22.197 0.543382 22.221 0.590553 22.2404C0.638196 22.2602 0.686782 22.2748 0.736784 22.2847C0.786785 22.2946 0.837258 22.2998 0.888675 22.2998H4.0015C4.05244 22.2998 4.10291 22.2946 4.15339 22.2847C4.20339 22.2748 4.25197 22.2602 4.29915 22.2404C4.34632 22.221 4.39113 22.197 4.43358 22.1687C4.47651 22.1404 4.51566 22.1078 4.55151 22.072C4.58783 22.0357 4.61991 21.9965 4.64868 21.954C4.67699 21.9116 4.70104 21.8668 4.72038 21.8191C4.74019 21.772 4.75482 21.7234 4.76472 21.6734C4.77463 21.6234 4.77982 21.5724 4.77982 21.5215C4.77982 21.4705 4.77463 21.4196 4.76472 21.3696C4.75482 21.3196 4.74019 21.271 4.72038 21.2238C4.70104 21.1762 4.67699 21.1314 4.64868 21.0889C4.61991 21.0465 4.58783 21.0073 4.55151 20.971C4.51566 20.9352 4.47651 20.9026 4.43358 20.8743C4.39113 20.846 4.34632 20.8219 4.29915 20.8026C4.25197 20.7828 4.20339 20.7682 4.15339 20.7583C4.10291 20.7484 4.05244 20.7432 4.0015 20.7432Z" fill="#092C4C"/>
</g>
<mask id="mask2_334_4056" style="mask-type:luminance" maskUnits="userSpaceOnUse" x="37" y="20" width="6" height="3">
<path d="M37.3682 20.7041H42.1353V22.3947H37.3682V20.7041Z" fill="white"/>
</mask>
<g mask="url(#mask2_334_4056)">
<path d="M41.3589 20.7432H38.2461C38.1952 20.7432 38.1442 20.7484 38.0942 20.7583C38.0442 20.7682 37.9956 20.7828 37.9484 20.8026C37.9013 20.8219 37.8565 20.846 37.814 20.8743C37.7711 20.9026 37.7319 20.9352 37.6961 20.971C37.6598 21.0073 37.6277 21.0465 37.5989 21.0889C37.5706 21.1314 37.5465 21.1762 37.5272 21.2238C37.5074 21.271 37.4928 21.3196 37.4829 21.3696C37.473 21.4196 37.4678 21.4705 37.4678 21.5215C37.4678 21.5724 37.473 21.6234 37.4829 21.6734C37.4928 21.7234 37.5074 21.772 37.5272 21.8191C37.5465 21.8668 37.5706 21.9116 37.5989 21.954C37.6277 21.9965 37.6598 22.0357 37.6961 22.072C37.7319 22.1078 37.7711 22.1404 37.814 22.1687C37.8565 22.197 37.9013 22.221 37.9484 22.2404C37.9956 22.2602 38.0442 22.2748 38.0942 22.2847C38.1442 22.2946 38.1952 22.2998 38.2461 22.2998H41.3589C41.4103 22.2998 41.4608 22.2946 41.5108 22.2847C41.5608 22.2748 41.6094 22.2602 41.657 22.2404C41.7042 22.221 41.749 22.197 41.7915 22.1687C41.8339 22.1404 41.8731 22.1078 41.9094 22.072C41.9453 22.0357 41.9778 21.9965 42.0061 21.954C42.0344 21.9116 42.0585 21.8668 42.0778 21.8191C42.0976 21.772 42.1122 21.7234 42.1221 21.6734C42.1321 21.6234 42.1372 21.5724 42.1372 21.5215C42.1372 21.4705 42.1321 21.4196 42.1221 21.3696C42.1122 21.3196 42.0976 21.271 42.0778 21.2238C42.0585 21.1762 42.0344 21.1314 42.0061 21.0889C41.9778 21.0465 41.9453 21.0073 41.9094 20.971C41.8731 20.9352 41.8339 20.9026 41.7915 20.8743C41.749 20.846 41.7042 20.8219 41.657 20.8026C41.6094 20.7828 41.5608 20.7682 41.5108 20.7583C41.4608 20.7484 41.4103 20.7432 41.3589 20.7432Z" fill="#092C4C"/>
</g>
<path d="M40.5368 13.4797C40.5175 13.4325 40.4934 13.3877 40.4651 13.3453C40.4363 13.3028 40.4043 13.2637 40.368 13.2273C40.3321 13.1915 40.2925 13.159 40.25 13.1306C40.2076 13.1023 40.1628 13.0783 40.1156 13.0589C40.0684 13.0391 40.0198 13.0245 39.9698 13.0146C39.9194 13.0047 39.8689 12.9995 39.8179 12.9995C39.7665 12.9995 39.716 13.0047 39.666 13.0146C39.616 13.0245 39.567 13.0391 39.5198 13.0589L36.6443 14.25C36.5971 14.2698 36.5523 14.2939 36.5098 14.3222C36.4674 14.3505 36.4277 14.383 36.3919 14.4189C36.3556 14.4552 36.3235 14.4944 36.2952 14.5368C36.2664 14.5793 36.2428 14.6241 36.223 14.6717C36.2037 14.7189 36.1886 14.7675 36.1787 14.8175C36.1688 14.8675 36.1641 14.9184 36.1641 14.9694C36.1641 15.0203 36.1688 15.0713 36.1787 15.1213C36.1891 15.1713 36.2037 15.2199 36.223 15.267C36.2428 15.3147 36.2669 15.3595 36.2952 15.4019C36.3235 15.4444 36.3556 15.4835 36.3919 15.5199C36.4282 15.5557 36.4674 15.5883 36.5098 15.6166C36.5523 15.6449 36.5971 15.6689 36.6443 15.6883C36.6914 15.7081 36.7405 15.7227 36.7905 15.7326C36.8405 15.7425 36.891 15.7477 36.9424 15.7477C36.9933 15.7477 37.0438 15.7425 37.0943 15.7326C37.1443 15.7227 37.1929 15.7081 37.24 15.6883L40.1156 14.4967C40.1632 14.4774 40.208 14.4533 40.2505 14.425C40.2929 14.3967 40.3321 14.3642 40.3684 14.3283C40.4043 14.292 40.4368 14.2528 40.4651 14.2104C40.4934 14.1675 40.5175 14.1227 40.5368 14.0755C40.5566 14.0283 40.5713 13.9797 40.5812 13.9297C40.5911 13.8793 40.5963 13.8288 40.5963 13.7778C40.5963 13.7264 40.5911 13.6759 40.5812 13.6259C40.5713 13.5759 40.5562 13.5269 40.5368 13.4797Z" fill="#092C4C"/>
<path d="M35.9824 6.66239C35.9466 6.62607 35.907 6.59352 35.8645 6.56522C35.8221 6.53692 35.7772 6.51286 35.7301 6.49352C35.6829 6.47371 35.6343 6.45908 35.5843 6.44918C35.5338 6.43927 35.4834 6.43408 35.4324 6.43408C35.381 6.43408 35.3305 6.43927 35.2805 6.44918C35.2305 6.45908 35.1819 6.47371 35.1343 6.49352C35.0871 6.51286 35.0423 6.53692 34.9999 6.56522C34.9574 6.59352 34.9183 6.62607 34.8819 6.66239L32.6809 8.86387C32.6446 8.89972 32.6125 8.93934 32.5838 8.98179C32.5555 9.02425 32.5314 9.06906 32.5121 9.11623C32.4922 9.1634 32.4776 9.21199 32.4672 9.26246C32.4573 9.31246 32.4521 9.36294 32.4521 9.41435C32.4521 9.4653 32.4573 9.51624 32.4672 9.56624C32.4771 9.61624 32.4918 9.6653 32.5116 9.71247C32.5309 9.75964 32.555 9.80446 32.5833 9.84691C32.6116 9.88937 32.6441 9.92899 32.6805 9.96531C32.7163 10.0012 32.7559 10.0337 32.7984 10.062C32.8408 10.0903 32.8857 10.1144 32.9328 10.1337C32.98 10.1535 33.0291 10.1681 33.0791 10.1781C33.1291 10.188 33.18 10.1931 33.2309 10.1931C33.2824 10.1931 33.3328 10.188 33.3828 10.1781C33.4328 10.1681 33.4819 10.1531 33.5291 10.1337C33.5762 10.1139 33.621 10.0898 33.6635 10.0615C33.706 10.0328 33.7451 10.0007 33.7814 9.96437L35.9824 7.76289C36.0188 7.72657 36.0508 7.68742 36.0791 7.64496C36.1079 7.60251 36.1315 7.5577 36.1513 7.51053C36.1706 7.46288 36.1857 7.4143 36.1956 7.3643C36.2056 7.31429 36.2107 7.26335 36.2107 7.21241C36.2107 7.16146 36.2056 7.11099 36.1956 7.06051C36.1857 7.01051 36.1706 6.96193 36.1513 6.91476C36.1315 6.86758 36.1079 6.82277 36.0791 6.78032C36.0508 6.73739 36.0188 6.69824 35.9824 6.66239Z" fill="#092C4C"/>
<path d="M27.3786 6.42056C27.4258 6.4399 27.4744 6.455 27.5249 6.4649C27.5749 6.47481 27.6253 6.48 27.6768 6.48C27.7277 6.48 27.7782 6.47528 27.8287 6.46537C27.8787 6.45547 27.9272 6.44037 27.9744 6.42103C28.0216 6.40122 28.0664 6.37764 28.1088 6.34886C28.1518 6.32056 28.1909 6.28848 28.2268 6.25216C28.2631 6.21584 28.2952 6.17669 28.3235 6.13423C28.3518 6.09131 28.3758 6.0465 28.3952 5.99932L29.5867 3.12283C29.6061 3.07566 29.6212 3.02707 29.6311 2.97707C29.641 2.9266 29.6462 2.87613 29.6462 2.82518C29.6462 2.77377 29.641 2.72329 29.6311 2.67329C29.6212 2.62282 29.6065 2.57423 29.5867 2.52706C29.5674 2.47989 29.5433 2.43508 29.515 2.39262C29.4862 2.35017 29.4542 2.31054 29.4183 2.27469C29.382 2.23837 29.3428 2.2063 29.3004 2.17799C29.2575 2.14922 29.2127 2.12563 29.1655 2.10582C29.1183 2.08648 29.0697 2.07139 29.0197 2.06148C28.9697 2.05158 28.9188 2.04639 28.8678 2.04639C28.8169 2.04639 28.7659 2.05158 28.7159 2.06148C28.6659 2.07139 28.6174 2.08601 28.5702 2.10582C28.523 2.12516 28.4777 2.14922 28.4353 2.17752C28.3928 2.2063 28.3537 2.23837 28.3173 2.27422C28.2815 2.31054 28.2489 2.3497 28.2206 2.39262C28.1923 2.43508 28.1683 2.47989 28.1489 2.52706L26.9574 5.40355C26.9381 5.45072 26.9234 5.49931 26.9131 5.54931C26.9032 5.59979 26.8984 5.65026 26.8984 5.7012C26.8984 5.75262 26.9032 5.80309 26.9131 5.85309C26.9234 5.9031 26.9381 5.95215 26.9574 5.99932C26.9772 6.0465 27.0013 6.09131 27.0296 6.13376C27.0579 6.17622 27.09 6.21537 27.1263 6.25169C27.1626 6.28801 27.2017 6.32009 27.2442 6.34839C27.2867 6.37669 27.3315 6.40075 27.3786 6.42056Z" fill="#092C4C"/>
<path d="M25.0167 44.0928H17.2344C17.1834 44.0928 17.1325 44.098 17.0825 44.1079C17.0325 44.1178 16.9839 44.1324 16.9367 44.1522C16.8896 44.1715 16.8447 44.1956 16.8023 44.2239C16.7594 44.2522 16.7202 44.2848 16.6844 44.3206C16.648 44.3569 16.616 44.3961 16.5872 44.4385C16.5589 44.481 16.5348 44.5258 16.5155 44.5734C16.4957 44.6206 16.4811 44.6692 16.4711 44.7192C16.4612 44.7692 16.4561 44.8202 16.4561 44.8711C16.4561 44.922 16.4612 44.973 16.4711 45.023C16.4811 45.073 16.4957 45.1216 16.5155 45.1687C16.5348 45.2164 16.5589 45.2612 16.5872 45.3037C16.616 45.3461 16.648 45.3853 16.6844 45.4216C16.7202 45.4574 16.7594 45.49 16.8023 45.5183C16.8447 45.5466 16.8896 45.5706 16.9367 45.59C16.9839 45.6098 17.0325 45.6244 17.0825 45.6343C17.1325 45.6442 17.1834 45.6494 17.2344 45.6494H25.0167C25.0676 45.6494 25.1181 45.6442 25.1686 45.6343C25.2186 45.6244 25.2671 45.6098 25.3143 45.59C25.3615 45.5706 25.4063 45.5466 25.4488 45.5183C25.4917 45.49 25.5308 45.4574 25.5667 45.4216C25.603 45.3853 25.6351 45.3461 25.6639 45.3037C25.6922 45.2612 25.7162 45.2164 25.7356 45.1687C25.7554 45.1216 25.77 45.073 25.7799 45.023C25.7898 44.973 25.795 44.922 25.795 44.8711C25.795 44.8202 25.7898 44.7692 25.7799 44.7192C25.77 44.6692 25.7554 44.6206 25.7356 44.5734C25.7162 44.5258 25.6922 44.481 25.6639 44.4385C25.6351 44.3961 25.603 44.3569 25.5667 44.3206C25.5308 44.2848 25.4917 44.2522 25.4488 44.2239C25.4063 44.1956 25.3615 44.1715 25.3143 44.1522C25.2671 44.1324 25.2186 44.1178 25.1686 44.1079C25.1181 44.098 25.0676 44.0928 25.0167 44.0928Z" fill="#092C4C"/>
<path d="M24.2374 46.4272H18.0117C17.9608 46.4272 17.9098 46.4324 17.8598 46.4423C17.8098 46.4522 17.7612 46.4669 17.7141 46.4867C17.6664 46.506 17.6216 46.5301 17.5792 46.5584C17.5367 46.5867 17.4976 46.6192 17.4612 46.6551C17.4254 46.6914 17.3928 46.7306 17.3645 46.773C17.3362 46.8155 17.3122 46.8603 17.2928 46.9079C17.273 46.9551 17.2584 47.0037 17.2485 47.0537C17.2386 47.1037 17.2334 47.1546 17.2334 47.2056C17.2334 47.2565 17.2386 47.3075 17.2485 47.3575C17.2584 47.4075 17.273 47.456 17.2928 47.5032C17.3122 47.5509 17.3362 47.5957 17.3645 47.6381C17.3928 47.6806 17.4254 47.7197 17.4612 47.7561C17.4976 47.7919 17.5367 47.8245 17.5792 47.8528C17.6216 47.8811 17.6664 47.9051 17.7141 47.9245C17.7612 47.9443 17.8098 47.9589 17.8598 47.9688C17.9098 47.9787 17.9608 47.9839 18.0117 47.9839H24.2374C24.2883 47.9839 24.3393 47.9787 24.3893 47.9688C24.4393 47.9589 24.4878 47.9443 24.535 47.9245C24.5827 47.9051 24.6275 47.8811 24.6699 47.8528C24.7124 47.8245 24.7515 47.7919 24.7879 47.7561C24.8237 47.7197 24.8562 47.6806 24.8846 47.6381C24.9129 47.5957 24.9369 47.5509 24.9563 47.5032C24.9761 47.456 24.9907 47.4075 25.0006 47.3575C25.0105 47.3075 25.0157 47.2565 25.0157 47.2056C25.0157 47.1546 25.0105 47.1037 25.0006 47.0537C24.9907 47.0037 24.9761 46.9551 24.9563 46.9079C24.9369 46.8603 24.9129 46.8155 24.8846 46.773C24.8562 46.7306 24.8237 46.6914 24.7879 46.6551C24.7515 46.6192 24.7124 46.5867 24.6699 46.5584C24.6275 46.5301 24.5827 46.506 24.535 46.4867C24.4878 46.4669 24.4393 46.4522 24.3893 46.4423C24.3393 46.4324 24.2883 46.4272 24.2374 46.4272Z" fill="#092C4C"/>
<mask id="mask3_334_4056" style="mask-type:luminance" maskUnits="userSpaceOnUse" x="18" y="48" width="6" height="3">
<path d="M18.7695 48.7202H23.4791V50.3203H18.7695V48.7202Z" fill="white"/>
</mask>
<g mask="url(#mask3_334_4056)">
<path d="M22.6802 48.7637H19.5669C19.516 48.7637 19.4655 48.7689 19.4155 48.7788C19.365 48.7887 19.3164 48.8033 19.2693 48.8231C19.2221 48.8424 19.1773 48.8665 19.1348 48.8948C19.0924 48.9231 19.0527 48.9557 19.0169 48.9915C18.9806 49.0278 18.9485 49.067 18.9202 49.1094C18.8919 49.1519 18.8678 49.1967 18.848 49.2443C18.8287 49.2915 18.8136 49.3401 18.8037 49.3901C18.7938 49.4401 18.7891 49.4911 18.7891 49.542C18.7891 49.5929 18.7938 49.6439 18.8037 49.6939C18.8136 49.7439 18.8287 49.7925 18.848 49.8396C18.8678 49.8873 18.8919 49.9321 18.9202 49.9746C18.9485 50.017 18.9806 50.0562 19.0169 50.0925C19.0527 50.1283 19.0924 50.1609 19.1348 50.1892C19.1773 50.2175 19.2221 50.2415 19.2693 50.2609C19.3164 50.2807 19.365 50.2953 19.4155 50.3052C19.4655 50.3151 19.516 50.3203 19.5669 50.3203H22.6802C22.7312 50.3203 22.7816 50.3151 22.8316 50.3052C22.8821 50.2953 22.9307 50.2807 22.9779 50.2609C23.025 50.2415 23.0698 50.2175 23.1123 50.1892C23.1547 50.1609 23.1944 50.1283 23.2302 50.0925C23.2665 50.0562 23.2986 50.017 23.3269 49.9746C23.3552 49.9321 23.3793 49.8873 23.3991 49.8396C23.4184 49.7925 23.4331 49.7439 23.4434 49.6939C23.4533 49.6439 23.4581 49.5929 23.4581 49.542C23.4581 49.4911 23.4533 49.4401 23.4434 49.3901C23.4331 49.3401 23.4184 49.2915 23.3991 49.2443C23.3793 49.1967 23.3552 49.1519 23.3269 49.1094C23.2986 49.067 23.2665 49.0278 23.2302 48.9915C23.1944 48.9557 23.1547 48.9231 23.1123 48.8948C23.0698 48.8665 23.025 48.8424 22.9779 48.8231C22.9307 48.8033 22.8821 48.7887 22.8316 48.7788C22.7816 48.7689 22.7312 48.7637 22.6802 48.7637Z" fill="#092C4C"/>
</g>
</svg>
