<svg width="43" height="43" viewBox="0 0 43 43" fill="none" xmlns="http://www.w3.org/2000/svg">
<mask id="mask0_334_4025" style="mask-type:luminance" maskUnits="userSpaceOnUse" x="4" y="0" width="39" height="39">
<path d="M4.03516 0.137207H42.4482V38.6951H4.03516V0.137207Z" fill="white"/>
</mask>
<g mask="url(#mask0_334_4025)">
<path d="M28.3076 38.5904C28.2685 38.5904 28.2294 38.5871 28.1908 38.5805C28.1521 38.5735 28.1142 38.5636 28.0776 38.55C28.0406 38.5365 28.0052 38.5196 27.9714 38.4998C27.9377 38.4797 27.906 38.457 27.8759 38.4315C27.8463 38.4056 27.8192 38.3776 27.7945 38.3472C27.7698 38.3167 27.748 38.2842 27.729 38.2496C27.7101 38.2155 27.6945 38.1793 27.6817 38.1422C27.6694 38.1048 27.6603 38.0669 27.6545 38.0278C27.6492 37.9891 27.6467 37.95 27.6484 37.9109C27.6496 37.8714 27.6545 37.8328 27.6628 37.7945C27.671 37.7558 27.6829 37.7188 27.6978 37.6821C27.7126 37.6459 27.7311 37.6114 27.7521 37.5784C27.7735 37.5451 27.7973 37.5142 27.8241 37.4854C27.8508 37.457 27.8801 37.4307 27.9113 37.4072C27.943 37.3838 27.9764 37.3632 28.0113 37.3455C28.0463 37.3282 28.0829 37.3138 28.1204 37.3027C28.3805 37.2245 28.6389 37.1406 28.8949 37.0509C29.1512 36.9612 29.4056 36.8657 29.6574 36.7649C29.9093 36.6636 30.1591 36.557 30.4064 36.4447C30.6537 36.3328 30.8982 36.2151 31.1405 36.092C31.3825 35.969 31.6216 35.8406 31.8578 35.7068C32.0944 35.5731 32.3274 35.434 32.5578 35.29C32.7879 35.1459 33.0146 34.9965 33.2381 34.8422C33.4615 34.6879 33.6817 34.5291 33.8981 34.3649C34.1146 34.2007 34.327 34.0319 34.536 33.8583C34.7451 33.685 34.95 33.5068 35.1508 33.3241C35.3521 33.1414 35.5488 32.9546 35.7414 32.7632C35.9339 32.5714 36.1224 32.376 36.3064 32.176C36.4903 31.9764 36.6697 31.7727 36.8446 31.5649C37.0195 31.357 37.1895 31.1451 37.3549 30.9299C37.5204 30.7147 37.6813 30.4953 37.8368 30.2731C37.9924 30.0505 38.1434 29.8245 38.2891 29.5953C38.4343 29.3661 38.5751 29.1336 38.7105 28.8978C38.8459 28.6624 38.9755 28.4241 39.1002 28.1826C39.2249 27.9414 39.3442 27.6974 39.4582 27.4509C39.5722 27.204 39.6804 26.955 39.7833 26.7036C39.8858 26.4521 39.9829 26.1986 40.0747 25.9427C40.166 25.6867 40.2516 25.4291 40.3319 25.1694C40.4117 24.9102 40.4858 24.6488 40.5541 24.3859C40.6228 24.1229 40.685 23.8587 40.7418 23.5929C40.7985 23.327 40.8492 23.0604 40.8936 22.7925C40.9385 22.5241 40.9771 22.2554 41.0101 21.9859C41.0426 21.7163 41.0693 21.446 41.0903 21.1748C41.1109 20.904 41.1257 20.6328 41.1343 20.3612C41.143 20.0896 41.1459 19.818 41.1422 19.5464C41.1389 19.2748 41.1294 19.0036 41.1138 18.7324C41.0985 18.4608 41.0767 18.19 41.0492 17.92C41.0216 17.6497 40.9883 17.3801 40.9487 17.1114C40.9092 16.8427 40.8636 16.5748 40.8121 16.3081C40.7607 16.0415 40.7031 15.7756 40.6401 15.5114C40.5767 15.2472 40.5076 14.9847 40.4327 14.7238C40.3578 14.4624 40.2767 14.2032 40.1903 13.9456C40.1039 13.6884 40.0117 13.4328 39.9138 13.1793C39.8158 12.9258 39.7125 12.6748 39.6035 12.4258C39.4944 12.1773 39.3796 11.9308 39.2599 11.6871C39.1397 11.4435 39.0142 11.2028 38.8837 10.9645C38.7529 10.7267 38.6171 10.4913 38.4755 10.2592C38.3344 10.0275 38.1883 9.79867 38.0368 9.57316C37.8854 9.34764 37.729 9.12542 37.5677 8.9069C37.4064 8.68838 37.2405 8.47357 37.0697 8.26205C36.899 8.05094 36.7232 7.84394 36.5434 7.64065C36.3632 7.43695 36.1788 7.23777 35.9899 7.04271C35.801 6.84765 35.6076 6.6567 35.4105 6.47028C35.213 6.28386 35.0113 6.10197 34.806 5.92419C34.6002 5.74683 34.3912 5.57399 34.178 5.40568C33.9644 5.23737 33.7479 5.07399 33.5274 4.91556C33.3068 4.75712 33.0829 4.60362 32.8558 4.45506C32.6282 4.3065 32.3977 4.16288 32.164 4.02461C31.9303 3.88634 31.6936 3.75342 31.4541 3.62544C31.2146 3.49786 30.9722 3.37523 30.727 3.25836C30.4821 3.14149 30.2344 3.02996 29.9842 2.9242C29.7344 2.81844 29.4821 2.71803 29.2274 2.62338C28.9731 2.52873 28.7167 2.43984 28.4582 2.3563C28.1998 2.27318 27.9397 2.19581 27.6776 2.1242C27.4159 2.0526 27.1525 1.98676 26.8875 1.92667C26.6229 1.867 26.3566 1.81268 26.0895 1.76495C25.822 1.7168 25.5541 1.67482 25.285 1.63861C25.0159 1.6024 24.7459 1.57235 24.4755 1.54807C24.2052 1.52421 23.9344 1.5061 23.6632 1.49417C23.392 1.48223 23.1204 1.47606 22.8488 1.47606C22.6072 1.47524 22.3657 1.47935 22.1241 1.48799C21.8825 1.49705 21.6414 1.51063 21.4002 1.52873C21.1591 1.54725 20.9188 1.5703 20.6784 1.59828C20.4385 1.62626 20.199 1.65919 19.9603 1.69663C19.7216 1.73408 19.4838 1.77647 19.2463 1.82338C19.0093 1.87071 18.7735 1.92215 18.5381 1.97853C18.3031 2.03532 18.0694 2.09622 17.8369 2.16207C17.6044 2.2275 17.3731 2.29787 17.1431 2.37318C16.9134 2.44807 16.685 2.5275 16.4587 2.61145C16.2319 2.6954 16.0068 2.78429 15.7838 2.87729C15.5608 2.97029 15.3398 3.06741 15.1204 3.16947C14.9011 3.27112 14.6838 3.37729 14.469 3.48799C14.2538 3.59827 14.0414 3.71309 13.8307 3.83202C13.6204 3.95095 13.4122 4.07399 13.2068 4.20157C13.0011 4.32873 12.7982 4.46 12.5982 4.59539C12.3978 4.73078 12.2003 4.86988 12.0052 5.01309C11.8106 5.1563 11.6188 5.30362 11.4299 5.45424C11.241 5.60527 11.055 5.75959 10.8723 5.91802C10.6896 6.07646 10.5101 6.23819 10.3336 6.40362C10.1575 6.56905 9.98422 6.73777 9.81467 6.9102C9.64513 7.08263 9.47887 7.25835 9.31632 7.43695C9.15377 7.61596 8.99492 7.79826 8.83937 7.98345C8.68423 8.16863 8.53237 8.35711 8.38464 8.54847C8.2369 8.73982 8.09287 8.93406 7.95254 9.13077C7.81262 9.32789 7.67641 9.52789 7.54431 9.73036C7.41221 9.93283 7.28382 10.1378 7.15995 10.3456C7.03608 10.553 6.91592 10.7629 6.80028 10.9752C6.68464 11.1876 6.57353 11.4024 6.46612 11.6192C6.35913 11.8361 6.25625 12.0546 6.15789 12.2756C6.05954 12.4966 5.96571 12.7192 5.876 12.9439C5.78629 13.1686 5.70152 13.395 5.62086 13.6229C5.54061 13.8513 5.46448 14.0806 5.39288 14.3118C5.38012 14.353 5.36366 14.3925 5.34308 14.4303C5.32251 14.4682 5.29823 14.504 5.27065 14.5369C5.24308 14.5703 5.21263 14.6003 5.17888 14.6275C5.14555 14.6546 5.10934 14.6781 5.07148 14.6982C5.03321 14.718 4.99329 14.7345 4.95214 14.7464C4.91057 14.7587 4.8686 14.767 4.8258 14.7707C4.78259 14.7748 4.73979 14.7744 4.69699 14.7698C4.65419 14.7653 4.61181 14.7567 4.57066 14.7435C4.5295 14.7308 4.49 14.7143 4.45214 14.6933C4.41428 14.6727 4.37889 14.6489 4.34596 14.6213C4.31263 14.5933 4.28259 14.5629 4.25543 14.5295C4.22827 14.4958 4.20481 14.46 4.18465 14.4217C4.16448 14.3834 4.14843 14.3439 4.1365 14.3024C4.12415 14.2608 4.11592 14.2188 4.11222 14.176C4.10811 14.1328 4.10852 14.09 4.11304 14.0472C4.11757 14.004 4.12621 13.962 4.13938 13.9209C4.2258 13.6443 4.31839 13.3694 4.41716 13.097C4.51592 12.8246 4.62086 12.5542 4.73156 12.2863C4.84226 12.0184 4.95913 11.753 5.08135 11.4904C5.20399 11.2275 5.33238 10.9678 5.46613 10.7106C5.60028 10.4534 5.73979 10.1995 5.88506 9.94888C6.03032 9.69785 6.18135 9.45052 6.33732 9.20608C6.4937 8.96205 6.65542 8.72131 6.82209 8.48468C6.98917 8.24765 7.16118 8.01431 7.33855 7.78509C7.51592 7.55547 7.69781 7.33036 7.88505 7.10896C8.07229 6.88757 8.26447 6.67069 8.46118 6.45794C8.6583 6.24518 8.85953 6.03695 9.06571 5.83325C9.27188 5.62955 9.48216 5.43037 9.69739 5.23572C9.91221 5.04107 10.1311 4.85177 10.3546 4.667C10.578 4.48222 10.8052 4.30239 11.0365 4.1279C11.2678 3.95301 11.5027 3.78346 11.7414 3.61926C11.9801 3.45507 12.2225 3.29622 12.4686 3.14272C12.7143 2.98922 12.9632 2.84149 13.2159 2.6991C13.4682 2.55671 13.7233 2.41968 13.9817 2.28881C14.2402 2.15754 14.5015 2.03244 14.7657 1.91268C15.0295 1.79334 15.2961 1.67976 15.5653 1.57194C15.834 1.46412 16.1056 1.36248 16.3789 1.26701C16.6525 1.17112 16.9278 1.08182 17.2056 0.998282C17.483 0.914743 17.7624 0.837789 18.043 0.766596C18.3241 0.695814 18.6064 0.630793 18.8904 0.572357C19.1739 0.513921 19.4591 0.461658 19.7451 0.415979C20.0311 0.369889 20.3179 0.330383 20.606 0.297461C20.8937 0.264128 21.1821 0.237379 21.4714 0.217214C21.7603 0.196638 22.0496 0.183058 22.3393 0.175651C22.629 0.167832 22.9188 0.167009 23.2085 0.172358C23.4982 0.177708 23.7875 0.189231 24.0768 0.207749C24.3661 0.225856 24.6546 0.250547 24.9426 0.281412C25.2307 0.312276 25.5179 0.349724 25.8043 0.393757C26.0908 0.437378 26.3764 0.487584 26.6603 0.543962C26.9447 0.600341 27.2274 0.662892 27.5089 0.732028C27.7903 0.800752 28.0702 0.87606 28.3484 0.957542C28.6261 1.03902 28.9027 1.12627 29.1768 1.22009C29.4508 1.31351 29.7229 1.41351 29.9928 1.51927C30.2628 1.62462 30.5298 1.73655 30.7949 1.85384C31.0595 1.97153 31.3216 2.09499 31.5813 2.2242C31.8405 2.35342 32.0969 2.4884 32.3504 2.62873C32.6039 2.76947 32.8541 2.91556 33.101 3.06741C33.3479 3.21885 33.5912 3.37605 33.8315 3.5386C34.0714 3.70074 34.3076 3.86864 34.5401 4.04148C34.7726 4.21473 35.001 4.39251 35.2257 4.57564C35.4504 4.75877 35.671 4.94683 35.8874 5.13983C36.1035 5.33243 36.3154 5.53037 36.5232 5.73243C36.7307 5.93489 36.9335 6.14148 37.1323 6.353C37.3307 6.56411 37.5241 6.77975 37.713 6.99991C37.9018 7.21966 38.0858 7.44353 38.2648 7.67151C38.4434 7.8995 38.6175 8.1316 38.7858 8.3674C38.9545 8.6032 39.1179 8.8427 39.2759 9.0855C39.4339 9.32871 39.5866 9.5748 39.7339 9.8246C39.8808 10.0744 40.0224 10.3275 40.1582 10.5834C40.294 10.8394 40.4245 11.0987 40.5487 11.3604C40.673 11.6221 40.792 11.8867 40.9043 12.1538C41.0171 12.4209 41.1241 12.6904 41.2249 12.962C41.3253 13.2341 41.4203 13.5077 41.5088 13.7838C41.5973 14.06 41.68 14.3378 41.7562 14.6176C41.8327 14.8974 41.9027 15.1785 41.9664 15.4612C42.0302 15.7439 42.0878 16.0283 42.1393 16.3135C42.1903 16.5991 42.2352 16.8851 42.2738 17.1727C42.3125 17.46 42.3446 17.748 42.3706 18.0369C42.3961 18.3254 42.4158 18.6147 42.4286 18.9044C42.4417 19.1941 42.4483 19.4838 42.4483 19.774C42.4471 20.0349 42.4409 20.2958 42.4294 20.5563C42.4179 20.8172 42.401 21.0777 42.3792 21.3373C42.3574 21.5974 42.3306 21.8571 42.2985 22.1159C42.2664 22.3752 42.229 22.6332 42.1866 22.8908C42.1442 23.1484 42.0969 23.4048 42.0442 23.6604C41.992 23.9163 41.9343 24.1706 41.8718 24.4241C41.8092 24.6772 41.7413 24.9295 41.6689 25.1801C41.5961 25.4307 41.5187 25.6797 41.436 25.9274C41.3537 26.1752 41.2664 26.4208 41.1743 26.6649C41.0821 26.9089 40.985 27.1513 40.8829 27.3916C40.7813 27.632 40.6747 27.8698 40.5632 28.106C40.452 28.3418 40.336 28.5756 40.2158 28.8073C40.0952 29.0385 39.9701 29.2673 39.8405 29.4941C39.7109 29.7204 39.5767 29.9443 39.438 30.1653C39.2998 30.3867 39.157 30.6048 39.0097 30.8204C38.8627 31.0357 38.7113 31.2484 38.5557 31.4579C38.4002 31.6673 38.2405 31.8735 38.0767 32.0768C37.913 32.2797 37.7455 32.4797 37.5734 32.676C37.4018 32.8727 37.2265 33.0657 37.0471 33.255C36.8677 33.4447 36.685 33.6303 36.4981 33.8126C36.3113 33.9949 36.1212 34.1735 35.9274 34.348C35.7335 34.5229 35.5364 34.6937 35.336 34.8603C35.1356 35.0274 34.9315 35.19 34.7245 35.3488C34.5175 35.5077 34.3076 35.6624 34.0944 35.8126C33.8813 35.9632 33.6652 36.1093 33.4463 36.2513C33.2274 36.3932 33.006 36.5307 32.7817 36.6636C32.557 36.7965 32.3303 36.9253 32.1006 37.0492C31.8714 37.1735 31.6393 37.2928 31.4052 37.4076C31.171 37.5225 30.9348 37.6328 30.6961 37.7381C30.4574 37.8439 30.2171 37.9443 29.9743 38.0402C29.7319 38.1365 29.4875 38.2274 29.2414 38.3134C28.9953 38.3998 28.7475 38.4813 28.4982 38.5574C28.436 38.578 28.3726 38.5887 28.3076 38.5904Z" fill="#092C4C"/>
</g>
<path d="M25.0326 29.5055H20.7129C20.6051 29.5055 20.4985 29.4948 20.3927 29.4738C20.287 29.4528 20.1845 29.4216 20.0849 29.3804C19.9853 29.3393 19.8907 29.2886 19.801 29.2286C19.7112 29.1689 19.6285 29.1006 19.5524 29.0244C19.4763 28.9483 19.408 28.8652 19.3483 28.7755C19.2882 28.6862 19.238 28.5915 19.1964 28.4915C19.1553 28.3919 19.124 28.2895 19.103 28.1837C19.082 28.0779 19.0717 27.9709 19.0717 27.8631V23.5541H14.7652C14.6574 23.5541 14.5508 23.5434 14.445 23.5224C14.3392 23.5014 14.2368 23.4701 14.1372 23.429C14.0376 23.3878 13.943 23.3372 13.8532 23.2771C13.7635 23.2175 13.6808 23.1491 13.6047 23.073C13.5285 22.9969 13.4602 22.9138 13.4006 22.824C13.3405 22.7347 13.2899 22.6401 13.2487 22.5401C13.2076 22.4405 13.1763 22.338 13.1553 22.2323C13.1343 22.1265 13.124 22.0195 13.124 21.9117V17.5895C13.124 17.4817 13.1343 17.3751 13.1553 17.2693C13.1763 17.1636 13.2076 17.0607 13.2487 16.9611C13.2899 16.8615 13.3405 16.7669 13.4006 16.6771C13.4602 16.5874 13.5285 16.5047 13.6047 16.4282C13.6808 16.352 13.7635 16.2841 13.8532 16.2241C13.943 16.164 14.0376 16.1138 14.1372 16.0722C14.2368 16.0311 14.3392 15.9998 14.445 15.9788C14.5508 15.9578 14.6574 15.9471 14.7652 15.9471H19.0717V11.6381C19.0717 11.5302 19.082 11.4237 19.103 11.3179C19.124 11.2121 19.1553 11.1093 19.1964 11.0097C19.238 10.9101 19.2882 10.8154 19.3483 10.7257C19.408 10.636 19.4763 10.5533 19.5524 10.4768C19.6285 10.4006 19.7112 10.3327 19.801 10.2726C19.8907 10.2126 19.9853 10.1623 20.0849 10.1208C20.1845 10.0796 20.287 10.0484 20.3927 10.0274C20.4985 10.0064 20.6051 9.99609 20.7129 9.99609H25.0326C25.1405 9.99609 25.247 10.0064 25.3528 10.0274C25.4586 10.0484 25.561 10.0796 25.6606 10.1208C25.7602 10.1623 25.8549 10.2126 25.9442 10.2726C26.0339 10.3327 26.117 10.4006 26.1931 10.4768C26.2693 10.5533 26.3372 10.636 26.3972 10.7257C26.4569 10.8154 26.5075 10.9101 26.5487 11.0097C26.5898 11.1093 26.6211 11.2121 26.6421 11.3179C26.6631 11.4237 26.6738 11.5302 26.6738 11.6381V15.9471H30.9804C31.0882 15.9471 31.1948 15.9578 31.3005 15.9788C31.4063 15.9998 31.5087 16.0311 31.6083 16.0722C31.7079 16.1138 31.8026 16.164 31.8919 16.2241C31.9816 16.2841 32.0647 16.352 32.1408 16.4282C32.217 16.5047 32.2849 16.5874 32.345 16.6771C32.4046 16.7669 32.4552 16.8615 32.4964 16.9611C32.538 17.0607 32.5688 17.1636 32.5898 17.2693C32.6108 17.3751 32.6215 17.4817 32.6215 17.5895V21.9117C32.6215 22.0195 32.6108 22.1265 32.5898 22.2323C32.5688 22.338 32.538 22.4405 32.4964 22.5401C32.4552 22.6401 32.4046 22.7347 32.345 22.824C32.2849 22.9138 32.217 22.9969 32.1408 23.073C32.0647 23.1491 31.9816 23.2175 31.8919 23.2771C31.8026 23.3372 31.7079 23.3878 31.6083 23.429C31.5087 23.4701 31.4063 23.5014 31.3005 23.5224C31.1948 23.5434 31.0882 23.5541 30.9804 23.5541H26.6738V27.8631C26.6738 27.9709 26.6631 28.0779 26.6421 28.1837C26.6211 28.2895 26.5898 28.3919 26.5487 28.4915C26.5075 28.5915 26.4569 28.6862 26.3972 28.7755C26.3372 28.8652 26.2693 28.9483 26.1931 29.0244C26.117 29.1006 26.0339 29.1689 25.9442 29.2286C25.8549 29.2886 25.7602 29.3393 25.6606 29.3804C25.561 29.4216 25.4586 29.4528 25.3528 29.4738C25.247 29.4948 25.1405 29.5055 25.0326 29.5055ZM14.7652 17.2611C14.7216 17.2611 14.6796 17.2693 14.6397 17.2862C14.5993 17.3027 14.5639 17.3265 14.5331 17.3574C14.5022 17.3883 14.4783 17.4236 14.4619 17.464C14.445 17.5039 14.4368 17.5459 14.4368 17.5895V21.9117C14.4368 21.9553 14.445 21.9973 14.4619 22.0376C14.4783 22.078 14.5022 22.1133 14.5331 22.1442C14.5639 22.1751 14.5993 22.1985 14.6397 22.2154C14.6796 22.2319 14.7216 22.2401 14.7652 22.2401H19.7281C19.7713 22.2401 19.8137 22.2446 19.8561 22.2529C19.8985 22.2615 19.9396 22.2738 19.9791 22.2903C20.0191 22.3068 20.0569 22.3269 20.0927 22.3508C20.1285 22.3751 20.1619 22.4022 20.1923 22.4327C20.2228 22.4631 20.2499 22.4965 20.2738 22.5323C20.2981 22.5681 20.3182 22.6059 20.3347 22.6459C20.3512 22.6858 20.3635 22.7269 20.3722 22.7689C20.3804 22.8113 20.3845 22.8541 20.3845 22.8973V27.8631C20.3845 27.9067 20.3927 27.9487 20.4096 27.989C20.4261 28.0294 20.4499 28.0648 20.4808 28.0956C20.5117 28.1261 20.547 28.15 20.5874 28.1668C20.6273 28.1833 20.6693 28.1915 20.7129 28.1915H25.0326C25.0758 28.1915 25.1178 28.1833 25.1581 28.1668C25.1985 28.15 25.2339 28.1261 25.2647 28.0956C25.2956 28.0648 25.3191 28.0294 25.3359 27.989C25.3524 27.9487 25.3606 27.9067 25.3606 27.8631V22.8973C25.3606 22.8541 25.3651 22.8113 25.3734 22.7689C25.3816 22.7269 25.3944 22.6858 25.4108 22.6459C25.4273 22.6059 25.4474 22.5681 25.4713 22.5323C25.4952 22.4965 25.5228 22.4631 25.5532 22.4327C25.5837 22.4022 25.6166 22.3751 25.6524 22.3508C25.6882 22.3269 25.726 22.3068 25.766 22.2903C25.8059 22.2738 25.847 22.2615 25.889 22.2529C25.9314 22.2446 25.9742 22.2401 26.0174 22.2401H30.9804C31.024 22.2401 31.0655 22.2319 31.1059 22.2154C31.1462 22.1985 31.1816 22.1751 31.2125 22.1442C31.2433 22.1133 31.2668 22.078 31.2836 22.0376C31.3001 21.9973 31.3083 21.9553 31.3083 21.9117V17.5895C31.3083 17.5459 31.3001 17.5039 31.2836 17.464C31.2668 17.4236 31.2433 17.3883 31.2125 17.3574C31.1816 17.3265 31.1462 17.3027 31.1059 17.2862C31.0655 17.2693 31.024 17.2611 30.9804 17.2611H26.0174C25.9742 17.2611 25.9314 17.257 25.889 17.2483C25.847 17.2401 25.8059 17.2278 25.766 17.2109C25.726 17.1944 25.6882 17.1743 25.6524 17.1504C25.6166 17.1265 25.5837 17.0994 25.5532 17.0685C25.5228 17.0381 25.4952 17.0051 25.4713 16.9693C25.4474 16.9331 25.4273 16.8953 25.4108 16.8557C25.3944 16.8158 25.3816 16.7747 25.3734 16.7323C25.3651 16.6899 25.3606 16.6475 25.3606 16.6043V11.6381C25.3606 11.5944 25.3524 11.5525 25.3359 11.5126C25.3191 11.4722 25.2956 11.4368 25.2647 11.406C25.2339 11.3751 25.1985 11.3512 25.1581 11.3348C25.1178 11.3179 25.0758 11.3097 25.0326 11.3097H20.7129C20.6693 11.3097 20.6273 11.3179 20.5874 11.3348C20.547 11.3512 20.5117 11.3751 20.4808 11.406C20.4499 11.4368 20.4261 11.4722 20.4096 11.5126C20.3927 11.5525 20.3845 11.5944 20.3845 11.6381V16.6043C20.3845 16.6475 20.3804 16.6899 20.3722 16.7323C20.3635 16.7747 20.3512 16.8158 20.3347 16.8557C20.3182 16.8953 20.2981 16.9331 20.2738 16.9693C20.2499 17.0051 20.2228 17.0381 20.1923 17.0685C20.1619 17.0994 20.1285 17.1265 20.0927 17.1504C20.0569 17.1743 20.0191 17.1944 19.9791 17.2109C19.9396 17.2278 19.8985 17.2401 19.8561 17.2483C19.8137 17.257 19.7713 17.2611 19.7281 17.2611H14.7652Z" fill="#092C4C"/>
<path d="M24.0081 33.8636C22.1275 31.9784 19.5571 30.4969 18.3493 31.6697C17.6596 32.2878 17.0798 32.9965 16.6098 33.7944C15.1555 33.4265 13.3534 32.287 11.8041 30.7368C10.2547 29.1866 9.20119 27.5344 8.7909 26.1089C9.2123 25.864 9.60118 25.5755 9.95715 25.2426C10.3135 24.9101 10.6283 24.5422 10.9016 24.1385C12.0078 22.9134 10.537 20.3776 8.67279 18.5122C6.80819 16.6463 4.19873 15.1389 2.9975 16.3443C2.9975 16.3443 2.97116 16.3772 2.95799 16.3904L2.9119 16.4299C1.70409 17.6352 0.335366 19.3266 0.433719 21.7113C0.601209 25.5014 3.38803 30.5331 7.69131 34.8487C12.4115 39.5751 17.2003 42.2026 20.9785 42.2026C21.2258 42.2026 21.4699 42.1919 21.7106 42.1697C23.404 42.0055 25.0324 40.6985 26.0991 39.631C26.0991 39.631 26.1254 39.5981 26.1386 39.5849L26.1843 39.5459C27.3859 38.3401 25.8987 35.7553 24.0081 33.8636ZM21.5826 40.8594C18.1588 41.1911 13.3008 38.5899 8.63987 33.9129C4.59914 29.8862 1.90121 25.0743 1.74688 21.6521C1.66458 19.7834 2.82013 18.3677 3.83453 17.3591C3.83453 17.3591 3.86087 17.3266 3.87363 17.3134L3.91972 17.2739C3.96252 17.2311 4.30367 17.1426 5.1049 17.5105C6.08926 18.0093 6.96457 18.6562 7.73082 19.4513C9.50653 21.2282 10.0283 22.736 9.94645 23.1694C9.9016 23.1648 9.85674 23.1648 9.81188 23.1694C9.1551 23.1694 8.01641 22.3648 6.42753 20.7751C5.83124 20.1883 5.31148 19.5401 4.86828 18.8307C4.84605 18.7936 4.82013 18.7595 4.79091 18.7278C4.76169 18.6957 4.73 18.6673 4.69502 18.6418C4.66005 18.6163 4.62342 18.5945 4.58433 18.5764C4.54482 18.5578 4.50449 18.5439 4.46251 18.5336C4.42054 18.5233 4.37815 18.5175 4.33494 18.5155C4.29215 18.5138 4.24894 18.5159 4.20655 18.5225C4.16375 18.5294 4.12219 18.5401 4.08186 18.555C4.04112 18.5698 4.00243 18.5883 3.96581 18.6105C3.92877 18.6332 3.89462 18.6587 3.86293 18.6879C3.83083 18.7171 3.80243 18.7492 3.77692 18.7842C3.75141 18.8187 3.7296 18.8558 3.71149 18.8949C3.69338 18.9344 3.67898 18.9747 3.66869 19.0167C3.6584 19.0587 3.65264 19.1011 3.65058 19.1443C3.64894 19.1875 3.65141 19.2303 3.65799 19.2731C3.66457 19.3155 3.67527 19.357 3.69009 19.3978C3.7049 19.4381 3.72342 19.4768 3.74564 19.5138C4.24359 20.3142 4.82795 21.0455 5.49873 21.708C6.60819 22.8179 7.85551 23.948 9.00736 24.3356C8.50859 24.7986 7.8588 25.2253 7.18267 25.2253C7.13946 25.2253 7.09666 25.2298 7.05428 25.2381C7.0123 25.2467 6.97115 25.2591 6.93123 25.2755C6.89131 25.292 6.85346 25.3121 6.81765 25.336C6.78185 25.3603 6.74893 25.3875 6.71848 25.4179C6.68761 25.4484 6.66045 25.4817 6.63658 25.5175C6.61271 25.5533 6.59255 25.5912 6.57609 25.6311C6.55963 25.671 6.54687 25.7117 6.53864 25.7541C6.53041 25.7965 6.52588 25.8393 6.52588 25.8825C6.52588 25.9253 6.53041 25.9681 6.53864 26.0105C6.54687 26.0529 6.55963 26.094 6.57609 26.134C6.59255 26.1735 6.61271 26.2113 6.63658 26.2471C6.66045 26.2833 6.68761 26.3163 6.71848 26.3467C6.74893 26.3772 6.78185 26.4047 6.81765 26.4286C6.85346 26.4525 6.89131 26.4726 6.93123 26.4891C6.97115 26.5056 7.0123 26.5183 7.05428 26.5265C7.09666 26.5352 7.13946 26.5393 7.18267 26.5393C7.29214 26.5389 7.4016 26.5323 7.51065 26.5196C7.99666 28.1619 9.20448 30.0438 10.8423 31.6792C12.5263 33.3644 14.453 34.5862 16.1205 35.0459C16.0962 35.1817 16.0831 35.3187 16.081 35.4566C16.081 35.4998 16.0855 35.5422 16.0938 35.5845C16.102 35.6269 16.1147 35.6681 16.1312 35.708C16.1477 35.7479 16.1678 35.7858 16.1917 35.8216C16.2156 35.8574 16.2427 35.8903 16.2736 35.9212C16.304 35.9516 16.337 35.9788 16.3728 36.0027C16.4086 36.0265 16.4464 36.0471 16.4864 36.0636C16.5263 36.08 16.5674 36.0924 16.6094 36.1006C16.6518 36.1092 16.6946 36.1134 16.7378 36.1134C16.7806 36.1134 16.8234 36.1092 16.8658 36.1006C16.9082 36.0924 16.9489 36.08 16.9888 36.0636C17.0287 36.0471 17.0666 36.0265 17.1024 36.0027C17.1382 35.9788 17.1715 35.9516 17.202 35.9212C17.2324 35.8903 17.2596 35.8574 17.2835 35.8216C17.3073 35.7858 17.3275 35.7479 17.344 35.708C17.3604 35.6681 17.3732 35.6269 17.3814 35.5845C17.3901 35.5422 17.3942 35.4998 17.3942 35.4566C17.3942 34.5763 18.5003 33.2722 19.1995 32.6582L19.2291 32.6286C19.439 32.4183 21.0802 32.8389 23.0497 34.8064C23.8444 35.5726 24.4909 36.4487 24.9896 37.4339C25.3571 38.2352 25.2686 38.58 25.2258 38.6195C25.1834 38.659 25.1995 38.6524 25.1867 38.6656C25.1431 38.6689 25.1003 38.6763 25.0588 38.6882C24.632 38.8133 23.0497 37.8508 21.5728 36.3895C20.9765 35.8027 20.4567 35.1545 20.0135 34.445C19.9909 34.408 19.9654 34.3738 19.9361 34.3418C19.9069 34.3101 19.8748 34.2813 19.8403 34.2557C19.8053 34.2302 19.7682 34.2084 19.7291 34.1903C19.69 34.1722 19.6497 34.1578 19.6077 34.1475C19.5658 34.1372 19.5234 34.1315 19.4802 34.1294C19.437 34.1278 19.3942 34.1302 19.3514 34.1368C19.309 34.1434 19.2674 34.1541 19.2267 34.1689C19.1863 34.1837 19.1477 34.2022 19.1106 34.2245C19.074 34.2471 19.0394 34.273 19.0077 34.3022C18.9761 34.3315 18.9473 34.3632 18.9217 34.3981C18.8962 34.4331 18.8744 34.4701 18.8563 34.5092C18.8382 34.5483 18.8238 34.5887 18.8139 34.6306C18.8036 34.6726 18.7975 34.7154 18.7958 34.7586C18.7938 34.8014 18.7962 34.8446 18.8028 34.887C18.8094 34.9298 18.8201 34.9714 18.8349 35.0121C18.8497 35.0525 18.8687 35.0911 18.8909 35.1282C19.3888 35.9286 19.9732 36.6599 20.6435 37.322C21.1691 37.8475 22.6131 39.2039 23.946 39.7689C23.2501 40.2977 22.3999 40.7804 21.5826 40.8594Z" fill="#092C4C"/>
</svg>
