<svg width="43" height="41" viewBox="0 0 43 41" fill="none" xmlns="http://www.w3.org/2000/svg">
<mask id="mask0_334_3998" style="mask-type:luminance" maskUnits="userSpaceOnUse" x="0" y="0" width="43" height="41">
<path d="M0.467773 0.674316H42.4878V40.6035H0.467773V0.674316Z" fill="white"/>
</mask>
<g mask="url(#mask0_334_3998)">
<path d="M21.4497 15.0619C22.9027 15.0619 24.0843 13.8798 24.0843 12.4269C24.0843 10.9735 22.9027 9.79145 21.4497 9.79145C19.9971 9.79145 18.8155 10.9735 18.8155 12.4269C18.8155 13.8798 19.9971 15.0619 21.4497 15.0619ZM21.4497 10.8345C22.3274 10.8345 23.0417 11.5488 23.0417 12.4269C23.0417 13.3045 22.3274 14.0189 21.4497 14.0189C20.5724 14.0189 19.8581 13.3045 19.8581 12.4269C19.8581 11.5488 20.5724 10.8345 21.4497 10.8345ZM41.8673 23.7422C40.8645 22.1474 38.7514 21.6669 37.157 22.6705L33.2439 25.1334V14.8471C33.9814 14.9471 34.7523 14.6691 35.2499 14.0476L35.3248 13.9535C35.6897 13.4982 35.8554 12.9265 35.7913 12.344C35.7272 11.7619 35.4411 11.2396 34.9849 10.8743L22.9497 1.22666C22.0668 0.519499 20.833 0.519499 19.9493 1.22666L7.91289 10.8743C6.97027 11.6297 6.81809 13.0117 7.57305 13.9535L7.64795 14.0476C8.07982 14.5874 8.71646 14.8671 9.35948 14.8671C9.45788 14.8671 9.55668 14.8583 9.65509 14.8452V25.7314L6.65673 27.5151L5.793 26.0637C5.72249 25.9446 5.60695 25.8585 5.47309 25.8246C5.33923 25.7908 5.197 25.8115 5.07867 25.882L0.765599 28.4501C0.638111 28.5258 0.549268 28.6525 0.520584 28.7975C0.491899 28.9429 0.52656 29.0939 0.616199 29.2122L9.06068 40.3945C9.16227 40.5296 9.31804 40.6017 9.47701 40.6017C9.56824 40.6017 9.66027 40.5782 9.74353 40.5284L12.7359 38.7459C12.9837 38.5981 13.0646 38.2786 12.9176 38.0316L11.8586 36.2528L13.9618 35.0384L23.6855 37.485C24.0947 37.5886 24.4979 37.6396 24.8931 37.6396C25.7612 37.6396 26.5934 37.3922 27.3771 36.8986L40.796 28.4525C41.5657 27.9684 42.1012 27.2107 42.3035 26.3183C42.5059 25.4254 42.3513 24.5111 41.8673 23.7422ZM8.46188 13.3958L8.38738 13.3018C7.99217 12.8081 8.07105 12.0842 8.56547 11.6878L20.6019 2.04019C20.8557 1.83701 21.1525 1.73502 21.4497 1.73502C21.7469 1.73502 22.0441 1.83701 22.2979 2.04019L34.3344 11.6878C34.5722 11.8791 34.7224 12.152 34.7555 12.4579C34.7893 12.7639 34.7025 13.0627 34.5116 13.3018L34.4367 13.3958C34.0415 13.8894 33.3176 13.9695 32.8232 13.5739L21.7756 4.71783C21.5856 4.56485 21.3143 4.56485 21.1238 4.71783L10.0754 13.5731C9.58218 13.9695 8.85829 13.8894 8.46188 13.3958ZM10.6977 14.4089C10.7073 14.4013 10.7176 14.3954 10.7272 14.3874L21.4497 5.79311L32.1726 14.3874C32.1822 14.3954 32.1926 14.4021 32.2021 14.4101V25.7888L27.6918 28.6274C27.8723 27.3386 27.2018 26.1095 26.0556 25.5274V18.4547C26.0556 18.167 25.8221 17.9331 25.5345 17.9331H17.3653C17.0777 17.9331 16.8438 18.167 16.8438 18.4547V23.2466C15.294 22.9825 13.8108 23.2617 12.4291 24.0828L10.6977 25.1127V14.4089ZM25.013 25.1876L17.8868 23.4789V18.9762H25.013V25.1876ZM9.61087 39.3953L1.79785 29.0489L5.16313 27.0445L11.7535 38.1177L9.61087 39.3953ZM41.2868 26.0868C41.1462 26.7075 40.7741 27.2342 40.2406 27.5696L26.8229 36.0153C25.9313 36.5767 24.9616 36.7308 23.9401 36.4735L14.0116 33.9755C13.8801 33.9424 13.7415 33.9616 13.6239 34.0297L11.326 35.3568L7.19099 28.4099L12.9638 24.978C14.261 24.2063 15.606 24.0028 17.0741 24.3549L25.1086 26.2816C26.1903 26.5406 26.8612 27.5696 26.6361 28.623C26.4162 29.6509 25.3787 30.3158 24.2736 30.1333L18.0649 29.1138C17.7804 29.068 17.5123 29.26 17.4661 29.5441C17.4191 29.8286 17.6119 30.0971 17.8964 30.1429L24.105 31.1624C24.2851 31.1919 24.4632 31.2058 24.6393 31.2058C25.3301 31.2058 25.9811 30.9851 26.5058 30.6027L26.5074 30.6054L37.714 23.551C38.8219 22.8538 40.2892 23.1884 40.986 24.2956C41.3207 24.831 41.4275 25.4673 41.2868 26.0868Z" fill="#092C4C"/>
</g>
</svg>
