<svg width="43" height="45" viewBox="0 0 43 45" fill="none" xmlns="http://www.w3.org/2000/svg">
<mask id="mask0_334_3958" style="mask-type:luminance" maskUnits="userSpaceOnUse" x="0" y="8" width="43" height="37">
<path d="M0.0234375 8.16455H42.0434V44.496H0.0234375V8.16455Z" fill="white"/>
</mask>
<g mask="url(#mask0_334_3958)">
<path d="M37.9041 27.4704C37.7535 27.3197 37.5092 27.3197 37.3586 27.4704L36.5173 28.3104L34.4182 26.2122C34.2734 26.0678 34.0176 26.0678 33.8728 26.2122L33.2391 26.8454L32.9512 26.5579C32.3117 25.9197 31.9763 25.0363 32.0308 24.1347L32.0375 24.0307C32.0853 23.2397 31.7895 22.4663 31.2261 21.9108L26.3081 17.054L26.2399 16.9866L23.9224 14.6978C23.9153 14.6932 23.83 14.6087 23.83 14.6087C23.0045 13.7945 21.6681 13.802 20.8526 14.6279C20.489 14.9953 20.2984 15.4642 20.2614 15.9431C19.5603 15.3918 18.6104 15.3302 17.8664 15.7604C17.5665 13.9214 16.7106 12.2242 15.3663 10.8811C13.6716 9.1873 11.4182 8.25488 9.02199 8.25488C6.625 8.25488 4.37197 9.1873 2.6773 10.8811C0.982639 12.5741 0.0498047 14.8255 0.0498047 17.2212C0.0498047 19.6157 0.982639 21.8671 2.6773 23.5601C4.42647 25.308 6.72444 26.1822 9.02158 26.1822C10.5977 26.1818 12.1688 25.7603 13.568 24.9386L17.0056 28.372L13.2522 28C12.7117 27.8577 12.1463 27.9301 11.6586 28.2126C11.1714 28.4931 10.8236 28.9458 10.6792 29.4854C10.3676 30.6492 11.1993 31.6228 12.113 32.038L18.1186 34.6073C19.5873 35.2351 21.1884 35.2255 22.5098 34.5802C22.6413 34.5161 22.7699 34.4471 22.8955 34.3718L23.2425 34.1662C23.6274 33.9374 24.1171 33.9981 24.4342 34.3143L25.0995 34.9792L23.6848 36.393C23.5342 36.5437 23.5342 36.7875 23.6848 36.9381L25.7843 39.0359L24.9634 39.8556C24.891 39.928 24.8502 40.0258 24.8502 40.1281C24.8502 40.2305 24.891 40.3287 24.9634 40.4007L28.9485 44.3829C29.0239 44.4582 29.1225 44.4961 29.2211 44.4961C29.3201 44.4961 29.4187 44.4582 29.494 44.3829L41.8888 31.9972C42.0394 31.847 42.0394 31.6028 41.8888 31.4526L37.9041 27.4704ZM3.22277 23.0151C0.0252564 19.8205 0.0252564 14.6208 3.22277 11.4262C4.77223 9.8784 6.83137 9.02545 9.02199 9.02545C11.2122 9.02545 13.2718 9.8784 14.8208 11.4262C16.2109 12.815 16.9952 14.5829 17.1766 16.3999C16.9644 16.7166 16.8546 17.0785 16.8325 17.4468C16.0054 16.831 14.8283 16.8942 14.0819 17.6477C13.7403 17.9939 13.5435 18.4403 13.4969 18.9197L10.2544 15.693C9.5167 14.9545 8.38249 14.8205 7.55742 15.3722C7.02817 15.7259 6.68949 16.2892 6.62791 16.9163C6.56592 17.547 6.78519 18.1645 7.2308 18.6093L13.0051 24.376C9.88534 26.1073 5.869 25.66 3.22277 23.0151ZM24.9792 33.7697C24.6418 33.4323 24.1945 33.2575 23.7422 33.2575C23.4352 33.2575 23.1264 33.3382 22.8481 33.5038L22.5002 33.7102C22.3929 33.7739 22.2826 33.8325 22.1707 33.8879C21.0523 34.435 19.6859 34.4379 18.4223 33.8983L12.4246 31.3328C11.8055 31.0511 11.2284 30.4149 11.4244 29.6843C11.5155 29.3439 11.736 29.0577 12.0448 28.8792C12.3535 28.7015 12.7117 28.6545 13.1137 28.756L18.0033 29.2453C18.1648 29.2649 18.3204 29.1738 18.3903 29.0269C18.4602 28.88 18.4298 28.7048 18.3146 28.5896L7.77627 18.0642C7.49501 17.7825 7.35604 17.3918 7.39557 16.9924C7.43509 16.5888 7.64479 16.2418 7.98639 16.0138C8.50565 15.6643 9.23086 15.76 9.70935 16.2389L14.0273 20.5361C14.0531 20.5644 14.0731 20.5964 14.1002 20.6235L17.3547 23.8464C17.43 23.9208 17.5282 23.9579 17.6264 23.9579C17.7258 23.9579 17.8248 23.9192 17.9002 23.8435C18.0499 23.6928 18.0491 23.4482 17.8981 23.2984L14.6427 20.0755C14.3906 19.8263 14.2508 19.493 14.2479 19.1352C14.2458 18.7778 14.3818 18.442 14.6307 18.1899C15.1482 17.6673 15.9945 17.6615 16.5175 18.1778L17.4641 19.1152C17.4679 19.1194 17.6135 19.2629 17.6135 19.2629L19.7721 21.4007C19.9235 21.5505 20.1677 21.548 20.3175 21.3974C20.4677 21.2467 20.4665 21.0021 20.3155 20.8523L20.2689 20.8061C20.2601 20.7957 20.256 20.7824 20.246 20.7728L18.0096 18.571C17.4654 18.0334 17.4487 17.1647 17.9734 16.6338C18.4964 16.1041 19.3664 16.1091 19.911 16.6467L20.8193 17.5412C20.838 17.5616 20.8514 17.5845 20.8713 17.6045L22.6384 19.3386C22.7141 19.4123 22.8115 19.4493 22.9092 19.4493C23.0087 19.4493 23.1085 19.411 23.1843 19.3341C23.3336 19.1818 23.3311 18.938 23.1797 18.789L21.4131 17.0552C20.8892 16.5381 20.8842 15.6922 21.4014 15.1696C21.9186 14.6458 22.7657 14.6403 23.2879 15.1571L25.6853 17.5229L30.6836 22.4588C31.0888 22.8594 31.3018 23.4149 31.2673 23.9841L31.2611 24.0881C31.1928 25.2094 31.6102 26.3087 32.4057 27.103L32.6936 27.3905L25.6449 34.4342L24.9792 33.7697ZM29.2215 43.5653L25.7814 40.1281L26.4883 39.4225C26.5153 39.4062 26.5436 39.3933 26.5669 39.37L31.2548 34.6863C31.4055 34.5357 31.4055 34.2919 31.2548 34.1413C31.1038 33.9906 30.86 33.9906 30.7094 34.1413L26.3427 38.5042L24.5032 36.6656L34.1457 27.0297L36.2448 29.128C36.3954 29.2782 36.6396 29.2782 36.7903 29.128L37.6311 28.2875L41.0708 31.7247L29.2215 43.5653Z" fill="#092C4C"/>
</g>
<mask id="mask1_334_3958" style="mask-type:luminance" maskUnits="userSpaceOnUse" x="16" y="0" width="5" height="7">
<path d="M16.6924 0.574707H20.7399V6.14009H16.6924V0.574707Z" fill="white"/>
</mask>
<g mask="url(#mask1_334_3958)">
<path d="M19.5344 6.0382C20.1727 6.0382 20.6915 5.51977 20.6915 4.88193V1.71437C20.6915 1.07653 20.1727 0.558105 19.5344 0.558105H17.8964C17.2581 0.558105 16.7393 1.07653 16.7393 1.71437V4.88193C16.7393 5.51977 17.2581 6.0382 17.8964 6.0382H19.5344ZM17.5107 4.88193V1.71437C17.5107 1.50217 17.6833 1.32867 17.8964 1.32867H19.5344C19.7475 1.32867 19.9201 1.50217 19.9201 1.71437V4.88193C19.9201 5.09413 19.7475 5.26721 19.5344 5.26721H17.8964C17.6833 5.26721 17.5107 5.09413 17.5107 4.88193Z" fill="#092C4C"/>
</g>
<mask id="mask2_334_3958" style="mask-type:luminance" maskUnits="userSpaceOnUse" x="1" y="0" width="5" height="7">
<path d="M1.24902 0.574707H5.29658V6.14009H1.24902V0.574707Z" fill="white"/>
</mask>
<g mask="url(#mask2_334_3958)">
<path d="M2.04093 5.65291V3.7498H4.06471C4.70255 3.7498 5.2218 3.23096 5.2218 2.59353V1.71437C5.2218 1.07653 4.70255 0.558105 4.06471 0.558105H1.65523C1.44179 0.558105 1.26953 0.73036 1.26953 0.943389V5.65291C1.26953 5.86594 1.44179 6.0382 1.65523 6.0382C1.86826 6.0382 2.04093 5.86594 2.04093 5.65291ZM2.04093 1.32867H4.06471C4.27732 1.32867 4.45041 1.50217 4.45041 1.71437V2.59353C4.45041 2.80573 4.27732 2.97882 4.06471 2.97882H2.04093V1.32867Z" fill="#092C4C"/>
</g>
<mask id="mask3_334_3958" style="mask-type:luminance" maskUnits="userSpaceOnUse" x="21" y="0" width="5" height="7">
<path d="M21.8076 0.574707H25.8552V6.14009H21.8076V0.574707Z" fill="white"/>
</mask>
<g mask="url(#mask3_334_3958)">
<path d="M22.2841 0.558105C22.0711 0.558105 21.8984 0.73036 21.8984 0.943389V5.00842C21.8984 5.57594 22.3607 6.0382 22.9286 6.0382H24.8209C25.3889 6.0382 25.8507 5.57594 25.8507 5.00842V0.943389C25.8507 0.73036 25.6785 0.558105 25.465 0.558105C25.252 0.558105 25.0793 0.73036 25.0793 0.943389V5.00842C25.0793 5.15155 24.9636 5.26721 24.8209 5.26721H22.9286C22.7859 5.26721 22.6698 5.15155 22.6698 5.00842V0.943389C22.6698 0.73036 22.4976 0.558105 22.2841 0.558105Z" fill="#092C4C"/>
</g>
<mask id="mask4_334_3958" style="mask-type:luminance" maskUnits="userSpaceOnUse" x="27" y="0" width="5" height="7">
<path d="M27.0234 0.574707H31.071V6.24661H27.0234V0.574707Z" fill="white"/>
</mask>
<g mask="url(#mask4_334_3958)">
<path d="M29.017 6.17758C29.23 6.17758 29.4027 6.00533 29.4027 5.79188V1.32867H30.6193C30.8323 1.32867 31.005 1.15642 31.005 0.943389C31.005 0.73036 30.8323 0.558105 30.6193 0.558105H27.4384C27.225 0.558105 27.0527 0.73036 27.0527 0.943389C27.0527 1.15642 27.225 1.32867 27.4384 1.32867H28.6313V5.79188C28.6313 6.00533 28.8036 6.17758 29.017 6.17758Z" fill="#092C4C"/>
</g>
<path d="M13.6069 6.09462C13.8199 6.09462 13.9926 5.92195 13.9926 5.70892V3.53494L15.5637 1.26527C15.6848 1.09093 15.6411 0.850858 15.4659 0.729365C15.2903 0.606624 15.0502 0.651976 14.9292 0.827142L13.5877 2.76521L12.1502 0.817573C12.0233 0.646567 11.7824 0.60912 11.6106 0.736022C11.4396 0.862508 11.4029 1.10341 11.5294 1.27525L13.2212 3.56698V5.70892C13.2212 5.92237 13.3934 6.09462 13.6069 6.09462Z" fill="#092C4C"/>
<mask id="mask5_334_3958" style="mask-type:luminance" maskUnits="userSpaceOnUse" x="6" y="0" width="5" height="7">
<path d="M6.36035 0.574707H10.4079V6.14009H6.36035V0.574707Z" fill="white"/>
</mask>
<g mask="url(#mask5_334_3958)">
<path d="M9.60549 5.65291C9.60549 5.86594 9.77816 6.0382 9.99119 6.0382C10.2042 6.0382 10.3769 5.86594 10.3769 5.65291V1.58789C10.3769 1.02036 9.91463 0.558105 9.34669 0.558105H7.45481C6.88687 0.558105 6.42462 1.02036 6.42462 1.58789V3.16646C6.40423 3.21348 6.39258 3.26466 6.39258 3.31916C6.39258 3.37367 6.40423 3.42485 6.42462 3.47186V5.65291C6.42462 5.86594 6.59729 6.0382 6.81031 6.0382C7.02334 6.0382 7.19601 5.86594 7.19601 5.65291V3.70445H9.60549V5.65291ZM7.19601 2.93388V1.58789C7.19601 1.44476 7.3121 1.32867 7.45481 1.32867H9.34669C9.48941 1.32867 9.60549 1.44476 9.60549 1.58789V2.93388H7.19601Z" fill="#092C4C"/>
</g>
</svg>
