<svg width="43" height="36" viewBox="0 0 43 36" fill="none" xmlns="http://www.w3.org/2000/svg">
<mask id="mask0_609_948" style="mask-type:luminance" maskUnits="userSpaceOnUse" x="0" y="10" width="12" height="18">
<path d="M0.0175781 10.9229H11.1975V27.5271H0.0175781V10.9229Z" fill="white"/>
</mask>
<g mask="url(#mask0_609_948)">
<path d="M6.10457 27.4732C5.97406 27.4732 5.84235 27.4561 5.71103 27.4187L1.14692 26.1486C0.764128 26.0419 0.446988 25.7924 0.253601 25.4459C0.060213 25.0993 0.0144524 24.6986 0.12388 24.3174L3.65142 12.0894C3.87544 11.3142 4.68879 10.8602 5.46711 11.0763L10.0312 12.3464C10.414 12.4531 10.7312 12.7026 10.9245 13.0491C11.1179 13.3957 11.1649 13.7968 11.0543 14.1784L7.52673 26.4068C7.34011 27.0495 6.74562 27.4732 6.10457 27.4732ZM5.9665 26.5019C6.24265 26.5791 6.53114 26.4172 6.61112 26.1418L10.1387 13.9138C10.1781 13.7785 10.1617 13.6357 10.0929 13.5131C10.0245 13.3902 9.91224 13.3014 9.77576 13.2636L5.21085 11.9931C4.9347 11.9163 4.64621 12.0778 4.56583 12.3532L1.03829 24.5812C0.999297 24.7165 1.01561 24.8593 1.08405 24.9823C1.15289 25.1048 1.26511 25.1936 1.40119 25.2318L5.9665 26.5019Z" fill="#092C4C"/>
</g>
<path d="M6.71071 16.9536C6.56667 16.9536 6.42222 16.9333 6.28017 16.8943C5.86872 16.7801 5.52651 16.5127 5.31681 16.1415C5.1075 15.7698 5.05498 15.3385 5.16918 14.9282C5.40554 14.0799 6.28852 13.5817 7.13728 13.818C7.98643 14.054 8.48463 14.9366 8.24826 15.7853C8.13406 16.1964 7.86626 16.5382 7.49461 16.7479C7.25069 16.884 6.98209 16.9536 6.71071 16.9536ZM6.70673 14.711C6.59731 14.711 6.48867 14.7396 6.39079 14.7949C6.23998 14.8797 6.13254 15.0178 6.08558 15.1833C5.99048 15.5263 6.19143 15.8824 6.53444 15.9775C6.70037 16.0241 6.87465 16.0022 7.02507 15.9174C7.17548 15.8327 7.28332 15.6946 7.32987 15.5291C7.42497 15.1861 7.22403 14.8299 6.88102 14.7348C6.82293 14.7185 6.76483 14.711 6.70673 14.711Z" fill="#092C4C"/>
<mask id="mask1_609_948" style="mask-type:luminance" maskUnits="userSpaceOnUse" x="30" y="10" width="13" height="18">
<path d="M30.8582 10.9229H42.038V27.5271H30.8582V10.9229Z" fill="white"/>
</mask>
<g mask="url(#mask1_609_948)">
<path d="M35.9421 27.4732C35.2999 27.4732 34.7054 27.0502 34.5196 26.4056L30.992 14.1776C30.8826 13.7956 30.9284 13.3949 31.1218 13.0483C31.3152 12.7017 31.6323 12.4522 32.0155 12.3456L36.5804 11.0754C37.3575 10.859 38.1721 11.3134 38.3961 12.0885L41.9236 24.3165C42.0331 24.6985 41.9873 25.0992 41.7939 25.445C41.6005 25.7916 41.2834 26.0411 40.9006 26.1477L36.3353 27.4179C36.204 27.4549 36.0715 27.4732 35.9421 27.4732ZM36.9747 11.9743C36.9278 11.9743 36.8812 11.9799 36.8347 11.993L32.2698 13.2636C32.1333 13.3014 32.0211 13.3901 31.9526 13.5131C31.8838 13.6356 31.8675 13.7785 31.9069 13.9138L35.4344 26.1418C35.5132 26.4171 35.8029 26.5791 36.079 26.5019L40.6431 25.2317C40.7792 25.1935 40.8918 25.1048 40.9603 24.9822C41.0291 24.8593 41.045 24.7164 41.006 24.5811L37.4785 12.3532C37.4136 12.1236 37.2023 11.9743 36.9747 11.9743Z" fill="#092C4C"/>
</g>
<path d="M35.3048 16.9536C34.6052 16.9536 33.9614 16.4908 33.7652 15.7841C33.651 15.3727 33.7031 14.9425 33.9128 14.5713C34.1226 14.1996 34.4644 13.9322 34.8758 13.818C35.7246 13.5817 36.6079 14.0799 36.8439 14.9282C37.0803 15.7766 36.5821 16.6592 35.7333 16.8955C35.5893 16.9345 35.4456 16.9536 35.3048 16.9536ZM35.3036 14.711C35.2467 14.711 35.1886 14.7185 35.1313 14.7348C34.9653 14.7814 34.8273 14.8892 34.7425 15.0396C34.6578 15.19 34.6367 15.3631 34.6824 15.5299C34.7294 15.6958 34.8368 15.8339 34.9872 15.9186C35.1368 16.0034 35.3111 16.0241 35.4779 15.9783C35.8209 15.8832 36.0218 15.5271 35.9267 15.1845C35.8455 14.8988 35.5865 14.711 35.3036 14.711Z" fill="#092C4C"/>
<path d="M30.313 27.5346C30.0575 27.5346 29.8462 27.3328 29.8375 27.0758C29.8279 26.8128 30.0329 26.5931 30.2959 26.5824C30.3198 26.5816 32.6734 26.4777 34.5122 25.2056C34.7283 25.0559 35.0255 25.1105 35.1751 25.3265C35.3248 25.5426 35.2706 25.8387 35.0542 25.9895C32.9814 27.4232 30.4379 27.531 30.3313 27.5346C30.3245 27.5346 30.3186 27.5346 30.313 27.5346Z" fill="#092C4C"/>
<path d="M8.82181 26.9813C8.70005 26.9813 8.57789 26.9347 8.48477 26.8424L7.07296 25.431C6.88714 25.2456 6.88714 24.9436 7.07296 24.7577C7.25839 24.5723 7.56041 24.5723 7.74624 24.7577L9.15805 26.1691C9.34388 26.3546 9.34388 26.6566 9.15805 26.8424C9.06573 26.9355 8.94397 26.9813 8.82181 26.9813Z" fill="#092C4C"/>
<mask id="mask2_609_948" style="mask-type:luminance" maskUnits="userSpaceOnUse" x="15" y="30" width="11" height="6">
<path d="M15.4785 30.2783H25.2577V35.5165H15.4785V30.2783Z" fill="white"/>
</mask>
<g mask="url(#mask2_609_948)">
<path d="M18.1724 35.517C17.5505 35.517 16.9293 35.2811 16.4558 34.808L15.6433 33.9954C15.4574 33.81 15.4574 33.508 15.6433 33.3225C15.8291 33.1367 16.1311 33.1367 16.3166 33.3225L17.1291 34.1347C17.7045 34.7097 18.64 34.7097 19.2154 34.1347C19.4947 33.8577 19.6479 33.4873 19.6479 33.0929C19.6479 32.9015 19.6117 32.7149 19.5405 32.5378C19.4669 32.356 19.3582 32.192 19.2166 32.0504C19.0307 31.8646 19.0307 31.5625 19.2166 31.3771C19.4024 31.1913 19.7044 31.1913 19.8898 31.3771L21.6992 33.1845C22.2746 33.7594 23.2097 33.7594 23.7851 33.1845C24.0636 32.9063 24.2176 32.5351 24.2176 32.1415C24.2176 31.7484 24.0644 31.3779 23.7851 31.099C23.5996 30.9131 23.5996 30.6115 23.7851 30.4257C23.9709 30.2403 24.2729 30.2403 24.4587 30.4257C24.9171 30.8837 25.1694 31.4933 25.1694 32.1415C25.1694 32.7901 24.9171 33.3993 24.4587 33.8577C23.5117 34.804 21.9714 34.804 21.0255 33.8577L20.5806 33.4129C20.5122 33.9413 20.2718 34.4287 19.8891 34.8095C19.4147 35.2811 18.7936 35.517 18.1724 35.517Z" fill="#092C4C"/>
</g>
<path d="M26.2938 32.6012C25.6715 32.6012 25.0507 32.3653 24.5772 31.8917L20.1333 27.451C19.9474 27.2652 19.9474 26.9635 20.1333 26.7777C20.3187 26.5919 20.6207 26.5919 20.8065 26.7777L25.2497 31.2189C25.8251 31.7939 26.7606 31.7939 27.336 31.2189C27.9114 30.6435 27.9114 29.7084 27.336 29.1334L22.892 24.6922C22.7062 24.5068 22.7062 24.2048 22.892 24.019C23.0779 23.8335 23.3795 23.8335 23.5653 24.019L28.0092 28.4601C28.9563 29.4068 28.9563 30.9463 28.0092 31.8917C27.5369 32.3653 26.915 32.6012 26.2938 32.6012Z" fill="#092C4C"/>
<path d="M28.3865 29.1769C27.7379 29.1769 27.1283 28.9246 26.6699 28.4658C26.4845 28.28 26.4845 27.978 26.6699 27.7926C26.8558 27.6067 27.1578 27.6067 27.3436 27.7926C27.6225 28.0715 27.9922 28.2247 28.3865 28.2247C28.7809 28.2247 29.1505 28.0715 29.4299 27.7926C29.6507 27.5705 29.7936 27.2908 29.8421 26.984C29.8557 26.9052 29.8624 26.828 29.8624 26.7496C29.8624 26.3565 29.7088 25.986 29.4299 25.7063L22.3748 18.6544C21.8611 18.1411 21.1078 17.9449 20.4095 18.1411C20.0514 18.2418 19.7283 18.4399 19.476 18.7141L17.2771 21.1004C17.2723 21.1052 17.2687 21.1099 17.264 21.1147C16.2294 22.1489 14.547 22.1489 13.5124 21.1147C12.6819 20.2843 12.4941 19.0312 13.0448 17.9962C13.7515 16.6688 14.9728 14.8491 16.7789 13.7115C16.7857 13.7075 16.7924 13.7027 16.7992 13.6991C18.2842 12.7696 19.9121 12.4572 21.6363 12.7696C21.8957 12.8078 25.4849 13.3589 28.301 15.288L31.3522 13.9705C31.5942 13.8667 31.8743 13.9769 31.9781 14.2188C32.0828 14.46 31.9714 14.7405 31.7294 14.8443L28.4335 16.2681C28.2791 16.3345 28.1008 16.3146 27.9655 16.2168C25.2724 14.2701 21.5296 13.7162 21.4926 13.7115C21.4871 13.7103 21.4803 13.7095 21.4743 13.7087C19.9809 13.4361 18.5719 13.7075 17.2878 14.5169C17.2811 14.5208 17.2755 14.5244 17.2687 14.5284C15.6492 15.5558 14.5354 17.2231 13.886 18.4439C13.5335 19.1064 13.6537 19.909 14.1861 20.4414C14.8462 21.1012 15.9198 21.1044 16.5839 20.4482L18.7757 18.0695C19.1473 17.666 19.6236 17.3735 20.152 17.2251C21.1819 16.9354 22.2928 17.2251 23.0493 17.9811L30.1043 25.033C30.5624 25.4918 30.815 26.1014 30.815 26.7488C30.815 26.8801 30.8043 27.0107 30.7836 27.1364C30.7044 27.6382 30.47 28.099 30.1051 28.4646C29.6452 28.9246 29.0355 29.1769 28.3865 29.1769Z" fill="#092C4C"/>
<path d="M10.4202 15.1901C10.2029 15.1901 10.0068 15.0405 9.95623 14.8196C9.89813 14.5634 10.0585 14.3083 10.3144 14.2494C13.4113 13.5447 16.8935 13.6342 17.0447 13.6378C17.3022 13.6446 17.5095 13.8551 17.5095 14.1141C17.5095 14.3815 17.2879 14.5996 17.0193 14.59C16.876 14.5864 13.5088 14.4989 10.526 15.1777C10.4906 15.1861 10.4556 15.1901 10.4202 15.1901Z" fill="#092C4C"/>
<path d="M9.92947 28.8742C9.46272 28.8742 9.02381 28.6924 8.69394 28.3629C8.36447 28.0334 8.18262 27.5945 8.18262 27.1278C8.18262 26.6614 8.36447 26.2233 8.69394 25.893L10.1973 24.3905C10.8785 23.7097 11.9871 23.7097 12.6683 24.3905C12.9978 24.72 13.1801 25.1589 13.1801 25.6252C13.1801 26.092 12.9978 26.5309 12.6683 26.8604C12.4825 27.0462 12.1805 27.0462 11.9951 26.8604C11.8092 26.6746 11.8092 26.3729 11.9951 26.1871C12.1455 26.0367 12.2274 25.8377 12.2274 25.6252C12.2274 25.4132 12.1443 25.2142 11.9951 25.0638C11.6851 24.7542 11.1813 24.7542 10.8709 25.0638L9.36761 26.5663C9.2172 26.7167 9.13523 26.9157 9.13523 27.1278C9.13523 27.3403 9.218 27.5392 9.36761 27.6896C9.51803 27.8401 9.71699 27.922 9.92947 27.922C10.142 27.922 10.3413 27.8393 10.4917 27.6896C10.6776 27.5042 10.9796 27.5042 11.165 27.6896C11.3508 27.8755 11.3508 28.1775 11.165 28.3629C10.8347 28.6924 10.3962 28.8742 9.92947 28.8742Z" fill="#092C4C"/>
<path d="M11.1911 31.2065C10.7434 31.2065 10.2966 31.0358 9.95557 30.696C9.62609 30.3665 9.44385 29.9276 9.44385 29.4608C9.44385 28.9945 9.62609 28.5556 9.95557 28.2261L11.9941 26.1884C12.6753 25.5075 13.7839 25.5075 14.4652 26.1884C14.795 26.5186 14.9769 26.9567 14.9769 27.4231C14.9769 27.8899 14.795 28.3288 14.4652 28.6582C14.2793 28.8441 13.9773 28.8441 13.7919 28.6582C13.6061 28.4724 13.6061 28.1708 13.7919 27.985C13.9423 27.8345 14.0243 27.6356 14.0243 27.4231C14.0243 27.211 13.9415 27.012 13.7919 26.8612C13.4823 26.5521 12.9774 26.5521 12.6678 26.8612L10.6292 28.899C10.4784 29.0494 10.3965 29.2487 10.3965 29.4608C10.3965 29.6733 10.4796 29.8723 10.6292 30.0227C10.9388 30.3323 11.4426 30.3323 11.753 30.0227C11.9388 29.8369 12.2408 29.8369 12.4266 30.0227C12.6125 30.2085 12.6125 30.5101 12.4266 30.696C12.0864 31.0358 11.6388 31.2065 11.1911 31.2065Z" fill="#092C4C"/>
<path d="M12.3969 33.5948C11.9302 33.5948 11.4909 33.413 11.1614 33.0835C10.8315 32.754 10.6497 32.3151 10.6497 31.8487C10.6497 31.382 10.8315 30.9439 11.1614 30.6136L13.7924 27.9838C14.4736 27.3029 15.5822 27.3029 16.2635 27.9838C16.5929 28.314 16.7752 28.7521 16.7752 29.2185C16.7752 29.6853 16.5929 30.1242 16.2635 30.4536L13.6324 33.0835C13.3018 33.413 12.8637 33.5948 12.3969 33.5948ZM15.0271 28.4247C14.823 28.4247 14.6201 28.5019 14.4649 28.657L11.8339 31.2869C11.6834 31.4373 11.6015 31.6363 11.6015 31.8487C11.6015 32.0608 11.6842 32.2602 11.8339 32.4106C11.9843 32.561 12.1836 32.6426 12.3957 32.6426C12.6082 32.6426 12.8076 32.5598 12.958 32.4106L15.589 29.7804C15.7394 29.63 15.8214 29.431 15.8214 29.2185C15.8214 29.0064 15.7386 28.8075 15.589 28.657C15.4346 28.5019 15.2309 28.4247 15.0271 28.4247Z" fill="#092C4C"/>
<path d="M14.9577 34.6285C14.4909 34.6285 14.0516 34.4466 13.7222 34.1171C13.3927 33.7877 13.2104 33.3488 13.2104 32.882C13.2104 32.4157 13.3927 31.9764 13.7222 31.6469C13.908 31.4614 14.21 31.4614 14.3954 31.6469C14.5813 31.8327 14.5813 32.1347 14.3954 32.3202C14.245 32.4706 14.1631 32.6699 14.1631 32.882C14.1631 33.0945 14.2462 33.2935 14.3954 33.4439C14.5463 33.5943 14.7452 33.6763 14.9577 33.6763C15.1702 33.6763 15.3691 33.5935 15.5196 33.4439L17.387 31.5776C17.6966 31.2681 17.6966 30.7635 17.387 30.4539C17.0774 30.1443 16.5732 30.1443 16.2629 30.4539C16.077 30.6397 15.775 30.6397 15.5892 30.4539C15.4034 30.2681 15.4034 29.9665 15.5892 29.7806C16.2704 29.0998 17.3794 29.0998 18.0603 29.7806C18.7415 30.4615 18.7415 31.5701 18.0603 32.2509L16.1932 34.1171C15.8638 34.4466 15.4245 34.6285 14.9577 34.6285Z" fill="#092C4C"/>
<mask id="mask3_609_948" style="mask-type:luminance" maskUnits="userSpaceOnUse" x="13" y="0" width="16" height="15">
<path d="M13.543 0.379395H28.5174V14.9973H13.543V0.379395Z" fill="white"/>
</mask>
<g mask="url(#mask3_609_948)">
<path d="M25.8432 14.9678C25.7433 14.9678 25.6423 14.9364 25.5567 14.8719C25.347 14.7128 25.3052 14.4147 25.4644 14.2054C26.8312 12.4009 27.5534 10.2394 27.5534 7.95693V3.9129L21.024 1.37538L14.4958 3.9121V7.95613C14.4958 10.0774 15.1273 12.1132 16.323 13.8433C16.4723 14.0598 16.4181 14.3566 16.2021 14.5062C15.9856 14.6559 15.6884 14.6013 15.5387 14.3853C14.2328 12.496 13.542 10.2728 13.542 7.95693V3.5874C13.542 3.39123 13.663 3.21495 13.846 3.14372L20.8505 0.422368C20.962 0.379393 21.0849 0.379393 21.1955 0.422368L28.2001 3.14372C28.3831 3.21495 28.5041 3.39123 28.5041 3.5874V7.95693C28.5041 10.4487 27.7154 12.8083 26.2224 14.7804C26.1293 14.9022 25.9872 14.9678 25.8432 14.9678Z" fill="#092C4C"/>
</g>
<path d="M23.3911 14.1179C23.2757 14.1179 23.1607 14.0774 23.0692 13.9934C22.875 13.8155 22.8623 13.5143 23.0397 13.3213C24.3867 11.853 25.1288 9.94857 25.1288 7.95739V5.57028L21.0239 3.97424L16.919 5.56949V7.95659C16.919 9.85147 17.5982 11.6851 18.8318 13.122C19.0033 13.3221 18.9806 13.6221 18.7804 13.7936C18.5815 13.9647 18.2803 13.9421 18.1088 13.7419C16.7268 12.1327 15.9656 10.0779 15.9656 7.9554V5.2428C15.9656 5.04663 16.0865 4.87035 16.2692 4.79912L20.8504 3.01924C20.9618 2.97666 21.0848 2.97666 21.1954 3.01924L25.7766 4.79912C25.9593 4.87035 26.0802 5.04663 26.0802 5.2428V7.9554C26.0802 10.1857 25.2498 12.3186 23.7417 13.9628C23.6486 14.0658 23.5196 14.1179 23.3911 14.1179Z" fill="#092C4C"/>
<path d="M20.0912 11.0703C19.9695 11.0703 19.8473 11.0234 19.7542 10.9311L18.4279 9.6056C18.2421 9.42017 18.2421 9.11815 18.4279 8.93232C18.6138 8.74689 18.9158 8.74689 19.1016 8.93232L20.0912 9.92194L22.9463 7.06808C23.1321 6.88225 23.4341 6.88225 23.62 7.06808C23.8058 7.25391 23.8058 7.55553 23.62 7.74136L20.4275 10.9323C20.3352 11.0234 20.2134 11.0703 20.0912 11.0703Z" fill="#092C4C"/>
</svg>
