<svg width="39" height="48" viewBox="0 0 39 48" fill="none" xmlns="http://www.w3.org/2000/svg">
<mask id="mask0_247_1427" style="mask-type:luminance" maskUnits="userSpaceOnUse" x="1" y="30" width="35" height="18">
<path d="M1.2373 30.7217H35.0151V47.1789H1.2373V30.7217Z" fill="white"/>
</mask>
<g mask="url(#mask0_247_1427)">
<path d="M13.8415 42.0284H24.6202C25.0953 42.0284 25.7528 41.8455 26.1911 41.5533L31.9276 37.7543C32.3296 37.4989 32.768 36.9875 32.9508 36.5491L34.814 32.4212C34.9968 32.0559 34.9605 31.6543 34.7409 31.3254C34.5218 30.9968 34.1565 30.814 33.7544 30.814H30.8317C30.5028 30.814 30.1738 30.9238 29.9546 30.9968C29.6624 31.1062 29.2971 31.3984 28.3837 32.6404L27.7988 33.444H25.7165C25.6066 32.4943 24.7663 31.7637 23.7435 31.7637H20.0893C19.8339 31.7637 19.3588 31.6906 19.1396 31.5813L17.7878 31.0699C17.3858 30.9238 16.7279 30.814 16.2895 30.814H10.48C9.96858 30.814 9.27432 31.0699 8.90904 31.3984L4.9631 34.9051C4.15904 34.3574 3.13625 34.2844 2.47829 34.8688L1.60162 35.5994C1.30939 35.8549 1.23633 36.33 1.52856 36.6222C1.78404 36.9144 2.25912 36.9875 2.55135 36.6952L3.42847 35.9647C3.57458 35.8549 3.97662 35.8916 4.30515 36.2201L11.3934 43.6356C11.6861 43.9278 11.6493 44.4025 11.3934 44.6947L10.1514 45.9367C9.85921 46.2289 9.85921 46.704 10.1514 46.9594C10.2976 47.1056 10.48 47.1786 10.6628 47.1786C10.8457 47.1786 11.0281 47.1056 11.1742 46.9594L12.4166 45.7175C13.1109 44.9869 13.2203 43.8911 12.7456 43.0511C12.7819 43.0511 12.7819 43.0144 12.8187 43.0144L13.8415 42.0284ZM11.7954 41.9186L11.7591 41.9553L5.98589 35.8916L9.85921 32.4943C9.96858 32.3849 10.2976 32.2751 10.48 32.2751H16.3626C16.6185 32.2751 17.0936 32.3482 17.3127 32.458L18.6645 32.9694C19.0665 33.1155 19.7241 33.2248 20.1624 33.2248H23.8165C24.1088 33.2248 24.3642 33.444 24.3642 33.6632V35.4533C24.3642 35.7087 24.1088 35.8916 23.8165 35.8916H16.5087C16.1071 35.8916 15.7781 36.2201 15.7781 36.6222C15.7781 37.0238 16.1071 37.3527 16.5087 37.3527H23.8165C24.9124 37.3527 25.8258 36.5124 25.8258 35.4533V34.9051H28.2376C28.4567 34.9051 28.6759 34.7958 28.822 34.6129L29.6256 33.5171C30.3566 32.531 30.6121 32.3482 30.6121 32.3482C30.7219 32.3118 30.8317 32.2751 30.868 32.2751H33.2798L31.6354 35.9647C31.5623 36.1471 31.3064 36.4393 31.124 36.5491L25.3875 40.3481C25.2046 40.4574 24.8393 40.5672 24.6569 40.5672H13.586C13.4031 40.5672 13.2203 40.6403 13.1109 40.7496L11.7954 41.9186Z" fill="#092C4C"/>
</g>
<path d="M5.69346 14.9611H6.42446C6.82605 14.9611 7.15503 14.6326 7.15503 14.2306C7.15503 13.829 6.82605 13.5 6.42446 13.5H5.69346C5.29142 13.5 4.96289 13.829 4.96289 14.2306C4.96289 14.6689 5.29142 14.9611 5.69346 14.9611Z" fill="#092C4C"/>
<path d="M9.34751 14.9611H10.0785C10.4801 14.9611 10.8091 14.6326 10.8091 14.2306C10.8091 13.829 10.4801 13.5 10.0785 13.5H9.34751C8.94548 13.5 8.61694 13.829 8.61694 14.2306C8.61694 14.6689 8.94548 14.9611 9.34751 14.9611Z" fill="#092C4C"/>
<path d="M5.69346 17.8835H6.42446C6.82605 17.8835 7.15503 17.555 7.15503 17.1529C7.15503 16.7513 6.82605 16.4224 6.42446 16.4224H5.69346C5.29142 16.4224 4.96289 16.7513 4.96289 17.1529C4.96289 17.555 5.29142 17.8835 5.69346 17.8835Z" fill="#092C4C"/>
<path d="M9.34751 17.8835H10.0785C10.4801 17.8835 10.8091 17.555 10.8091 17.1529C10.8091 16.7513 10.4801 16.4224 10.0785 16.4224H9.34751C8.94548 16.4224 8.61694 16.7513 8.61694 17.1529C8.61694 17.555 8.94548 17.8835 9.34751 17.8835Z" fill="#092C4C"/>
<path d="M5.69346 20.8059H6.42446C6.82605 20.8059 7.15503 20.4773 7.15503 20.0753C7.15503 19.6737 6.82605 19.3447 6.42446 19.3447H5.69346C5.29142 19.3447 4.96289 19.6737 4.96289 20.0753C4.96289 20.4773 5.29142 20.8059 5.69346 20.8059Z" fill="#092C4C"/>
<path d="M9.34751 20.8059H10.0785C10.4801 20.8059 10.8091 20.4773 10.8091 20.0753C10.8091 19.6737 10.4801 19.3447 10.0785 19.3447H9.34751C8.94548 19.3447 8.61694 19.6737 8.61694 20.0753C8.61694 20.4773 8.94548 20.8059 9.34751 20.8059Z" fill="#092C4C"/>
<path d="M5.69346 23.7277H6.42446C6.82605 23.7277 7.15503 23.3992 7.15503 22.9972C7.15503 22.5956 6.82605 22.2666 6.42446 22.2666H5.69346C5.29142 22.2666 4.96289 22.5956 4.96289 22.9972C4.96289 23.3992 5.29142 23.7277 5.69346 23.7277Z" fill="#092C4C"/>
<path d="M9.34751 23.7277H10.0785C10.4801 23.7277 10.8091 23.3992 10.8091 22.9972C10.8091 22.5956 10.4801 22.2666 10.0785 22.2666H9.34751C8.94548 22.2666 8.61694 22.5956 8.61694 22.9972C8.61694 23.3992 8.94548 23.7277 9.34751 23.7277Z" fill="#092C4C"/>
<path d="M32.0006 14.9611H32.7316C33.1332 14.9611 33.4622 14.6326 33.4622 14.2306C33.4622 13.829 33.1332 13.5 32.7316 13.5H32.0006C31.599 13.5 31.27 13.829 31.27 14.2306C31.27 14.6689 31.599 14.9611 32.0006 14.9611Z" fill="#092C4C"/>
<path d="M28.3468 14.9611H29.0778C29.4794 14.9611 29.8083 14.6326 29.8083 14.2306C29.8083 13.829 29.4794 13.5 29.0778 13.5H28.3468C27.9447 13.5 27.6162 13.829 27.6162 14.2306C27.6162 14.6689 27.9447 14.9611 28.3468 14.9611Z" fill="#092C4C"/>
<path d="M32.0006 17.8835H32.7316C33.1332 17.8835 33.4622 17.555 33.4622 17.1529C33.4622 16.7513 33.1332 16.4224 32.7316 16.4224H32.0006C31.599 16.4224 31.27 16.7513 31.27 17.1529C31.27 17.555 31.599 17.8835 32.0006 17.8835Z" fill="#092C4C"/>
<path d="M28.3468 17.8835H29.0778C29.4794 17.8835 29.8083 17.555 29.8083 17.1529C29.8083 16.7513 29.4794 16.4224 29.0778 16.4224H28.3468C27.9447 16.4224 27.6162 16.7513 27.6162 17.1529C27.6162 17.555 27.9447 17.8835 28.3468 17.8835Z" fill="#092C4C"/>
<path d="M32.0006 20.8059H32.7316C33.1332 20.8059 33.4622 20.4773 33.4622 20.0753C33.4622 19.6737 33.1332 19.3447 32.7316 19.3447H32.0006C31.599 19.3447 31.27 19.6737 31.27 20.0753C31.27 20.4773 31.599 20.8059 32.0006 20.8059Z" fill="#092C4C"/>
<path d="M28.3468 20.8059H29.0778C29.4794 20.8059 29.8083 20.4773 29.8083 20.0753C29.8083 19.6737 29.4794 19.3447 29.0778 19.3447H28.3468C27.9447 19.3447 27.6162 19.6737 27.6162 20.0753C27.6162 20.4773 27.9447 20.8059 28.3468 20.8059Z" fill="#092C4C"/>
<path d="M32.0006 23.7277H32.7316C33.1332 23.7277 33.4622 23.3992 33.4622 22.9972C33.4622 22.5956 33.1332 22.2666 32.7316 22.2666H32.0006C31.599 22.2666 31.27 22.5956 31.27 22.9972C31.27 23.3992 31.599 23.7277 32.0006 23.7277Z" fill="#092C4C"/>
<path d="M28.3468 23.7277H29.0778C29.4794 23.7277 29.8083 23.3992 29.8083 22.9972C29.8083 22.5956 29.4794 22.2666 29.0778 22.2666H28.3468C27.9447 22.2666 27.6162 22.5956 27.6162 22.9972C27.6162 23.3992 27.9447 23.7277 28.3468 23.7277Z" fill="#092C4C"/>
<path d="M21.4048 12.8062H17.0206C16.6185 12.8062 16.2896 13.1347 16.2896 13.5367C16.2896 13.9383 16.6185 14.2673 17.0206 14.2673H21.4048C21.8069 14.2673 22.1358 13.9383 22.1358 13.5367C22.1358 13.1347 21.8069 12.8062 21.4048 12.8062Z" fill="#092C4C"/>
<path d="M21.4048 9.88379H17.0206C16.6185 9.88379 16.2896 10.2123 16.2896 10.6144C16.2896 11.0159 16.6185 11.3449 17.0206 11.3449H21.4048C21.8069 11.3449 22.1358 11.0159 22.1358 10.6144C22.1358 10.2123 21.8069 9.88379 21.4048 9.88379Z" fill="#092C4C"/>
<path d="M21.4048 6.96191H17.0206C16.6185 6.96191 16.2896 7.29045 16.2896 7.69248C16.2896 8.09407 16.6185 8.42304 17.0206 8.42304H21.4048C21.8069 8.42304 22.1358 8.09407 22.1358 7.69248C22.1358 7.29045 21.8069 6.96191 21.4048 6.96191Z" fill="#092C4C"/>
<mask id="mask1_247_1427" style="mask-type:luminance" maskUnits="userSpaceOnUse" x="0" y="0" width="39" height="30">
<path d="M0.358643 0.429688H38.3586V29.5885H0.358643V0.429688Z" fill="white"/>
</mask>
<g mask="url(#mask1_247_1427)">
<path d="M1.0897 29.5361H37.6277C38.0293 29.5361 38.3582 29.2071 38.3582 28.8055V26.6138C38.3582 25.8102 37.7007 25.1527 36.8967 25.1527H36.3853V12.0756C37.1889 12.0756 37.8468 11.4181 37.8468 10.6145V9.15332C37.8468 8.3497 37.1889 7.69219 36.3853 7.69219H26.1547V4.76993C26.9583 4.76993 27.6163 4.11243 27.6163 3.3088V1.88398C27.6163 1.08036 26.9583 0.422852 26.1547 0.422852H12.2704C11.4664 0.422852 10.8089 1.08036 10.8089 1.88398V3.34511C10.8089 4.14873 11.4664 4.80624 12.2704 4.80624V7.7285H2.03987C1.23625 7.7285 0.5783 8.38601 0.5783 9.18963V10.6508C0.5783 11.4544 1.23625 12.1119 2.03987 12.1119V25.2257H1.8207C1.01664 25.2257 0.359131 25.8833 0.359131 26.6869V28.8786C0.359131 29.2071 0.688106 29.5361 1.0897 29.5361ZM36.3853 9.15332V10.6145H26.1547V9.15332H36.3853ZM34.9237 12.0756V25.189H26.1547V12.0756H34.9237ZM12.2704 1.88398H26.1547V3.34511H12.2704V1.88398ZM21.4047 16.4222H17.0204C15.9972 16.4222 15.1936 17.2258 15.1936 18.2486V25.1527H13.732V4.80624H24.6931V25.189H23.2316V18.2486C23.2316 17.2626 22.4279 16.4222 21.4047 16.4222ZM21.77 18.2486V25.1527H16.6547V18.2486C16.6547 18.0662 16.8013 17.8834 17.0204 17.8834H21.4047C21.6239 17.8834 21.77 18.0662 21.77 18.2486ZM2.03987 9.15332H12.2704V10.6145H2.03987V9.15332ZM12.2704 12.0756V25.189H3.50145V12.0756H12.2704ZM1.8207 26.6138H36.8967V28.075H1.8207V26.6138Z" fill="#092C4C"/>
</g>
</svg>
