<svg width="45" height="44" viewBox="0 0 45 44" fill="none" xmlns="http://www.w3.org/2000/svg">
<path d="M4.28039 20.2144C3.08782 20.2144 2.10742 19.2432 2.10742 18.0423V17.7689C2.11618 16.5767 3.08782 15.6055 4.28039 15.6055C5.47296 15.6055 6.45336 16.5767 6.45336 17.7776V18.0515C6.45336 19.2432 5.48171 20.2144 4.28039 20.2144ZM4.28039 16.6563C3.66222 16.6563 3.15868 17.1594 3.15868 17.7776V18.0515C3.15868 18.6692 3.66222 19.1728 4.28039 19.1728C4.89898 19.1728 5.40252 18.6692 5.40252 18.0515V17.7776C5.40252 17.1594 4.89898 16.6563 4.28039 16.6563Z" fill="#092C4C"/>
<path d="M4.28041 25.6975C2.40798 25.6975 0.358398 21.5474 0.358398 21.0443C0.358398 19.7996 2.32837 19.1548 4.28041 19.1548C6.23288 19.1548 8.20243 19.8084 8.20243 21.0443C8.20243 21.5566 6.15326 25.6975 4.28041 25.6975ZM1.33004 21.0089C1.53346 21.6446 3.25583 24.735 4.28041 24.735C5.27874 24.735 7.03654 21.7154 7.23995 21.0089C7.17785 20.7175 6.17077 20.1085 4.28041 20.1085C2.39881 20.1085 1.40091 20.7175 1.33004 21.0089Z" fill="#092C4C"/>
<path d="M40.4183 20.2144C39.2258 20.2144 38.2454 19.2432 38.2454 18.0423V17.7688C38.2454 16.5767 39.217 15.5967 40.4183 15.5967C41.6109 15.5967 42.5913 16.5679 42.5913 17.7688V18.0423C42.5913 19.2432 41.6197 20.2144 40.4183 20.2144ZM40.4183 16.6563C39.7997 16.6563 39.2962 17.1594 39.2962 17.7776V18.0514C39.2962 18.6692 39.7997 19.1727 40.4183 19.1727C41.0365 19.1727 41.54 18.6692 41.54 18.0514V17.7776C41.54 17.1594 41.0365 16.6563 40.4183 16.6563Z" fill="#092C4C"/>
<mask id="mask0_247_1503" style="mask-type:luminance" maskUnits="userSpaceOnUse" x="36" y="19" width="9" height="7">
<path d="M36.4084 19.1421H44.3584V25.7581H36.4084V19.1421Z" fill="white"/>
</mask>
<g mask="url(#mask0_247_1503)">
<path d="M40.4181 25.6975C38.5453 25.6975 36.4961 21.5474 36.4961 21.0443C36.4961 19.7996 38.4656 19.1548 40.4181 19.1548C42.3702 19.1548 44.3401 19.8084 44.3401 21.0443C44.3401 21.5566 42.2905 25.6975 40.4181 25.6975ZM37.4677 21.0089C37.6707 21.6446 39.3931 24.735 40.4181 24.735C41.416 24.735 43.1742 21.7154 43.3772 21.0089C43.3155 20.7175 42.3085 20.1085 40.4181 20.1085C38.5365 20.1085 37.5382 20.7175 37.4677 21.0089Z" fill="#092C4C"/>
</g>
<mask id="mask1_247_1503" style="mask-type:luminance" maskUnits="userSpaceOnUse" x="20" y="0" width="5" height="5">
<path d="M20.2952 0.121094H24.4569V4.41618H20.2952V0.121094Z" fill="white"/>
</mask>
<g mask="url(#mask1_247_1503)">
<path d="M22.354 4.39251C21.2406 4.39251 20.3398 3.49215 20.3398 2.37961V2.12367C20.3398 1.01114 21.2406 0.110352 22.354 0.110352C23.467 0.110352 24.3677 1.01114 24.3677 2.12367V2.37961C24.3677 3.49215 23.4582 4.39251 22.354 4.39251ZM22.354 1.08158C21.7796 1.08158 21.3115 1.54969 21.3115 2.12367V2.37961C21.3115 2.95359 21.7796 3.42129 22.354 3.42129C22.928 3.42129 23.3961 2.95359 23.3961 2.37961V2.12367C23.3873 1.54969 22.9192 1.08158 22.354 1.08158Z" fill="#092C4C"/>
</g>
<path d="M22.3542 9.48712C20.614 9.48712 18.7148 5.63764 18.7148 5.16078C18.7148 4.00405 20.5431 3.40381 22.3542 3.40381C24.165 3.40381 25.9936 4.00405 25.9936 5.16078C25.9936 5.63764 24.0854 9.48712 22.3542 9.48712ZM19.6069 5.12534C19.7924 5.71684 21.4001 8.58634 22.3542 8.58634C23.2817 8.58634 24.9157 5.77894 25.1012 5.12534C25.0395 4.8519 24.112 4.28667 22.3542 4.28667C20.6052 4.29542 19.6686 4.86065 19.6069 5.12534Z" fill="#092C4C"/>
<path d="M22.3542 38.394C21.2409 38.394 20.3401 37.4932 20.3401 36.3807V36.1247C20.3401 35.0122 21.2409 34.1118 22.3542 34.1118C23.4672 34.1118 24.368 35.0122 24.368 36.1247V36.3807C24.368 37.4844 23.4584 38.394 22.3542 38.394ZM22.3542 35.083C21.7798 35.083 21.3117 35.5507 21.3117 36.1247V36.3807C21.3117 36.9546 21.7798 37.4227 22.3542 37.4227C22.9282 37.4227 23.3963 36.9546 23.3963 36.3807V36.1247C23.3876 35.5507 22.9195 35.083 22.3542 35.083Z" fill="#092C4C"/>
<mask id="mask2_247_1503" style="mask-type:luminance" maskUnits="userSpaceOnUse" x="18" y="37" width="9" height="7">
<path d="M18.6946 37.3896H26.0576V43.488H18.6946V37.3896Z" fill="white"/>
</mask>
<g mask="url(#mask2_247_1503)">
<path d="M22.354 43.4881C20.6137 43.4881 18.7146 39.6386 18.7146 39.1618C18.7146 38.0054 20.5428 37.4048 22.354 37.4048C24.1647 37.4048 25.9934 38.0054 25.9934 39.1618C25.9934 39.6299 24.0851 43.4881 22.354 43.4881ZM19.6066 39.1267C19.7921 39.7182 21.3999 42.5877 22.354 42.5877C23.2815 42.5877 24.9155 39.7799 25.101 39.1267C25.0393 38.8529 24.1118 38.2876 22.354 38.2876C20.605 38.2968 19.6683 38.8529 19.6066 39.1267Z" fill="#092C4C"/>
</g>
<path d="M22.354 31.2423L22.1064 31.1452C16.9301 29.1056 13.5908 24.2495 13.5908 18.7756C13.5908 16.9565 13.9618 15.182 14.7042 13.5043L14.9514 12.9395L15.5433 13.1687C17.5133 13.9194 19.8717 14.3167 22.354 14.3167C24.845 14.3167 27.2035 13.9194 29.1643 13.1687L29.7562 12.9395L30.0038 13.5043C30.7457 15.182 31.1167 16.9565 31.1167 18.7756C31.1167 24.2495 27.7687 29.1056 22.6012 31.1452L22.354 31.2423ZM15.6667 14.5464C15.1456 15.9061 14.8897 17.3187 14.8897 18.7756C14.8897 23.6492 17.8134 27.9843 22.354 29.8914C26.8942 27.9843 29.8183 23.6492 29.8183 18.7756C29.8183 17.3275 29.5532 15.9061 29.0409 14.5464C27.0534 15.217 24.7566 15.5705 22.354 15.5705C19.9509 15.5705 17.6546 15.217 15.6667 14.5464Z" fill="#092C4C"/>
<path d="M21.2851 24.2844L19.4389 22.0948C19.2093 21.8297 19.2534 21.4324 19.5361 21.2119C19.8191 20.991 20.2251 21.0352 20.4548 21.2999L21.3735 22.3861C21.524 22.5625 21.8066 22.5804 21.9741 22.4124L25.8962 18.4925C26.1438 18.2453 26.5589 18.2361 26.8149 18.4746C27.0712 18.713 27.08 19.1102 26.8328 19.3578L21.8949 24.3019C21.7182 24.4699 21.4356 24.4607 21.2851 24.2844Z" fill="#092C4C"/>
<path d="M12.2926 7.50881C12.5931 7.82685 12.5844 8.32997 12.2663 8.6301C11.9483 8.93022 11.4447 8.92147 11.1442 8.60384C10.8441 8.28579 10.8528 7.78267 11.1709 7.48255C11.4802 7.18201 11.9833 7.19118 12.2926 7.50881Z" fill="#092C4C"/>
<path d="M10.2436 9.47825C10.5438 9.79588 10.535 10.299 10.217 10.5995C9.89891 10.8997 9.39537 10.8909 9.09525 10.5729C8.79471 10.2552 8.80346 9.7517 9.12151 9.45158C9.4308 9.15145 9.93434 9.16021 10.2436 9.47825Z" fill="#092C4C"/>
<path d="M8.1942 11.4469C8.49474 11.7649 8.48598 12.268 8.16794 12.5681C7.84989 12.8683 7.34635 12.8595 7.04581 12.5419C6.74569 12.2238 6.75444 11.7207 7.07249 11.4202C7.38178 11.1201 7.88532 11.1292 8.1942 11.4469Z" fill="#092C4C"/>
<path d="M32.4065 7.50881C32.106 7.82685 32.1147 8.32997 32.4328 8.6301C32.7508 8.93022 33.2544 8.92147 33.5549 8.60384C33.855 8.28579 33.8463 7.78267 33.5282 7.48255C33.2189 7.18201 32.7154 7.19118 32.4065 7.50881Z" fill="#092C4C"/>
<path d="M34.4648 9.47825C34.1646 9.79588 34.1734 10.299 34.4914 10.5995C34.8095 10.8997 35.313 10.8909 35.6131 10.5729C35.9137 10.2552 35.9049 9.7517 35.5869 9.45158C35.2688 9.15145 34.7653 9.16021 34.4648 9.47825Z" fill="#092C4C"/>
<path d="M36.5142 11.4469C36.2137 11.7649 36.2229 12.268 36.5409 12.5681C36.8585 12.8683 37.3621 12.8595 37.6626 12.5419C37.9627 12.2238 37.954 11.7207 37.6359 11.4202C37.3179 11.1201 36.8144 11.1292 36.5142 11.4469Z" fill="#092C4C"/>
<path d="M32.4065 36.8307C32.106 36.513 32.1147 36.0099 32.4328 35.7094C32.7508 35.4093 33.2544 35.418 33.5549 35.7361C33.855 36.0537 33.8463 36.5572 33.5282 36.8574C33.2189 37.1575 32.7154 37.14 32.4065 36.8307Z" fill="#092C4C"/>
<path d="M34.4648 34.862C34.1646 34.5439 34.1734 34.0408 34.4914 33.7407C34.8095 33.4406 35.313 33.4493 35.6131 33.7669C35.9137 34.085 35.9049 34.5881 35.5869 34.8887C35.2688 35.1888 34.7653 35.18 34.4648 34.862Z" fill="#092C4C"/>
<path d="M36.5142 32.8934C36.2137 32.5753 36.2229 32.0722 36.5409 31.7721C36.8585 31.4716 37.3621 31.4807 37.6626 31.7984C37.9627 32.1164 37.954 32.6195 37.6359 32.9196C37.3179 33.2198 36.8144 33.211 36.5142 32.8934Z" fill="#092C4C"/>
<path d="M12.2926 36.8307C12.5931 36.513 12.5844 36.0099 12.2663 35.7094C11.9483 35.4093 11.4447 35.418 11.1442 35.7361C10.8441 36.0537 10.8528 36.5572 11.1709 36.8574C11.4802 37.1575 11.9833 37.14 12.2926 36.8307Z" fill="#092C4C"/>
<path d="M10.2436 34.862C10.5438 34.5439 10.535 34.0408 10.217 33.7407C9.89891 33.4406 9.39537 33.4493 9.09525 33.7669C8.79471 34.085 8.80346 34.5881 9.12151 34.8887C9.4308 35.1888 9.93434 35.18 10.2436 34.862Z" fill="#092C4C"/>
<path d="M8.1942 32.8934C8.49474 32.5753 8.48598 32.0722 8.16794 31.7721C7.84989 31.4716 7.34635 31.4807 7.04581 31.7984C6.74569 32.1164 6.75444 32.6195 7.07249 32.9196C7.38178 33.2198 7.88532 33.211 8.1942 32.8934Z" fill="#092C4C"/>
</svg>
