<svg width="45" height="45" viewBox="0 0 45 45" fill="none" xmlns="http://www.w3.org/2000/svg">
<g clip-path="url(#clip0_591_453)">
<mask id="mask0_591_453" style="mask-type:luminance" maskUnits="userSpaceOnUse" x="0" y="0" width="45" height="45">
<path d="M0.208008 0.0839844H44.208V44.084H0.208008V0.0839844Z" fill="white"/>
</mask>
<g mask="url(#mask0_591_453)">
<path d="M27.7255 21.0364L23.4544 29.5786C22.9388 30.6185 21.4434 30.5841 20.9708 29.527L16.0809 18.6731L13.5028 24.8349H5.41612L21.0997 40.8622C21.7098 41.4895 22.6982 41.4895 23.3083 40.8622L39.0005 24.8349H29.6247L27.7255 21.0364ZM40.9169 6.43564L40.7107 6.2208C36.2848 1.70049 29.0403 1.70049 24.6059 6.2208L22.2083 8.67861L19.8107 6.22939C15.3848 1.70049 8.13174 1.70049 3.70597 6.22939L3.49972 6.43564C-0.685441 10.7153 -0.865909 17.5301 2.87237 22.0849H11.6723L14.7576 14.677C15.2216 13.5685 16.7857 13.5426 17.2841 14.6426L22.2857 25.7544L26.4966 17.3411C27.0036 16.327 28.4473 16.327 28.9544 17.3411L31.3263 22.0849H41.5442C45.2826 17.5301 45.1021 10.7153 40.9169 6.43564Z" fill="white"/>
</g>
</g>
<defs>
<clipPath id="clip0_591_453">
<rect width="44" height="44" fill="white" transform="translate(0.208008 0.0839844)"/>
</clipPath>
</defs>
</svg>
