<svg width="45" height="40" viewBox="0 0 45 40" fill="none" xmlns="http://www.w3.org/2000/svg">
<mask id="mask0_591_543" style="mask-type:luminance" maskUnits="userSpaceOnUse" x="0" y="0" width="45" height="40">
<path d="M0.788086 0.529785H44.7881V39.6409H0.788086V0.529785Z" fill="white"/>
</mask>
<g mask="url(#mask0_591_543)">
<mask id="mask1_591_543" style="mask-type:luminance" maskUnits="userSpaceOnUse" x="0" y="0" width="45" height="40">
<path d="M0.788086 0.530762H44.7881V39.6419H0.788086V0.530762Z" fill="white"/>
</mask>
<g mask="url(#mask1_591_543)">
<path d="M22.2055 12.7712L8.12163 23.082V34.2103C8.12163 34.5103 8.24095 34.7664 8.47961 34.9785C8.71826 35.1907 9.00634 35.2967 9.34385 35.2967L17.904 35.277C18.2403 35.2756 18.5271 35.1689 18.7643 34.9569C19.0015 34.745 19.1201 34.4895 19.1201 34.1906V27.6918C19.1201 27.3918 19.2394 27.1358 19.4781 26.9235C19.7167 26.7114 20.0048 26.6054 20.3423 26.6054H25.2312C25.5687 26.6054 25.8568 26.7114 26.0954 26.9235C26.3341 27.1358 26.4535 27.3918 26.4535 27.6918V34.1858C26.4524 34.4865 26.5713 34.7434 26.8101 34.9563C27.0488 35.1692 27.3374 35.2757 27.6757 35.2757L36.2327 35.2967C36.5703 35.2967 36.8584 35.1907 37.097 34.9785C37.3357 34.7664 37.4549 34.5103 37.4549 34.2103V23.0745L23.3742 12.7712C23.2037 12.649 23.0089 12.5879 22.7898 12.5879C22.5707 12.5879 22.376 12.649 22.2055 12.7712ZM44.4522 19.7792L38.0661 15.1002V5.69519C38.0661 5.47018 37.9766 5.27813 37.7976 5.11902C37.6186 4.95992 37.4025 4.88037 37.1494 4.88037H32.8716C32.6185 4.88037 32.4025 4.95992 32.2234 5.11902C32.0445 5.27813 31.9549 5.47018 31.9549 5.69519V10.6255L25.1159 5.62389C24.4391 5.12885 23.6625 4.88133 22.786 4.88133C21.9096 4.88133 21.133 5.12885 20.4562 5.62389L1.11982 19.7792C0.924631 19.9227 0.815101 20.1064 0.791232 20.3305C0.767364 20.5546 0.836154 20.7534 0.997602 20.9268L2.94552 23.0317C3.10654 23.2057 3.31322 23.3036 3.56556 23.3253C3.8179 23.3468 4.0418 23.2859 4.23726 23.1424L22.2055 9.98722C22.376 9.86503 22.5707 9.80393 22.7898 9.80393C23.0089 9.80393 23.2037 9.86503 23.3742 9.98722L41.3432 23.1424C41.5382 23.2859 41.7619 23.3471 42.014 23.3258C42.2661 23.3046 42.4728 23.2073 42.6341 23.0338L44.582 20.9288C44.7434 20.7544 44.8114 20.5547 44.786 20.3301C44.7606 20.1054 44.6493 19.9218 44.4522 19.7792Z" fill="white"/>
</g>
</g>
</svg>
