<svg width="45" height="40" viewBox="0 0 45 40" fill="none" xmlns="http://www.w3.org/2000/svg">
<g clip-path="url(#clip0_591_469)">
<mask id="mask0_591_469" style="mask-type:luminance" maskUnits="userSpaceOnUse" x="0" y="0" width="45" height="40">
<path d="M0.788086 0.633789H44.7881V39.7449H0.788086V0.633789Z" fill="white"/>
</mask>
<g mask="url(#mask0_591_469)">
<mask id="mask1_591_469" style="mask-type:luminance" maskUnits="userSpaceOnUse" x="0" y="0" width="45" height="40">
<path d="M0.788086 0.634766H44.7881V39.7459H0.788086V0.634766Z" fill="white"/>
</mask>
<g mask="url(#mask1_591_469)">
<path d="M43.5661 18.016H41.3127C40.6404 16.658 39.6627 15.4562 38.4557 14.4512L39.8994 9.32467H37.455C35.2091 9.32467 33.2231 10.2413 31.8786 11.6537C31.2981 11.579 30.7252 11.4975 30.1216 11.4975H20.3439C14.4314 11.4975 9.50429 15.2321 8.3661 20.1889H5.0661C3.93554 20.1889 3.04179 19.2722 3.27095 18.2333C3.43901 17.4593 4.25637 16.9296 5.14248 16.9296H5.21887C5.47095 16.9296 5.6772 16.7463 5.6772 16.5222V15.1642C5.6772 14.9401 5.47095 14.7567 5.21887 14.7567C3.04179 14.7567 1.10151 16.1419 0.826511 18.0567C0.4904 20.379 2.52235 22.3617 5.0661 22.3617H8.12165C8.12165 25.9062 10.0619 29.0228 13.0106 31.0056V36.4851C13.0106 37.0827 13.5606 37.5716 14.2328 37.5716H19.1216C19.7939 37.5716 20.3439 37.0827 20.3439 36.4851V33.2259H30.1216V36.4851C30.1216 37.0827 30.6716 37.5716 31.3439 37.5716H36.2328C36.905 37.5716 37.455 37.0827 37.455 36.4851V31.0056C38.3564 30.4012 39.1585 29.6882 39.846 28.8802H43.5661C44.2383 28.8802 44.7883 28.3913 44.7883 27.7938V19.1025C44.7883 18.5049 44.2383 18.016 43.5661 18.016ZM33.7883 22.3617C33.1161 22.3617 32.5661 21.8728 32.5661 21.2752C32.5661 20.6778 33.1161 20.1889 33.7883 20.1889C34.4606 20.1889 35.0106 20.6778 35.0106 21.2752C35.0106 21.8728 34.4606 22.3617 33.7883 22.3617ZM20.3439 9.32467H30.1216C30.5341 9.32467 30.939 9.35183 31.3362 9.37899C31.3362 9.35862 31.3439 9.34504 31.3439 9.32467C31.3439 5.72591 28.0591 2.80615 24.0106 2.80615C19.9619 2.80615 16.6772 5.72591 16.6772 9.32467C16.6772 9.46727 16.7154 9.60306 16.7231 9.74566C17.8841 9.48084 19.0911 9.32467 20.3439 9.32467Z" fill="white"/>
</g>
</g>
</g>
<defs>
<clipPath id="clip0_591_469">
<rect width="44" height="39.1114" fill="white" transform="translate(0.788086 0.632324)"/>
</clipPath>
</defs>
</svg>
