<svg width="45" height="40" viewBox="0 0 45 40" fill="none" xmlns="http://www.w3.org/2000/svg">
<g clip-path="url(#clip0_591_598)">
<mask id="mask0_591_598" style="mask-type:luminance" maskUnits="userSpaceOnUse" x="0" y="0" width="45" height="40">
<path d="M0.208008 0.633789H44.208V39.7449H0.208008V0.633789Z" fill="white"/>
</mask>
<g mask="url(#mask0_591_598)">
<mask id="mask1_591_598" style="mask-type:luminance" maskUnits="userSpaceOnUse" x="0" y="0" width="45" height="40">
<path d="M0.208008 0.634766H44.208V39.7459H0.208008V0.634766Z" fill="white"/>
</mask>
<g mask="url(#mask1_591_598)">
<path d="M21.2379 19.8135C21.7726 20.3159 22.6434 20.3159 23.1858 19.8135L31.5046 12.0591C33.9184 9.80481 33.7809 6.07025 31.0768 3.99247C28.7239 2.17951 25.2177 2.50543 23.0635 4.51531L22.208 5.30975L21.3601 4.5221C19.2059 2.50543 15.6997 2.17951 13.3469 3.99247C10.6504 6.07025 10.5052 9.80481 12.9192 12.0591L21.2379 19.8135ZM43.3906 25.0826C42.4893 24.356 41.0837 24.4036 40.1365 25.0826L33.0781 30.1005C32.215 30.7184 31.1379 31.0511 30.0226 31.0511H20.9858C20.3135 31.0511 19.7635 30.5622 19.7635 29.9647C19.7635 29.3672 20.3135 28.8782 20.9858 28.8782H26.9671C28.1817 28.8782 29.3122 28.1381 29.5108 27.0721C29.7629 25.7141 28.5865 24.5326 27.0969 24.5326H14.8747C12.8122 24.5326 10.8184 25.1641 9.21426 26.3184L5.66217 28.8782H1.43023C0.758008 28.8782 0.208008 29.3672 0.208008 29.9647V36.4832C0.208008 37.0807 0.758008 37.5696 1.43023 37.5696H28.6858C29.7934 37.5696 30.8705 37.2369 31.7413 36.619L43.2913 28.4029C44.4525 27.5813 44.5442 26.006 43.3906 25.0826Z" fill="white"/>
</g>
</g>
</g>
<defs>
<clipPath id="clip0_591_598">
<rect width="44" height="39.1114" fill="white" transform="translate(0.208008 0.632324)"/>
</clipPath>
</defs>
</svg>
