<svg width="45" height="45" viewBox="0 0 45 45" fill="none" xmlns="http://www.w3.org/2000/svg">
<g clip-path="url(#clip0_591_501)">
<mask id="mask0_591_501" style="mask-type:luminance" maskUnits="userSpaceOnUse" x="0" y="0" width="45" height="45">
<path d="M0.927734 0.187988H44.9277V44.188H0.927734V0.187988Z" fill="white"/>
</mask>
<g mask="url(#mask0_591_501)">
<mask id="mask1_591_501" style="mask-type:luminance" maskUnits="userSpaceOnUse" x="0" y="0" width="45" height="45">
<path d="M0.927734 0.187988H44.9277V44.188H0.927734V0.187988Z" fill="white"/>
</mask>
<g mask="url(#mask1_591_501)">
<path d="M3.67773 38.688C3.67773 40.2091 4.90664 41.438 6.42773 41.438H20.1777V27.688H3.67773V38.688ZM25.6777 41.438H39.4277C40.9489 41.438 42.1777 40.2091 42.1777 38.688V27.688H25.6777V41.438ZM42.1777 13.938H38.5597C39.0926 12.8981 39.4277 11.7466 39.4277 10.5005C39.4277 6.33252 36.0332 2.93799 31.8652 2.93799C28.2902 2.93799 25.9785 4.76845 23.0137 8.80752C20.0489 4.76846 17.7371 2.93799 14.1621 2.93799C9.99414 2.93799 6.59961 6.33252 6.59961 10.5005C6.59961 11.7466 6.92617 12.8981 7.46757 13.938H3.67773C2.15664 13.938 0.927734 15.1669 0.927734 16.688V23.563C0.927734 24.3192 1.54648 24.938 2.30273 24.938H43.5527C44.309 24.938 44.9277 24.3192 44.9277 23.563V16.688C44.9277 15.1669 43.6989 13.938 42.1777 13.938ZM14.1535 13.938C12.2543 13.938 10.716 12.3997 10.716 10.5005C10.716 8.60126 12.2543 7.06299 14.1535 7.06299C15.8636 7.06299 17.127 7.34659 21.5527 13.938H14.1535ZM31.8652 13.938H24.466C28.8832 7.36377 30.1121 7.06299 31.8652 7.06299C33.7645 7.06299 35.3027 8.60127 35.3027 10.5005C35.3027 12.3997 33.7645 13.938 31.8652 13.938Z" fill="white"/>
</g>
</g>
</g>
<defs>
<clipPath id="clip0_591_501">
<rect width="44" height="44" fill="white" transform="translate(0.927734 0.187988)"/>
</clipPath>
</defs>
</svg>
