<svg width="45" height="40" viewBox="0 0 45 40" fill="none" xmlns="http://www.w3.org/2000/svg">
<mask id="mask0_591_1138" style="mask-type:luminance" maskUnits="userSpaceOnUse" x="0" y="0" width="45" height="40">
<path d="M0.0678711 0.529785H44.0679V39.6409H0.0678711V0.529785Z" fill="white"/>
</mask>
<g mask="url(#mask0_591_1138)">
<path d="M36.7344 15.7382H28.0038L19.9754 3.24846C19.8664 3.07922 19.7171 2.94569 19.5272 2.84787C19.3375 2.75006 19.133 2.70116 18.9135 2.70117H13.9101C13.0981 2.70117 12.5122 3.39173 12.7352 4.08568L16.4806 15.7382H8.62322L5.32322 11.8271C5.09253 11.5535 4.72968 11.3925 4.34545 11.3925H1.29066C0.495447 11.3925 -0.0881649 12.0566 0.105099 12.7424L2.51212 20.0839L0.105099 27.4254C-0.0881649 28.1112 0.495447 28.7752 1.29066 28.7752H4.34545C4.73045 28.7752 5.09253 28.6143 5.32322 28.3407L8.62322 24.4296H16.4806L12.7352 36.0814C12.5122 36.7754 13.0981 37.4666 13.9101 37.4666H18.9135C19.3521 37.4666 19.7569 37.2575 19.9746 36.9193L28.0038 24.4296H36.7344C39.4347 24.4296 44.0677 22.4842 44.0677 20.0839C44.0677 17.6835 39.4347 15.7382 36.7344 15.7382Z" fill="white"/>
</g>
</svg>
