<svg width="45" height="45" viewBox="0 0 45 45" fill="none" xmlns="http://www.w3.org/2000/svg">
<g clip-path="url(#clip0_591_679)">
<mask id="mask0_591_679" style="mask-type:luminance" maskUnits="userSpaceOnUse" x="0" y="0" width="45" height="45">
<path d="M0.927734 0.0839844H44.9277V44.084H0.927734V0.0839844Z" fill="white"/>
</mask>
<g mask="url(#mask0_591_679)">
<path fill-rule="evenodd" clip-rule="evenodd" d="M40.0334 5.01174C42.5909 7.72507 44.0521 11.4321 44.5746 15.5039C45.0953 19.4181 44.8863 22.0801 44.8863 22.0801C44.8863 22.0801 45.0439 24.7421 44.5214 28.6562C44.0008 32.7262 42.5378 36.4351 39.9803 39.1484C37.2669 41.7059 33.5599 43.1671 29.4899 43.6896C25.5739 44.1589 22.9119 44.0562 22.9119 44.0562C22.9119 44.0562 20.2518 44.2102 16.3358 43.6896C12.2658 43.1671 8.55877 41.7059 5.84543 39.1484C3.28793 36.4351 1.82493 32.7281 1.30427 28.6562C0.833101 24.7421 0.937601 22.0801 0.937601 22.0801C0.937601 22.0801 0.833101 19.4181 1.3556 15.5039C1.8781 11.4321 3.33927 7.7269 5.89677 5.01174C8.6101 2.45424 12.3171 0.993071 16.3889 0.470571C20.3031 0.00123815 22.9651 0.105738 22.9651 0.105738C22.9651 0.105738 25.6271 -0.0500951 29.5413 0.472405C33.6113 0.993071 37.3183 2.45424 40.0334 5.01174ZM12.9954 15.6597H9.08127V27.1951H11.2208V23.9079H12.9954C13.6224 23.9079 14.1963 23.8016 14.6656 23.5926C15.1349 23.3836 15.6061 23.0719 15.9709 22.7071C16.3537 22.3379 16.6558 21.8935 16.8583 21.4017C17.0673 20.8792 17.1699 20.3567 17.1699 19.7829C17.1733 19.2287 17.0674 18.6792 16.8583 18.1659C16.6558 17.6742 16.3537 17.2297 15.9709 16.8606C15.6018 16.4778 15.1573 16.1757 14.6656 15.9732C14.135 15.7621 13.5683 15.6562 12.9973 15.6616L12.9954 15.6597ZM11.1694 21.8711V17.5921H12.8378C13.1531 17.5921 13.4648 17.6434 13.7269 17.7479C13.983 17.8559 14.2139 18.0157 14.4053 18.2172C14.5611 18.4262 14.7169 18.6352 14.8233 18.8956C14.9278 19.1577 14.9791 19.4181 14.9791 19.7316C14.9791 20.0432 14.9278 20.3054 14.8233 20.5676C14.7296 20.8241 14.5838 21.0586 14.3951 21.2561C14.2065 21.4536 13.979 21.6099 13.7269 21.7152C13.4438 21.8231 13.1426 21.876 12.8396 21.8711H11.1694ZM20.4589 26.8816C21.0346 27.0906 21.5553 27.1951 22.1309 27.1951C22.7561 27.1951 23.2786 27.0906 23.7993 26.8816C24.3218 26.6212 24.7929 26.3077 25.1046 25.8897V27.1951H27.2459V17.9037H25.1046V19.1046C24.7398 18.7379 24.3218 18.4262 23.8011 18.2172C23.2707 18.0009 22.7018 17.8948 22.1291 17.9056C21.5039 17.9056 20.9814 18.0082 20.4076 18.2172C19.8851 18.4262 19.3626 18.6866 18.9464 19.1046C18.5119 19.5238 18.1577 20.019 17.9014 20.5657C17.6411 21.1396 17.5366 21.8197 17.5366 22.5494C17.5366 23.2809 17.6943 23.9592 17.9546 24.5331C18.2149 25.1069 18.5816 25.5781 18.9996 25.9942C19.4158 26.3609 19.9383 26.6726 20.4589 26.8816ZM23.5921 25.0556C23.2786 25.2114 22.9138 25.2646 22.4958 25.2646C22.1215 25.2543 21.7513 25.1837 21.3994 25.0556L21.3921 25.0519C21.0804 24.8961 20.7706 24.7402 20.5121 24.4817C20.2928 24.2051 20.1006 23.9079 19.9383 23.5944C19.7906 23.2663 19.7192 22.909 19.7293 22.5494C19.7293 22.1846 19.7806 21.8197 19.9383 21.5062C20.0428 21.1946 20.2499 20.9324 20.5121 20.6702C20.7649 20.4195 21.0671 20.2241 21.3994 20.0964C21.7661 19.9406 22.1309 19.8874 22.4958 19.8874C22.8624 19.8874 23.2254 19.9406 23.5921 20.1496C23.9569 20.3054 24.2173 20.4612 24.4794 20.7234C24.7398 20.9324 24.8956 21.2459 25.0533 21.5594C25.2091 21.8711 25.2623 22.2377 25.2623 22.6026C25.2623 22.9674 25.2091 23.3322 25.0533 23.6476C24.9118 23.9568 24.7176 24.239 24.4794 24.4817C24.2173 24.7421 23.9056 24.8997 23.5921 25.0556ZM32.8303 24.2727L30.2196 17.9569H27.9756L31.7339 26.7789L29.8034 31.4227H31.9943L37.4759 17.9569H35.2301L32.8303 24.2727Z" fill="white"/>
</g>
</g>
<defs>
<clipPath id="clip0_591_679">
<rect width="44" height="44" fill="white" transform="translate(0.927734 0.0839844)"/>
</clipPath>
</defs>
</svg>
