<svg width="49" height="48" viewBox="0 0 49 48" fill="none" xmlns="http://www.w3.org/2000/svg">
<mask id="mask0_239_3554" style="mask-type:luminance" maskUnits="userSpaceOnUse" x="0" y="0" width="49" height="48">
<path d="M0.470215 0.015625H48.4702V47.9865H0.470215V0.015625Z" fill="white"/>
</mask>
<g mask="url(#mask0_239_3554)">
<path d="M48.4588 23.8793C48.4588 37.126 37.7114 47.8734 24.4647 47.8734C11.2176 47.8734 0.470215 37.126 0.470215 23.8793C0.470215 10.6322 11.2176 -0.115234 24.4647 -0.115234C37.7114 -0.115234 48.4588 10.6322 48.4588 23.8793ZM2.38987 23.8793C2.38987 36.0661 12.2775 45.9542 24.4647 45.9542C36.6516 45.9542 46.5392 36.0661 46.5392 23.8793C46.5392 11.692 36.6516 1.80442 24.4647 1.80442C12.2775 1.80442 2.38987 11.692 2.38987 23.8793Z" fill="#092C4C"/>
</g>
<path fill-rule="evenodd" clip-rule="evenodd" d="M24.4651 28.6778C18.6364 28.6778 13.9072 23.9486 13.9072 18.1199C13.9072 12.2917 18.6364 7.5625 24.4651 7.5625C30.2933 7.5625 35.0225 12.2917 35.0225 18.1199C35.0225 23.9486 30.2933 28.6778 24.4651 28.6778ZM24.4651 26.7581C29.2339 26.7581 33.1029 22.8892 33.1029 18.1199C33.1029 13.3511 29.2339 9.48215 24.4651 9.48215C19.6958 9.48215 15.8269 13.3511 15.8269 18.1199C15.8269 22.8892 19.6958 26.7581 24.4651 26.7581Z" fill="#092C4C"/>
<path d="M17.7465 34.4363H31.1832C35.6322 34.4363 38.8217 35.9358 40.8211 38.4355C41.151 38.8451 41.7607 38.9153 42.1708 38.5754C42.5904 38.2455 42.6506 37.6454 42.3207 37.2358C39.9513 34.2763 36.2122 32.5166 31.1832 32.5166H17.7465C12.7175 32.5166 8.97847 34.2763 6.60909 37.2358C6.2792 37.6454 6.33935 38.2455 6.759 38.5754C7.16909 38.9153 7.77875 38.8451 8.10864 38.4355C10.1085 35.9358 13.2976 34.4363 17.7465 34.4363Z" fill="#092C4C"/>
</svg>
